<svg width="298" height="240" viewBox="0 0 298 240" fill="none" xmlns="http://www.w3.org/2000/svg">
<path opacity="0.3" d="M139.741 123.068C139.741 123.068 134.215 125.441 142.192 130.519C150.169 135.598 257.888 200.928 262.738 201.792C267.589 202.656 279.662 198.011 273.086 192.069C266.51 186.126 158.468 123.064 158.468 123.064L139.74 123.068H139.741Z" fill="url(#paint0_linear_140_1305)"/>
<path opacity="0.25" d="M89.9103 168.656C87.9003 169.427 87.7031 172.199 89.5824 173.25L200.617 235.316L252.143 203.985L137.449 136.893L89.9103 168.656Z" fill="url(#paint1_linear_140_1305)"/>
<path opacity="0.25" d="M25.6662 115.826C23.6562 116.597 23.459 119.369 25.3383 120.419L136.373 182.486L187.899 151.154L73.2036 84.0635L25.6662 115.826Z" fill="url(#paint2_linear_140_1305)"/>
<path d="M139.234 4.97435L143.9 116.159C143.9 119.502 145.666 122.588 148.544 124.268L172.056 140.983L193.186 156.008C196.771 158.103 204.878 151.956 204.878 147.792V38.5732C204.878 36.8724 204.388 35.236 203.505 33.8489C202.766 32.6813 201.75 31.6896 200.516 30.9702L149.012 0.879788C146.746 -0.447527 139.234 2.34041 139.234 4.97435Z" fill="#878AA0"/>
<path d="M172.057 50.7934V140.982L193.186 156.006C196.772 158.101 204.878 151.954 204.878 147.791V38.573C204.878 36.8722 204.389 35.2357 203.506 33.8486L172.057 50.7923V50.7934Z" fill="#2B2E3D"/>
<path d="M191.694 155.265L143.452 127.081C140.574 125.4 138.805 122.313 138.805 118.974V6.63805C138.805 4.00755 141.652 2.36766 143.92 3.69267L195.425 33.7831C198.125 35.3598 199.785 38.2557 199.785 41.3873V150.607C199.785 154.769 195.282 157.361 191.696 155.266L191.694 155.265Z" fill="#525575"/>
<path d="M194.393 152.985C195.534 152.985 196.766 152.076 196.766 150.607V41.386C196.766 39.3382 195.67 37.4248 193.904 36.3939L142.397 6.30355C142.309 6.25184 142.247 6.24609 142.209 6.24609C142.131 6.24609 141.818 6.31505 141.818 6.63797V118.975C141.818 121.229 143.026 123.335 144.969 124.471L193.212 152.655C193.588 152.875 193.985 152.985 194.393 152.985Z" fill="white"/>
<path d="M171.641 60.2867L190.615 71.2408V54.2443L171.641 43.2891V60.2867Z" fill="#40C6C2"/>
<path d="M171.641 104.508L190.615 115.463V98.4658L171.641 87.5117V104.508Z" fill="#C2C6CE"/>
<path d="M148.039 90.8803L167.013 101.836V84.8379L148.039 73.8838V90.8803Z" fill="#C2C6CE"/>
<path d="M151.701 30.5182L167.778 39.8002C168.388 40.1519 168.887 39.9404 168.887 39.3291V39.0257C168.887 38.4143 168.388 37.626 167.778 37.2743L151.701 27.9923C151.091 27.6407 150.592 27.8521 150.592 28.4635V28.7669C150.592 29.3782 151.091 30.1666 151.701 30.5182Z" fill="#40C6C2"/>
<path d="M176.798 35.1999L192.876 44.4819C193.486 44.8335 193.985 44.6221 193.985 44.0107V43.7073C193.985 43.096 193.486 42.3076 192.876 41.956L176.798 32.6739C176.188 32.3223 175.689 32.5337 175.689 33.1451V33.4485C175.689 34.0599 176.188 34.8482 176.798 35.1999Z" fill="#40C6C2"/>
<path d="M148.841 37.692L166.207 47.7175C166.686 47.9945 167.079 47.8279 167.079 47.3475V47.1096C167.079 46.6293 166.687 46.0087 166.207 45.7317L148.841 35.7062C148.362 35.4292 147.969 35.5959 147.969 36.0762V36.3141C147.969 36.7945 148.361 37.415 148.841 37.692Z" fill="#C2C6CE"/>
<path d="M148.841 42.233L166.207 52.2586C166.686 52.5355 167.079 52.3689 167.079 51.8885V51.6506C167.079 51.1703 166.687 50.5497 166.207 50.2728L148.841 40.2472C148.362 39.9703 147.969 40.1369 147.969 40.6173V40.8551C147.969 41.3355 148.361 41.9561 148.841 42.233Z" fill="#C2C6CE"/>
<path d="M148.841 46.7721L166.207 56.7976C166.686 57.0746 167.079 56.9079 167.079 56.4276V56.1897C167.079 55.7093 166.687 55.0888 166.207 54.8118L148.841 44.7863C148.362 44.5093 147.969 44.676 147.969 45.1563V45.3942C147.969 45.8746 148.361 46.4951 148.841 46.7721Z" fill="#C2C6CE"/>
<path d="M148.841 53.9537L185.02 74.8414C185.5 75.1184 185.893 74.9517 185.893 74.4714V74.2335C185.893 73.7531 185.501 73.1326 185.02 72.8556L148.841 51.9679C148.362 51.691 147.969 51.8576 147.969 52.338V52.5758C147.969 53.0562 148.361 53.6768 148.841 53.9537Z" fill="#C2C6CE"/>
<path d="M148.841 58.4928L189.743 82.1075C190.223 82.3845 190.616 82.2178 190.616 81.7375V81.4996C190.616 81.0192 190.224 80.3987 189.743 80.1217L148.841 56.507C148.362 56.23 147.969 56.3967 147.969 56.877V57.1149C147.969 57.5953 148.361 58.2158 148.841 58.4928Z" fill="#C2C6CE"/>
<path d="M148.841 63.0328L189.743 86.6475C190.223 86.9245 190.616 86.7579 190.616 86.2775V86.0396C190.616 85.5593 190.224 84.9387 189.743 84.6617L148.841 61.047C148.362 60.7701 147.969 60.9367 147.969 61.4171V61.6549C147.969 62.1353 148.361 62.7559 148.841 63.0328Z" fill="#C2C6CE"/>
<path d="M148.841 67.5729L189.743 91.1876C190.223 91.4645 190.616 91.2979 190.616 90.8175V90.5797C190.616 90.0993 190.224 89.4787 189.743 89.2018L148.841 65.5871C148.362 65.3101 147.969 65.4767 147.969 65.9571V66.195C147.969 66.6753 148.361 67.2959 148.841 67.5729Z" fill="#C2C6CE"/>
<path d="M153.445 116.81L177.832 130.889C179.645 131.936 181.129 131.305 181.129 129.489V128.589C181.129 126.772 179.645 124.429 177.832 123.382L153.445 109.302C151.632 108.255 150.148 108.886 150.148 110.703V111.603C150.148 113.419 151.632 115.763 153.445 116.81Z" fill="url(#paint3_linear_140_1305)"/>
<path d="M75.3668 142.501V146.013C73.7707 145.993 72.1838 145.568 70.7517 144.742L26.1027 118.928C24.1546 117.805 23.0194 112.67 24.9629 111.536C24.2876 112.847 24.6705 114.591 26.1027 115.416L70.7517 141.23C72.1838 142.056 73.7707 142.48 75.3668 142.501Z" fill="#C9C9C9"/>
<path d="M125.311 114.939L80.234 141.214C77.3021 142.922 73.6868 142.93 70.7515 141.23L26.1024 115.416C24.6703 114.589 24.2862 112.846 24.9627 111.536C25.2023 111.063 25.5784 110.65 26.0944 110.35L76.1944 81.1445L125.303 109.536C125.735 109.785 126.074 110.113 126.327 110.487C126.327 110.487 126.33 110.487 126.33 110.49C127.29 111.91 126.95 113.986 125.311 114.94V114.939Z" fill="#EAEAEA"/>
<path d="M125.311 118.451L80.2345 144.726C78.7313 145.604 77.047 146.033 75.3672 146.013V142.501C77.047 142.521 78.7302 142.092 80.2345 141.214L125.311 114.939C126.951 113.985 127.291 111.909 126.331 110.489C128.398 111.691 127.382 117.243 125.311 118.45V118.451Z" fill="#AEAFAF"/>
<path d="M65.4277 126.694L103.923 104.679V87.0029L65.4277 105.287V126.694Z" fill="#969696"/>
<path d="M77.7118 114.878L69.1833 120.945L68.1582 120.39V106.786L77.7118 101.273L78.7368 101.83L77.7118 114.878Z" fill="#AFB2B2"/>
<path d="M78.7352 115.434L69.1816 120.946V107.342L78.7352 101.83V115.434Z" fill="white"/>
<path d="M70.2051 118.363V119.169L77.7108 114.84V103.603L76.9024 104.068V114.495L70.2051 118.363Z" fill="#247F78"/>
<path d="M70.2051 107.937V118.363L76.9024 114.495V104.068L70.2051 107.937Z" fill="#36A29C"/>
<path d="M76.9024 114.495L77.7108 114.841L70.2051 119.17V118.363L76.9024 114.495Z" fill="#7FD3C5"/>
<path d="M68.1582 106.786L69.1833 107.341V120.945L68.1582 120.39V106.786Z" fill="#858C8C"/>
<path d="M101.439 102.613L92.9098 108.681L91.8848 108.125V94.5205L101.439 89.0078L102.463 89.564L101.439 102.613Z" fill="#AFB2B2"/>
<path d="M102.462 103.169L92.9082 108.681V95.076L102.462 89.5645V103.169Z" fill="white"/>
<path d="M93.9316 106.098V106.905L101.439 102.576V91.3379L100.629 91.8033V102.23L93.9316 106.098Z" fill="#247F78"/>
<path d="M93.9316 95.6709V106.098L100.629 102.229V91.8027L93.9316 95.6709Z" fill="#36A29C"/>
<path d="M100.629 102.229L101.439 102.575L93.9316 106.904V106.098L100.629 102.229Z" fill="#7FD3C5"/>
<path d="M91.8848 94.5205L92.9098 95.0756V108.681L91.8848 108.125V94.5205Z" fill="#858C8C"/>
<path d="M34.6621 108.944L65.428 126.693V105.286L34.6621 87.5371V108.944Z" fill="#E5E5E5"/>
<path d="M77.3921 134.666C79.6453 134.666 81.4718 133.726 81.4718 132.566C81.4718 131.405 79.6453 130.465 77.3921 130.465C75.139 130.465 73.3125 131.405 73.3125 132.566C73.3125 133.726 75.139 134.666 77.3921 134.666Z" fill="#EDEFEF"/>
<path d="M81.4718 132.565V133.339C81.4718 134.498 79.6452 135.44 77.3921 135.44C75.1391 135.44 73.3125 134.498 73.3125 133.339V132.565C73.3125 133.725 75.1391 134.666 77.3921 134.666C79.6452 134.666 81.4718 133.725 81.4718 132.565Z" fill="#AEAFAF"/>
<path d="M77.3928 130.148C79.0811 130.148 80.4497 129.443 80.4497 128.573C80.4497 127.704 79.0811 126.999 77.3928 126.999C75.7045 126.999 74.3359 127.704 74.3359 128.573C74.3359 129.443 75.7045 130.148 77.3928 130.148Z" fill="#EDEFEF"/>
<path d="M80.4497 128.574V132.163C80.4497 133.032 79.0806 133.738 77.3928 133.738C75.705 133.738 74.3359 133.032 74.3359 132.163V128.574C74.3359 129.443 75.705 130.149 77.3928 130.149C79.0806 130.149 80.4497 129.443 80.4497 128.574Z" fill="#AEAFAF"/>
<path d="M79.4167 112.152C79.4167 112.727 78.5109 113.194 77.3929 113.194C76.275 113.194 75.3691 112.727 75.3691 112.152C75.3691 111.576 76.275 111.109 77.3929 111.109C78.5109 111.109 79.4167 111.576 79.4167 112.152Z" fill="url(#paint4_linear_140_1305)" stroke="#D1541F" stroke-miterlimit="10"/>
<path d="M79.4167 112.151V128.41C79.4167 128.986 78.5109 129.452 77.3929 129.452C76.275 129.452 75.3691 128.986 75.3691 128.41V112.151C75.3691 112.727 76.275 113.194 77.3929 113.194C78.5109 113.194 79.4167 112.727 79.4167 112.151Z" fill="#C0C4C4"/>
<path d="M77.3928 111.145C79.0811 111.145 80.4497 110.44 80.4497 109.57C80.4497 108.701 79.0811 107.996 77.3928 107.996C75.7045 107.996 74.3359 108.701 74.3359 109.57C74.3359 110.44 75.7045 111.145 77.3928 111.145Z" fill="#CDD1D1"/>
<path d="M80.4497 109.57V113.159C80.4497 114.028 79.0806 114.734 77.3928 114.734C75.705 114.734 74.3359 114.028 74.3359 113.159V109.57C74.3359 110.439 75.705 111.145 77.3928 111.145C79.0806 111.145 80.4497 110.439 80.4497 109.57Z" fill="#AEAFAF"/>
<path d="M88.2945 128.282C90.5476 128.282 92.3741 127.341 92.3741 126.181C92.3741 125.021 90.5476 124.08 88.2945 124.08C86.0414 124.08 84.2148 125.021 84.2148 126.181C84.2148 127.341 86.0414 128.282 88.2945 128.282Z" fill="#EDEFEF"/>
<path d="M92.3741 126.182V126.956C92.3741 128.116 90.5476 129.057 88.2945 129.057C86.0414 129.057 84.2148 128.116 84.2148 126.956V126.183C84.2148 127.342 86.0414 128.284 88.2945 128.284C90.5476 128.284 92.3741 127.342 92.3741 126.183V126.182Z" fill="#AEAFAF"/>
<path d="M88.2952 123.763C89.9834 123.763 91.352 123.058 91.352 122.189C91.352 121.319 89.9834 120.614 88.2952 120.614C86.6069 120.614 85.2383 121.319 85.2383 122.189C85.2383 123.058 86.6069 123.763 88.2952 123.763Z" fill="#EDEFEF"/>
<path d="M91.352 122.188V125.777C91.352 126.646 89.983 127.352 88.2952 127.352C86.6073 127.352 85.2383 126.646 85.2383 125.777V122.188C85.2383 123.057 86.6073 123.763 88.2952 123.763C89.983 123.763 91.352 123.057 91.352 122.188Z" fill="#AEAFAF"/>
<path d="M88.2953 106.81C89.413 106.81 90.319 106.344 90.319 105.768C90.319 105.192 89.413 104.726 88.2953 104.726C87.1776 104.726 86.2715 105.192 86.2715 105.768C86.2715 106.344 87.1776 106.81 88.2953 106.81Z" fill="url(#paint5_linear_140_1305)" stroke="#D1541F" stroke-miterlimit="10"/>
<path d="M90.319 105.769V122.027C90.319 122.603 89.4132 123.07 88.2953 123.07C87.1773 123.07 86.2715 122.603 86.2715 122.027V105.769C86.2715 106.344 87.1773 106.811 88.2953 106.811C89.4132 106.811 90.319 106.344 90.319 105.769Z" fill="#C0C4C4"/>
<path d="M91.352 103.186C91.352 104.055 89.983 104.76 88.2952 104.76C86.6073 104.76 85.2383 104.055 85.2383 103.186C85.2383 102.317 86.6073 101.611 88.2952 101.611C89.983 101.611 91.352 102.317 91.352 103.186Z" fill="#CDD1D1"/>
<path d="M91.352 103.186V106.774C91.352 107.643 89.983 108.349 88.2952 108.349C86.6073 108.349 85.2383 107.643 85.2383 106.774V103.186C85.2383 104.054 86.6073 104.76 88.2952 104.76C89.983 104.76 91.352 104.054 91.352 103.186Z" fill="#AEAFAF"/>
<path d="M99.1968 121.898C101.45 121.898 103.276 120.957 103.276 119.797C103.276 118.637 101.45 117.696 99.1968 117.696C96.9437 117.696 95.1172 118.637 95.1172 119.797C95.1172 120.957 96.9437 121.898 99.1968 121.898Z" fill="#EDEFEF"/>
<path d="M103.276 119.797V120.57C103.276 121.73 101.45 122.671 99.1968 122.671C96.9449 122.671 95.1172 121.73 95.1172 120.57V119.796C95.1172 120.955 96.9437 121.897 99.1968 121.897C101.45 121.897 103.276 120.955 103.276 119.796V119.797Z" fill="#AEAFAF"/>
<path d="M99.1975 117.378C100.886 117.378 102.254 116.673 102.254 115.804C102.254 114.934 100.886 114.229 99.1975 114.229C97.5092 114.229 96.1406 114.934 96.1406 115.804C96.1406 116.673 97.5092 117.378 99.1975 117.378Z" fill="#EDEFEF"/>
<path d="M102.256 115.804V119.393C102.256 120.261 100.887 120.967 99.1994 120.967C97.5116 120.967 96.1426 120.261 96.1426 119.393V115.804C96.1426 116.672 97.5116 117.378 99.1994 117.378C100.887 117.378 102.256 116.672 102.256 115.804Z" fill="#AEAFAF"/>
<path d="M99.1976 100.425C100.315 100.425 101.221 99.9588 101.221 99.3831C101.221 98.8075 100.315 98.3408 99.1976 98.3408C98.0799 98.3408 97.1738 98.8075 97.1738 99.3831C97.1738 99.9588 98.0799 100.425 99.1976 100.425Z" fill="url(#paint6_linear_140_1305)" stroke="#D1541F" stroke-miterlimit="10"/>
<path d="M101.223 99.3828V115.642C101.223 116.217 100.317 116.684 99.1995 116.684C98.0816 116.684 97.1758 116.217 97.1758 115.642V99.3828C97.1758 99.9586 98.0816 100.425 99.1995 100.425C100.317 100.425 101.223 99.9586 101.223 99.3828Z" fill="#C0C4C4"/>
<path d="M99.1975 98.3753C100.886 98.3753 102.254 97.6705 102.254 96.801C102.254 95.9314 100.886 95.2266 99.1975 95.2266C97.5092 95.2266 96.1406 95.9314 96.1406 96.801C96.1406 97.6705 97.5092 98.3753 99.1975 98.3753Z" fill="#CDD1D1"/>
<path d="M102.256 96.8008V100.39C102.256 101.258 100.887 101.964 99.1994 101.964C97.5116 101.964 96.1426 101.258 96.1426 100.39V96.8008C96.1426 97.6696 97.5116 98.3752 99.1994 98.3752C100.887 98.3752 102.256 97.6696 102.256 96.8008Z" fill="#AEAFAF"/>
<path d="M110.099 115.513C112.352 115.513 114.179 114.572 114.179 113.412C114.179 112.252 112.352 111.312 110.099 111.312C107.846 111.312 106.02 112.252 106.02 113.412C106.02 114.572 107.846 115.513 110.099 115.513Z" fill="#EDEFEF"/>
<path d="M114.179 113.412V114.186C114.179 115.345 112.352 116.286 110.099 116.286C107.846 116.286 106.02 115.345 106.02 114.186V113.412C106.02 114.572 107.846 115.513 110.099 115.513C112.351 115.513 114.179 114.572 114.179 113.412Z" fill="#AEAFAF"/>
<path d="M110.1 110.994C111.788 110.994 113.157 110.29 113.157 109.42C113.157 108.551 111.788 107.846 110.1 107.846C108.412 107.846 107.043 108.551 107.043 109.42C107.043 110.29 108.412 110.994 110.1 110.994Z" fill="#EDEFEF"/>
<path d="M113.159 109.42V113.009C113.159 113.878 111.79 114.583 110.102 114.583C108.414 114.583 107.045 113.878 107.045 113.009V109.42C107.045 110.289 108.414 110.994 110.102 110.994C111.79 110.994 113.159 110.289 113.159 109.42Z" fill="#AEAFAF"/>
<path d="M110.1 94.0407C111.218 94.0407 112.124 93.574 112.124 92.9984C112.124 92.4227 111.218 91.9561 110.1 91.9561C108.982 91.9561 108.076 92.4227 108.076 92.9984C108.076 93.574 108.982 94.0407 110.1 94.0407Z" fill="url(#paint7_linear_140_1305)" stroke="#D1541F" stroke-miterlimit="10"/>
<path d="M112.124 92.998V109.257C112.124 109.833 111.218 110.299 110.1 110.299C108.982 110.299 108.076 109.833 108.076 109.257V92.998C108.076 93.5738 108.982 94.0404 110.1 94.0404C111.218 94.0404 112.124 93.5738 112.124 92.998Z" fill="#C0C4C4"/>
<path d="M110.1 91.9916C111.788 91.9916 113.157 91.2867 113.157 90.4172C113.157 89.5476 111.788 88.8428 110.1 88.8428C108.412 88.8428 107.043 89.5476 107.043 90.4172C107.043 91.2867 108.412 91.9916 110.1 91.9916Z" fill="#CDD1D1"/>
<path d="M113.159 90.417V94.0059C113.159 94.8747 111.79 95.5803 110.102 95.5803C108.414 95.5803 107.045 94.8747 107.045 94.0059V90.417C107.045 91.2858 108.414 91.9914 110.102 91.9914C111.79 91.9914 113.159 91.2858 113.159 90.417Z" fill="#AEAFAF"/>
<path d="M99.6493 79.1232L121.359 83.0351L76.7217 57.3874L55.0117 53.4756L99.6493 79.1232Z" fill="#5ABAA8"/>
<path d="M32.9355 87.2257L77.3908 112.873V108.634L32.9355 82.9863V87.2257Z" fill="#188178"/>
<path d="M121.361 83.0349L99.6506 79.123L77.3926 108.634V112.874L121.361 86.8399V83.0349Z" fill="#188178"/>
<path d="M119.311 84.7497V85.6702L79.498 109.242L82.3978 105.395L116.57 85.1634V84.2578L119.311 84.7497Z" fill="#7FD3C5"/>
<path d="M116.573 84.2579V85.1635L82.4004 105.395L100.526 81.3643L116.573 84.2579Z" fill="#36A29C"/>
<path d="M77.3908 108.634L99.6488 79.1232L55.1936 53.4756L32.9355 82.9868L77.3908 108.634Z" fill="url(#paint8_linear_140_1305)"/>
<path d="M99.2074 78.8682L77.2096 108.033L33.1958 82.641L32.9355 82.9869L77.3908 108.634L99.6488 79.1233L99.2074 78.8682Z" fill="url(#paint9_linear_140_1305)"/>
<path d="M44.32 109.266L52.8496 115.334L53.8736 114.778V101.174L44.32 95.6621L43.2949 96.2172L44.32 109.266Z" fill="#AFB2B2"/>
<path d="M43.2949 109.821L52.8496 115.334V101.729L43.2949 96.2168V109.821Z" fill="white"/>
<path d="M51.8272 112.75V113.558L44.3203 109.228V97.9912L45.1287 98.4555V108.883L51.8272 112.75Z" fill="#247F78"/>
<path d="M51.8274 102.324V112.751L45.1289 108.884V98.4561L51.8274 102.324Z" fill="#36A29C"/>
<path d="M45.1287 108.884L44.3203 109.229L51.8272 113.559V112.751L45.1287 108.884Z" fill="#7FD3C5"/>
<path d="M53.8735 101.174L52.8496 101.73V115.334L53.8735 114.778V101.174Z" fill="#858C8C"/>
<path d="M94.4434 58.9408L103.707 53.5373L105.432 48.1729L96.169 53.5763L94.4434 58.9408Z" fill="#686B71"/>
<path d="M75.7847 18.1386L85.0482 12.7351L79.533 11.5146L70.2695 16.9181L75.7847 18.1386Z" fill="#E0E0E0"/>
<path d="M83.7756 30.1121C83.7584 30.0052 83.7423 29.8983 83.7274 29.7914C83.7206 29.7409 83.7114 29.6903 83.7045 29.6397C83.7034 29.626 83.7022 29.6133 83.7011 29.6007C83.6724 29.372 83.6506 29.1444 83.6346 28.918C83.6311 28.8698 83.6288 28.8215 83.6254 28.7744C83.6116 28.5423 83.6025 28.3113 83.6036 28.0826C83.6105 25.5716 84.4934 23.8053 85.9175 22.9756L95.1809 17.5732C93.7569 18.4041 92.874 20.1704 92.8671 22.6802C92.8671 22.9089 92.8751 23.1399 92.8889 23.3721C92.8912 23.4203 92.8946 23.4674 92.898 23.5157C92.9141 23.7421 92.9359 23.9696 92.9645 24.1983C92.9726 24.2615 92.9817 24.3259 92.9909 24.3891C93.0058 24.496 93.0219 24.6028 93.0391 24.7097C93.0505 24.7821 93.0643 24.8534 93.0769 24.9258C93.0953 25.0292 93.1159 25.1338 93.1365 25.2383C93.1537 25.3211 93.1709 25.4038 93.1893 25.4866C93.2053 25.5567 93.2202 25.6256 93.2374 25.6957C93.2592 25.7865 93.2822 25.8773 93.3051 25.9681C93.3223 26.037 93.3406 26.106 93.359 26.1749C93.3739 26.2301 93.3899 26.2853 93.406 26.3393C93.4702 26.568 93.5401 26.7978 93.6147 27.0265C93.6204 27.0437 93.625 27.061 93.6307 27.0782C93.7041 27.3 93.7844 27.5206 93.8681 27.7413C93.8887 27.7964 93.9105 27.8516 93.9323 27.9068C94.0045 28.0941 94.0802 28.2802 94.1593 28.4653C94.1719 28.494 94.1822 28.5216 94.1949 28.5503C94.2831 28.7549 94.3772 28.9594 94.4735 29.1617C94.4987 29.2157 94.5251 29.2686 94.5515 29.3214C94.6294 29.4823 94.7108 29.642 94.7934 29.8006C94.8186 29.8489 94.8438 29.8983 94.8691 29.9466C94.9757 30.1454 95.0846 30.343 95.1981 30.5384C95.2199 30.5752 95.2429 30.612 95.2646 30.6499C95.3644 30.82 95.4665 30.9877 95.5719 31.1544C95.6029 31.2038 95.6339 31.2521 95.6648 31.3015C95.7955 31.5049 95.9285 31.7048 96.0661 31.9025C96.0868 31.9324 96.1086 31.9623 96.1303 31.9921C96.2737 32.1955 96.4216 32.3966 96.5718 32.5932C96.5913 32.6184 96.6108 32.6449 96.6303 32.6713C96.8195 32.9161 97.0144 33.1528 97.2139 33.385C97.2403 33.4148 97.2655 33.4459 97.2919 33.4769C97.4145 33.6182 97.5395 33.7561 97.6656 33.8917C97.6725 33.8986 97.6783 33.9067 97.6851 33.9136C97.8182 34.0561 97.9534 34.194 98.0899 34.3296C98.177 34.4158 98.2642 34.5008 98.3525 34.5847C98.3766 34.6077 98.4006 34.6318 98.4258 34.6548C98.5417 34.7628 98.6586 34.8686 98.7756 34.972C98.8077 35.0007 98.8409 35.0271 98.873 35.0547C98.959 35.1294 99.0462 35.203 99.1333 35.2754C99.1769 35.311 99.2216 35.3466 99.2652 35.3811C99.3431 35.4432 99.4211 35.5052 99.4991 35.565C99.5461 35.6006 99.5943 35.6362 99.6413 35.6718C99.7192 35.7293 99.7972 35.7868 99.8752 35.8419C99.9222 35.8752 99.9692 35.9086 100.016 35.9408C100.101 35.9994 100.187 36.0557 100.272 36.112C100.312 36.1384 100.352 36.166 100.393 36.1913C100.52 36.2717 100.647 36.3487 100.774 36.4234C100.943 36.5211 101.11 36.6096 101.276 36.6946C101.324 36.7188 101.372 36.7417 101.42 36.7647C101.547 36.8268 101.672 36.8842 101.797 36.9382C101.842 36.9578 101.885 36.9773 101.93 36.9957C102.048 37.044 102.165 37.0888 102.281 37.1302C102.309 37.1405 102.338 37.152 102.367 37.1623C102.511 37.2118 102.653 37.2554 102.794 37.2945C102.877 37.3175 102.96 37.337 103.041 37.3566C103.079 37.3657 103.118 37.3761 103.157 37.3841C103.277 37.4106 103.398 37.4324 103.516 37.4508C103.521 37.4508 103.526 37.4519 103.531 37.4531C103.638 37.4692 103.744 37.4818 103.849 37.4922C103.885 37.4956 103.92 37.4968 103.956 37.5002C104.021 37.5048 104.086 37.5082 104.15 37.5105C104.306 37.5163 104.459 37.5151 104.61 37.5071C104.636 37.5059 104.661 37.5025 104.686 37.5002C104.808 37.491 104.928 37.4772 105.045 37.4577C105.082 37.4519 105.119 37.4462 105.154 37.4393C105.289 37.414 105.421 37.3853 105.551 37.3474C105.557 37.3462 105.562 37.3439 105.568 37.3416C105.691 37.306 105.809 37.2623 105.926 37.2152C105.96 37.2014 105.993 37.1865 106.027 37.1715C106.126 37.1279 106.224 37.0796 106.319 37.0279C106.35 37.0106 106.383 36.9957 106.414 36.9773L97.1508 42.3797C97.1359 42.3877 97.1222 42.3969 97.1072 42.4049C97.09 42.4141 97.0729 42.421 97.0557 42.4302C96.9605 42.4819 96.863 42.5302 96.7633 42.5739C96.7449 42.5819 96.7277 42.5923 96.7082 42.6003C96.6933 42.6072 96.6761 42.6107 96.6612 42.6164C96.5443 42.6635 96.4262 42.7072 96.3035 42.7428C96.2989 42.744 96.2943 42.7463 96.2897 42.7474H96.2874C96.159 42.7853 96.026 42.8141 95.8907 42.8393C95.8746 42.8428 95.8597 42.8474 95.8437 42.8497C95.823 42.8531 95.8013 42.8543 95.7806 42.8566C95.6625 42.875 95.5433 42.8899 95.4217 42.8991C95.4022 42.9002 95.3839 42.9048 95.3644 42.906C95.3575 42.906 95.3506 42.906 95.3438 42.906C95.1936 42.9152 95.0399 42.9152 94.884 42.9094C94.8691 42.9094 94.8542 42.9094 94.8393 42.9094C94.7899 42.9071 94.7395 42.9025 94.6902 42.8991C94.6547 42.8968 94.6191 42.8945 94.5836 42.8911C94.4781 42.8807 94.3726 42.8692 94.2648 42.852C94.2602 42.852 94.2545 42.8508 94.2499 42.8497H94.2476C94.1295 42.8313 94.0114 42.8083 93.891 42.783C93.852 42.775 93.813 42.7635 93.7729 42.7543C93.6984 42.7371 93.625 42.7198 93.5493 42.7003C93.5424 42.698 93.5344 42.6957 93.5275 42.6934C93.3865 42.6543 93.2443 42.6107 93.0998 42.5612C93.0712 42.5509 93.0414 42.5394 93.0127 42.5291C92.8969 42.4877 92.7799 42.444 92.6618 42.3958C92.6458 42.3889 92.6309 42.3843 92.616 42.3785C92.5873 42.367 92.5586 42.3509 92.53 42.3394C92.405 42.2854 92.2789 42.228 92.1516 42.1659C92.1034 42.1429 92.0564 42.1199 92.0083 42.0958C91.842 42.0119 91.6746 41.9223 91.5061 41.8246C91.3788 41.7511 91.2515 41.6729 91.1254 41.5925C91.0841 41.566 91.044 41.5385 91.0027 41.512C90.9178 41.4569 90.833 41.4006 90.7481 41.3419C90.7011 41.3098 90.6541 41.2764 90.6071 41.2431C90.5291 41.188 90.4512 41.1316 90.3732 41.073C90.325 41.0374 90.278 41.0018 90.231 40.965C90.1531 40.9053 90.0751 40.8443 89.9983 40.7823C89.9535 40.7467 89.91 40.711 89.8653 40.6754C89.777 40.603 89.6898 40.5283 89.6027 40.4536C89.5706 40.426 89.5396 40.3996 89.5075 40.372C89.3894 40.2686 89.2725 40.1629 89.1578 40.0537C89.1326 40.0296 89.1073 40.0054 89.0833 39.9813C89.0076 39.9089 88.9308 39.8365 88.8562 39.763C88.8448 39.7515 88.8344 39.74 88.823 39.7285C88.6865 39.5929 88.5512 39.4538 88.4182 39.3113C88.4125 39.3056 88.4079 39.2998 88.4033 39.2941C88.2761 39.1573 88.1499 39.0171 88.0261 38.8746C88.0146 38.862 88.002 38.8494 87.9905 38.8356C87.9756 38.8183 87.9619 38.7999 87.947 38.7827C87.7475 38.5506 87.5525 38.3127 87.3633 38.0691C87.3576 38.0622 87.3519 38.0553 87.3473 38.0484C87.3324 38.03 87.3198 38.0104 87.3049 37.9909C87.1535 37.7944 87.0068 37.5933 86.8634 37.3899C86.8485 37.3692 86.8336 37.3508 86.8187 37.3301C86.8118 37.3209 86.8061 37.3106 86.7992 37.3014C86.6616 37.1037 86.5286 36.9026 86.3979 36.7004C86.3853 36.6808 86.3715 36.6624 86.3589 36.6429C86.3406 36.6142 86.3234 36.5831 86.305 36.5544C86.2007 36.3878 86.0975 36.22 85.9977 36.0499C85.9817 36.0235 85.9645 35.9971 85.9484 35.9695C85.9427 35.9591 85.937 35.9488 85.9312 35.9385C85.8189 35.7431 85.7088 35.5454 85.6033 35.3466C85.5953 35.3305 85.585 35.3144 85.5769 35.2984C85.5597 35.265 85.5437 35.2317 85.5265 35.1995C85.4439 35.0409 85.3625 34.8812 85.2845 34.7203C85.2685 34.687 85.2501 34.6548 85.2341 34.6215C85.2249 34.6019 85.2157 34.5813 85.2066 34.5617C85.1103 34.3583 85.0162 34.1549 84.9279 33.9492C84.9257 33.9423 84.9222 33.9366 84.9188 33.9297C84.9096 33.9078 84.9016 33.8849 84.8913 33.863C84.8121 33.678 84.7365 33.493 84.6642 33.3057C84.6528 33.2758 84.639 33.2448 84.6275 33.2149C84.6184 33.1896 84.6103 33.1643 84.6 33.139C84.5163 32.9184 84.4372 32.6977 84.3627 32.4759C84.3615 32.4713 84.3592 32.4679 84.3581 32.4633C84.3535 32.4507 84.3501 32.4369 84.3466 32.4242C84.2709 32.1955 84.2021 31.9669 84.1379 31.737C84.1299 31.7083 84.1196 31.6796 84.1116 31.6508C84.1047 31.6244 84.0978 31.5968 84.0909 31.5704C84.0726 31.5014 84.0554 31.4336 84.037 31.3658C84.0141 31.275 83.9912 31.1831 83.9694 31.0923C83.9533 31.0222 83.9373 30.9533 83.9212 30.8832C83.9109 30.8349 83.8983 30.7855 83.888 30.7372C83.8811 30.7027 83.8754 30.6683 83.8685 30.6338C83.8467 30.5304 83.8272 30.4269 83.8089 30.3224C83.7962 30.25 83.7825 30.1776 83.771 30.1052L83.7756 30.1121Z" fill="#6C6F76"/>
<mask id="mask0_140_1305" style="mask-type:luminance" maskUnits="userSpaceOnUse" x="106" y="53" width="11" height="7">
<path d="M106.783 59.106L116.047 53.7037C116.342 53.5313 116.62 53.3256 116.876 53.0889L107.612 58.4912C107.355 58.7279 107.079 58.9337 106.783 59.106Z" fill="white"/>
</mask>
<g mask="url(#mask0_140_1305)">
<path d="M106.783 59.106L116.047 53.7037C116.342 53.5313 116.62 53.3256 116.876 53.0889L107.612 58.4912C107.355 58.7279 107.079 58.9337 106.783 59.106Z" fill="#6C6F76"/>
</g>
<mask id="mask1_140_1305" style="mask-type:luminance" maskUnits="userSpaceOnUse" x="76" y="0" width="11" height="7">
<path d="M85.5506 0.848516L76.2871 6.25086C76.6059 6.06469 76.9464 5.91759 77.3064 5.80957L86.5699 0.407227C86.2099 0.51525 85.8693 0.662347 85.5506 0.848516Z" fill="white"/>
</mask>
<g mask="url(#mask1_140_1305)">
<path d="M77.3063 5.80957L86.5697 0.407227C86.4058 0.456642 86.2464 0.512952 86.0916 0.578456L76.8281 5.9808C76.9829 5.9153 77.1434 5.85784 77.3063 5.80957Z" fill="#898D95"/>
<path d="M76.8283 5.98047L86.0918 0.578125C85.9244 0.648226 85.7615 0.728669 85.6033 0.817157L76.3398 6.2195C76.4969 6.13101 76.6597 6.05057 76.8283 5.98047Z" fill="#858891"/>
<path d="M76.341 6.2207L85.6045 0.818359C85.5861 0.828702 85.5689 0.839045 85.5506 0.849388L76.2871 6.25173C76.3043 6.24139 76.3227 6.23105 76.341 6.2207Z" fill="#81848C"/>
</g>
<path d="M107.611 58.4917L116.875 53.0894L117.904 52.1367L108.641 57.5391L107.611 58.4917Z" fill="#686B71"/>
<path d="M78.6493 5.40234L87.9128 0L86.5701 0.406813L77.3066 5.80916L78.6493 5.40234Z" fill="#8E919A"/>
<path d="M108.641 57.539L117.905 52.1367L115.234 44.6934L105.971 50.0969L108.641 57.539Z" fill="#E0E0E0"/>
<path d="M83.7451 11.4597L93.0086 6.05738L87.9119 0L78.6484 5.40234L83.7451 11.4597Z" fill="#E0E0E0"/>
<mask id="mask2_140_1305" style="mask-type:luminance" maskUnits="userSpaceOnUse" x="105" y="41" width="12" height="10">
<path d="M105.971 50.0967L115.234 44.6943C115.777 43.8612 116.218 42.8993 116.548 41.8145L107.285 47.2168C106.954 48.3005 106.512 49.2624 105.971 50.0967Z" fill="white"/>
</mask>
<g mask="url(#mask2_140_1305)">
<path d="M105.971 50.0967L115.234 44.6943C115.777 43.8612 116.218 42.8993 116.548 41.8145L107.285 47.2168C106.954 48.3005 106.512 49.2624 105.971 50.0967Z" fill="#6C6F76"/>
</g>
<path d="M86.0172 11.6035C85.7844 11.5656 85.554 11.5334 85.3269 11.5104C85.3097 11.5081 85.2937 11.5058 85.2765 11.5035C85.0334 11.4794 84.7938 11.4645 84.5576 11.4564C84.514 11.4553 84.4716 11.4541 84.428 11.4541C84.1987 11.4495 83.9705 11.4495 83.748 11.4599L93.0115 6.05752C93.2351 6.04717 93.4621 6.04717 93.6915 6.05177C93.735 6.05177 93.7775 6.05292 93.821 6.05407C93.8566 6.05522 93.891 6.05407 93.9277 6.05637C94.1295 6.06556 94.3347 6.0805 94.5411 6.10119C94.5583 6.10233 94.5744 6.10578 94.5915 6.10808C94.7762 6.12762 94.9619 6.14945 95.1499 6.17818C95.1935 6.18508 95.2382 6.19427 95.2818 6.20116C95.3323 6.20921 95.3839 6.2184 95.4343 6.2276C95.6762 6.27012 95.9193 6.31838 96.1659 6.37699L86.9024 11.7793C86.6559 11.7207 86.4128 11.6736 86.1708 11.6299C86.1204 11.6207 86.0688 11.6116 86.0183 11.6035H86.0172Z" fill="#9699A3"/>
<path d="M107.001 35.1266C106.936 34.8853 106.87 34.6439 106.8 34.4026C106.77 34.3003 106.742 34.1981 106.711 34.0958C106.621 33.7947 106.527 33.4947 106.429 33.1937C106.418 33.1638 106.41 33.1327 106.4 33.1029C106.281 32.742 106.154 32.3812 106.021 32.0215L115.285 26.6191C115.415 26.9731 115.54 27.327 115.658 27.6821C115.66 27.6879 115.661 27.6948 115.663 27.7005C115.673 27.7293 115.682 27.7591 115.691 27.7879C115.789 28.089 115.883 28.3912 115.974 28.6934C116.004 28.7946 116.034 28.8968 116.062 28.998C116.097 29.1163 116.132 29.2347 116.166 29.3531C116.2 29.4772 116.231 29.6001 116.263 29.7243C116.289 29.8231 116.316 29.9208 116.341 30.0184C116.425 30.3483 116.505 30.6781 116.578 31.0079L107.315 36.4102C107.241 36.0816 107.161 35.7518 107.078 35.4219C107.052 35.3231 107.026 35.2243 107 35.1254L107.001 35.1266Z" fill="#7D8088"/>
<path d="M98.254 19.2099C98.1554 19.103 98.059 18.9939 97.9604 18.8881C97.7277 18.6399 97.4903 18.3974 97.2518 18.1572C97.2025 18.1078 97.1532 18.055 97.1039 18.0055C96.8299 17.7332 96.5524 17.4677 96.2715 17.208L105.535 11.8057C105.816 12.0654 106.093 12.3308 106.367 12.6032C106.372 12.6078 106.378 12.6124 106.382 12.617C106.427 12.6618 106.471 12.7089 106.515 12.7549C106.754 12.9951 106.991 13.2376 107.224 13.4858C107.323 13.5904 107.419 13.6995 107.516 13.8064C107.697 14.0052 107.879 14.204 108.057 14.4086C108.093 14.45 108.131 14.489 108.166 14.5304C108.34 14.7304 108.512 14.9338 108.682 15.1395L99.4189 20.5418C99.2137 20.2936 99.0039 20.0523 98.794 19.8109C98.6163 19.6075 98.4351 19.4087 98.2551 19.2099H98.254Z" fill="#A6AAB5"/>
<path d="M112.821 41.5758L122.084 36.1734L116.58 31.0078L107.316 36.4113L112.821 41.5758Z" fill="#E0E0E0"/>
<path d="M113.031 46.6385C113.149 45.7088 113.152 44.6987 113.039 43.6322L112.821 41.5752L122.085 36.1729L122.302 38.2299C122.415 39.2952 122.412 40.3065 122.294 41.2362L122.066 43.037L112.803 48.4393L113.031 46.6385Z" fill="#767880"/>
<path d="M97.8904 1.01367L99.5622 1.72732C99.9956 1.91119 100.431 2.13068 100.866 2.38236C101.302 2.63518 101.736 2.92018 102.168 3.23736L103.841 4.46239L94.5779 9.86474L92.905 8.6397C92.4727 8.32252 92.0381 8.03752 91.6024 7.7847C91.1667 7.53303 90.7321 7.31353 90.2987 7.12966L88.627 6.41602L97.8904 1.01367Z" fill="#E0E0E0"/>
<path d="M96.2721 17.2087L105.536 11.8052L103.844 4.46191L94.582 9.86426L96.2721 17.2087Z" fill="#7F828A"/>
<path d="M106.023 32.0227L115.287 26.6204L117.991 22.2891L108.727 27.6914L106.023 32.0227Z" fill="#686B71"/>
<path d="M104.531 20.3994L113.794 14.9971L108.681 15.1384L99.418 20.5419L104.531 20.3994Z" fill="#9EA1AB"/>
<path d="M107.073 24.3319C106.988 24.178 106.905 24.024 106.817 23.8711C106.752 23.7573 106.682 23.647 106.614 23.5344C106.519 23.3758 106.425 23.2172 106.326 23.0621C106.176 22.8254 106.024 22.5898 105.865 22.3588L104.527 20.3994L113.791 14.9971L115.129 16.9564C115.272 17.1667 115.413 17.3793 115.55 17.5942C115.563 17.6161 115.576 17.6379 115.589 17.6586C115.687 17.8149 115.781 17.9735 115.877 18.1309C115.934 18.2274 115.996 18.3217 116.052 18.4194C116.061 18.4354 116.069 18.4515 116.078 18.4676C116.167 18.6193 116.249 18.7745 116.334 18.9273C116.392 19.0342 116.454 19.1399 116.512 19.2468C116.519 19.2594 116.524 19.2721 116.531 19.2847C116.615 19.4444 116.694 19.6053 116.774 19.7674C116.828 19.8754 116.886 19.9811 116.937 20.0903C116.946 20.1098 116.955 20.1282 116.965 20.1477L117.986 22.2864L108.723 27.6887L107.702 25.5501C107.642 25.4225 107.575 25.2973 107.512 25.1697C107.432 25.0088 107.353 24.8468 107.269 24.687C107.206 24.5664 107.138 24.448 107.073 24.3296V24.3319Z" fill="#E0E0E0"/>
<path d="M70.2688 16.9182L75.784 18.1386C76.1154 17.0561 76.5568 16.0931 77.1003 15.2622L74.4298 7.81777L75.4595 6.86739C75.9904 6.37439 76.613 6.01814 77.3078 5.81013L78.6505 5.40332L83.7472 11.4607C84.7413 11.4147 85.7973 11.5193 86.9015 11.7802L88.6295 6.41691L90.3012 7.13055C90.7346 7.31442 91.1704 7.53392 91.6049 7.78559C92.0406 8.03841 92.4752 8.32341 92.9075 8.64059L94.5804 9.86563L96.2705 17.2101C97.3735 18.2271 98.4261 19.3453 99.4179 20.5428L104.531 20.4014L105.869 22.3608C106.56 23.3721 107.177 24.4466 107.706 25.5532L108.727 27.6919L106.024 32.0232C106.559 33.4792 106.994 34.9502 107.317 36.4119L112.821 41.5764L113.039 43.6334C113.151 44.6987 113.149 45.71 113.03 46.6397L112.802 48.4405L107.287 47.2178C106.957 48.3014 106.514 49.2633 105.973 50.0976L108.644 57.5409L107.614 58.4936C107.081 58.9855 106.46 59.3406 105.766 59.5509L104.422 59.9565L99.3274 53.9003C98.3321 53.9463 97.2772 53.8405 96.1707 53.5774L94.4439 58.9418L92.7699 58.2293C92.3376 58.0454 91.9019 57.8271 91.4673 57.5743C91.0316 57.3226 90.597 57.0364 90.1636 56.7181L88.493 55.4919L86.8006 48.1463C85.6987 47.1304 84.645 46.0134 83.6543 44.8171L78.5404 44.9573L77.2046 42.9991C76.5132 41.9855 75.8941 40.9122 75.3678 39.8055L74.3473 37.6645L77.051 33.3355C76.5144 31.8761 76.0787 30.4074 75.7553 28.9445L70.2516 23.7812L70.036 21.723C69.9225 20.6588 69.9259 19.6487 70.044 18.7167L70.2711 16.9171L70.2688 16.9182ZM91.5109 41.8281C95.891 44.3666 99.4535 42.3268 99.4684 37.275C99.4821 32.2208 95.9426 26.0681 91.5625 23.5295C87.1801 20.9898 83.6176 23.0285 83.6039 28.0814C83.5901 33.1333 87.1297 39.2883 91.5109 41.8281Z" fill="#C2C4C6"/>
<path d="M113.118 168.755L155.378 144.345L132.599 131.069L90.3398 155.479L113.118 168.755Z" fill="url(#paint10_linear_140_1305)"/>
<path d="M94.2246 155.487L132.595 133.323L151.493 144.337L113.124 166.502L94.2246 155.487Z" fill="#FFF6FB"/>
<path d="M134.169 148.619C134.169 151.773 129.748 154.33 124.295 154.33C118.841 154.33 114.42 151.773 114.42 148.619C114.42 145.464 118.841 142.907 124.295 142.907C129.748 142.907 134.169 145.464 134.169 148.619Z" fill="#40C6C2"/>
<path d="M136.167 143.8C138.078 143.8 139.628 142.903 139.628 141.798C139.628 140.692 138.078 139.796 136.167 139.796C134.255 139.796 132.705 140.692 132.705 141.798C132.705 142.903 134.255 143.8 136.167 143.8Z" fill="#D0D5E2"/>
<path d="M110.229 158.826C112.141 158.826 113.691 157.93 113.691 156.824C113.691 155.719 112.141 154.822 110.229 154.822C108.317 154.822 106.768 155.719 106.768 156.824C106.768 157.93 108.317 158.826 110.229 158.826Z" fill="#D0D5E2"/>
<path d="M122.142 160.061L114.27 164.617C113.759 164.912 112.886 164.869 112.33 164.521C111.773 164.173 111.736 163.647 112.247 163.351L120.12 158.796C120.63 158.501 121.504 158.543 122.06 158.891C122.616 159.24 122.654 159.766 122.142 160.061Z" fill="#D0D5E2"/>
<path d="M133.808 135.726L125.936 140.282C125.424 140.577 124.552 140.535 123.996 140.186C123.439 139.838 123.402 139.312 123.913 139.016L131.786 134.461C132.297 134.166 133.17 134.208 133.726 134.556C134.282 134.905 134.32 135.431 133.808 135.726Z" fill="#D0D5E2"/>
<path d="M124.297 153.518C119.731 153.518 116.018 151.32 116.018 148.619C116.018 145.917 119.731 143.72 124.297 143.72C128.863 143.72 132.577 145.917 132.577 148.619C132.577 151.32 128.863 153.518 124.297 153.518ZM124.297 144.237C120.016 144.237 116.534 146.203 116.534 148.619C116.534 151.034 120.017 153.002 124.297 153.002C128.578 153.002 132.061 151.035 132.061 148.619C132.061 146.202 128.578 144.237 124.297 144.237Z" fill="#F2F2F2"/>
<path d="M127.492 150.803L126.63 150.285C126.031 150.607 125.291 150.843 124.747 150.906L124.16 150.261C124.724 150.178 125.426 149.994 125.987 149.672C126.568 149.339 126.687 148.946 126.26 148.69C125.86 148.45 125.281 148.478 124.36 148.726C123.056 149.077 122.003 149.181 121.176 148.683C120.412 148.223 120.377 147.553 121.148 146.924L120.277 146.4L121.032 145.966L121.859 146.464C122.456 146.142 122.984 145.995 123.421 145.911L123.991 146.545C123.672 146.613 123.062 146.722 122.436 147.082C121.792 147.452 121.881 147.777 122.184 147.959C122.549 148.178 123.084 148.111 124.169 147.843C125.575 147.476 126.514 147.5 127.306 147.976C128.061 148.431 128.184 149.144 127.332 149.821L128.249 150.371L127.494 150.804L127.492 150.803Z" fill="#FFF6FB"/>
<path d="M155.377 144.346L113.117 168.756V184.843L155.377 160.433V144.346Z" fill="url(#paint11_linear_140_1305)"/>
<path d="M90.3398 155.479V171.566L113.118 184.842V168.755L90.3398 155.479Z" fill="url(#paint12_linear_140_1305)"/>
<path opacity="0.33" d="M90.3398 158.269L113.118 171.546L155.378 147.135" stroke="#050D19" stroke-width="3" stroke-miterlimit="10"/>
<path opacity="0.33" d="M90.3398 162.04L113.118 175.315L155.378 150.905" stroke="#050D19" stroke-width="3" stroke-miterlimit="10"/>
<path opacity="0.33" d="M90.3398 165.809L113.118 179.085L155.378 154.675" stroke="#050D19" stroke-width="3" stroke-miterlimit="10"/>
<path opacity="0.33" d="M90.3398 169.581L113.118 182.856L155.378 158.446" stroke="#050D19" stroke-width="3" stroke-miterlimit="10"/>
<path d="M169.437 174.859C169.437 174.914 169.424 174.962 169.424 175.012V175.177H169.411C169.125 178.801 163.967 181.691 157.625 181.691C151.29 181.691 146.133 178.801 145.846 175.177H145.816V171.768C145.816 175.538 151.109 178.6 157.627 178.6C164.144 178.6 169.211 175.667 169.424 172.005V174.713C169.424 174.762 169.437 174.811 169.437 174.86V174.859Z" fill="url(#paint13_linear_140_1305)"/>
<path d="M169.437 171.767C169.437 171.847 169.437 171.926 169.424 172.005C169.211 175.666 164.015 178.599 157.627 178.599C151.238 178.599 145.816 175.538 145.816 171.767C145.816 167.997 151.109 164.936 157.627 164.936C164.151 164.936 169.437 167.997 169.437 171.767Z" fill="url(#paint14_linear_140_1305)"/>
<path d="M157.629 177.625C152.169 177.625 147.727 174.997 147.727 171.767C147.727 168.536 152.169 165.908 157.629 165.908C163.089 165.908 167.531 168.536 167.531 171.767C167.531 174.997 163.089 177.625 157.629 177.625ZM157.629 166.525C152.509 166.525 148.342 168.877 148.342 171.767C148.342 174.657 152.508 177.008 157.629 177.008C162.748 177.008 166.915 174.657 166.915 171.767C166.915 168.877 162.749 166.525 157.629 166.525Z" fill="#F2F2F2"/>
<path d="M161.451 174.378L160.421 173.758C159.705 174.143 158.82 174.427 158.169 174.5L157.467 173.729C158.141 173.629 158.982 173.41 159.653 173.025C160.347 172.627 160.49 172.156 159.98 171.849C159.502 171.562 158.808 171.596 157.708 171.892C156.147 172.312 154.888 172.435 153.9 171.84C152.986 171.289 152.945 170.488 153.865 169.736L152.824 169.108L153.728 168.59L154.716 169.185C155.43 168.8 156.063 168.624 156.585 168.524L157.267 169.283C156.887 169.364 156.156 169.495 155.408 169.925C154.637 170.368 154.745 170.756 155.106 170.973C155.542 171.235 156.183 171.155 157.479 170.835C159.16 170.396 160.284 170.425 161.231 170.995C162.135 171.539 162.281 172.391 161.262 173.202L162.357 173.86L161.454 174.378H161.451Z" fill="#FFF6FB"/>
<path d="M169.437 170.794C169.437 170.85 169.424 170.898 169.424 170.947V171.113H169.411C169.125 174.736 163.967 177.626 157.625 177.626C151.283 177.626 146.133 174.736 145.846 171.113H145.816V167.703C145.816 171.474 151.109 174.535 157.627 174.535C164.144 174.535 169.211 171.602 169.424 167.941V170.648C169.424 170.698 169.437 170.746 169.437 170.796V170.794Z" fill="url(#paint15_linear_140_1305)"/>
<path d="M169.437 167.701C169.437 167.78 169.437 167.86 169.424 167.939C169.211 171.599 164.015 174.533 157.627 174.533C151.238 174.533 145.816 171.472 145.816 167.701C145.816 163.931 151.109 160.869 157.627 160.869C164.144 160.869 169.437 163.931 169.437 167.701Z" fill="url(#paint16_linear_140_1305)"/>
<path d="M157.629 173.561C152.169 173.561 147.727 170.933 147.727 167.702C147.727 164.472 152.169 161.844 157.629 161.844C163.089 161.844 167.531 164.472 167.531 167.702C167.531 170.933 163.089 173.561 157.629 173.561ZM157.629 162.46C152.509 162.46 148.342 164.811 148.342 167.701C148.342 170.591 152.508 172.943 157.629 172.943C162.749 172.943 166.915 170.591 166.915 167.701C166.915 164.811 162.749 162.46 157.629 162.46Z" fill="#F2F2F2"/>
<path d="M161.451 170.313L160.421 169.692C159.705 170.077 158.82 170.361 158.169 170.435L157.467 169.664C158.141 169.565 158.982 169.344 159.653 168.959C160.347 168.562 160.49 168.09 159.98 167.784C159.502 167.495 158.808 167.531 157.708 167.826C156.147 168.247 154.888 168.37 153.9 167.774C152.986 167.224 152.945 166.423 153.865 165.67L152.824 165.043L153.728 164.524L154.716 165.12C155.43 164.735 156.063 164.559 156.585 164.459L157.267 165.217C156.887 165.299 156.156 165.43 155.408 165.86C154.637 166.302 154.745 166.691 155.106 166.908C155.542 167.17 156.183 167.089 157.479 166.77C159.16 166.331 160.284 166.36 161.231 166.93C162.135 167.473 162.281 168.326 161.262 169.136L162.357 169.795L161.454 170.313H161.451Z" fill="#FFF6FB"/>
<path d="M169.437 166.729C169.437 166.784 169.424 166.832 169.424 166.882V167.047H169.411C169.125 170.671 163.967 173.561 157.625 173.561C151.29 173.561 146.133 170.671 145.846 167.047H145.816V163.638C145.816 167.408 151.109 170.47 157.627 170.47C164.144 170.47 169.211 167.537 169.424 163.876V166.583C169.424 166.632 169.437 166.681 169.437 166.73V166.729Z" fill="url(#paint17_linear_140_1305)"/>
<path d="M169.437 163.637C169.437 163.716 169.437 163.795 169.424 163.875C169.211 167.535 164.015 170.469 157.627 170.469C151.238 170.469 145.816 167.407 145.816 163.637C145.816 159.866 151.109 156.805 157.627 156.805C164.144 156.805 169.437 159.866 169.437 163.637Z" fill="url(#paint18_linear_140_1305)"/>
<path d="M157.629 169.495C152.169 169.495 147.727 166.867 147.727 163.637C147.727 160.407 152.169 157.778 157.629 157.778C163.089 157.778 167.531 160.407 167.531 163.637C167.531 166.867 163.089 169.495 157.629 169.495ZM157.629 158.395C152.509 158.395 148.342 160.747 148.342 163.637C148.342 166.527 152.508 168.878 157.629 168.878C162.748 168.878 166.915 166.527 166.915 163.637C166.915 160.747 162.749 158.395 157.629 158.395Z" fill="#F2F2F2"/>
<path d="M161.451 166.249L160.421 165.628C159.705 166.013 158.82 166.297 158.169 166.37L157.467 165.599C158.141 165.5 158.982 165.28 159.653 164.895C160.347 164.497 160.49 164.026 159.98 163.719C159.502 163.432 158.808 163.466 157.708 163.762C156.147 164.182 154.888 164.305 153.9 163.71C152.986 163.159 152.945 162.359 153.865 161.606L152.824 160.978L153.728 160.46L154.716 161.055C155.43 160.67 156.063 160.495 156.585 160.395L157.267 161.153C156.887 161.235 156.156 161.366 155.408 161.795C154.637 162.238 154.745 162.626 155.106 162.843C155.542 163.105 156.183 163.025 157.479 162.706C159.16 162.267 160.284 162.295 161.231 162.865C162.135 163.409 162.281 164.262 161.262 165.072L162.357 165.73L161.454 166.249H161.451Z" fill="#FFF6FB"/>
<path d="M169.437 162.664C169.437 162.719 169.424 162.767 169.424 162.816V162.982H169.411C169.125 166.605 163.967 169.496 157.625 169.496C151.283 169.496 146.133 166.605 145.846 162.982H145.816V159.572C145.816 163.343 151.109 166.404 157.627 166.404C164.144 166.404 169.211 163.471 169.424 159.81V162.518C169.424 162.567 169.437 162.615 169.437 162.665V162.664Z" fill="url(#paint19_linear_140_1305)"/>
<path d="M169.437 159.572C169.437 159.651 169.437 159.731 169.424 159.81C169.211 163.47 164.015 166.404 157.627 166.404C151.238 166.404 145.816 163.343 145.816 159.572C145.816 155.802 151.109 152.74 157.627 152.74C164.144 152.74 169.437 155.802 169.437 159.572Z" fill="url(#paint20_linear_140_1305)"/>
<path d="M157.629 165.43C152.169 165.43 147.727 162.802 147.727 159.571C147.727 156.341 152.169 153.713 157.629 153.713C163.089 153.713 167.531 156.341 167.531 159.571C167.531 162.802 163.089 165.43 157.629 165.43ZM157.629 154.33C152.509 154.33 148.342 156.681 148.342 159.571C148.342 162.462 152.508 164.813 157.629 164.813C162.749 164.813 166.915 162.462 166.915 159.571C166.915 156.681 162.749 154.33 157.629 154.33Z" fill="#F2F2F2"/>
<path d="M161.451 162.183L160.421 161.563C159.705 161.947 158.82 162.231 158.169 162.305L157.467 161.534C158.141 161.435 158.982 161.214 159.653 160.829C160.347 160.432 160.49 159.961 159.98 159.654C159.502 159.366 158.808 159.401 157.708 159.696C156.147 160.117 154.888 160.24 153.9 159.645C152.986 159.094 152.945 158.293 153.865 157.54L152.824 156.913L153.728 156.395L154.716 156.99C155.43 156.605 156.063 156.429 156.585 156.329L157.267 157.088C156.887 157.169 156.156 157.3 155.408 157.73C154.637 158.172 154.745 158.561 155.106 158.778C155.542 159.04 156.183 158.96 157.479 158.64C159.16 158.201 160.284 158.23 161.231 158.8C162.135 159.343 162.281 160.196 161.262 161.006L162.357 161.665L161.454 162.183H161.451Z" fill="#FFF6FB"/>
<path d="M169.437 158.599C169.437 158.654 169.424 158.703 169.424 158.752V158.917H169.411C169.125 162.541 163.967 165.431 157.625 165.431C151.29 165.431 146.133 162.541 145.846 158.917H145.816V155.508C145.816 159.278 151.109 162.34 157.627 162.34C164.017 162.34 169.211 159.407 169.424 155.746V158.453C169.424 158.503 169.437 158.551 169.437 158.6V158.599Z" fill="url(#paint21_linear_140_1305)"/>
<path d="M169.437 155.506C169.437 155.585 169.437 155.664 169.424 155.744C169.211 159.404 164.015 162.338 157.627 162.338C151.109 162.338 145.816 159.276 145.816 155.506C145.816 151.735 151.109 148.674 157.627 148.674C164.144 148.674 169.437 151.735 169.437 155.506Z" fill="url(#paint22_linear_140_1305)"/>
<path d="M157.629 161.366C152.169 161.366 147.727 158.737 147.727 155.507C147.727 152.277 152.169 149.648 157.629 149.648C163.089 149.648 167.531 152.277 167.531 155.507C167.531 158.737 163.089 161.366 157.629 161.366ZM157.629 150.264C152.509 150.264 148.342 152.616 148.342 155.506C148.342 158.396 152.508 160.747 157.629 160.747C162.748 160.747 166.915 158.396 166.915 155.506C166.915 152.616 162.749 150.264 157.629 150.264Z" fill="#F2F2F2"/>
<path d="M161.451 158.118L160.421 157.497C159.705 157.882 158.82 158.166 158.169 158.239L157.467 157.468C158.141 157.37 158.982 157.149 159.653 156.764C160.347 156.366 160.49 155.895 159.98 155.588C159.502 155.301 158.808 155.335 157.708 155.631C156.147 156.051 154.888 156.174 153.9 155.579C152.986 155.029 152.945 154.228 153.865 153.475L152.824 152.847L153.728 152.329L154.716 152.924C155.43 152.539 156.063 152.364 156.585 152.264L157.267 153.022C156.887 153.104 156.156 153.235 155.408 153.665C154.637 154.107 154.745 154.495 155.106 154.713C155.542 154.975 156.183 154.894 157.479 154.575C159.16 154.136 160.284 154.164 161.231 154.734C162.135 155.278 162.281 156.131 161.262 156.941L162.357 157.599L161.454 158.118H161.451Z" fill="#FFF6FB"/>
<path d="M149.271 186.405C149.271 186.46 149.258 186.508 149.258 186.558V186.723H149.245C148.959 190.347 143.801 193.237 137.459 193.237C131.117 193.237 125.967 190.347 125.68 186.723H125.65V183.313C125.65 187.084 130.943 190.145 137.46 190.145C143.851 190.145 149.045 187.213 149.258 183.551V186.259C149.258 186.308 149.271 186.357 149.271 186.406V186.405Z" fill="url(#paint23_linear_140_1305)"/>
<path d="M149.271 183.313C149.271 183.393 149.271 183.472 149.258 183.551C149.045 187.211 143.849 190.145 137.46 190.145C130.943 190.145 125.65 187.084 125.65 183.313C125.65 179.543 130.943 176.481 137.46 176.481C143.978 176.481 149.271 179.543 149.271 183.313Z" fill="url(#paint24_linear_140_1305)"/>
<path d="M137.461 189.171C132.001 189.171 127.559 186.543 127.559 183.313C127.559 180.082 132.001 177.454 137.461 177.454C142.921 177.454 147.363 180.082 147.363 183.313C147.363 186.543 142.921 189.171 137.461 189.171ZM137.461 178.071C132.341 178.071 128.174 180.422 128.174 183.313C128.174 186.203 132.34 188.554 137.461 188.554C142.581 188.554 146.747 186.203 146.747 183.313C146.747 180.422 142.581 178.071 137.461 178.071Z" fill="#F2F2F2"/>
<path d="M141.281 185.924L140.251 185.304C139.535 185.689 138.65 185.973 137.999 186.046L137.297 185.275C137.971 185.176 138.812 184.956 139.484 184.571C140.177 184.173 140.321 183.702 139.81 183.395C139.332 183.108 138.638 183.142 137.538 183.437C135.977 183.858 134.718 183.981 133.73 183.386C132.816 182.835 132.775 182.034 133.695 181.282L132.654 180.654L133.558 180.136L134.546 180.731C135.261 180.346 135.893 180.17 136.415 180.07L137.097 180.829C136.717 180.91 135.986 181.041 135.238 181.471C134.467 181.914 134.575 182.302 134.936 182.519C135.372 182.781 136.013 182.701 137.31 182.381C138.99 181.942 140.114 181.971 141.061 182.541C141.965 183.085 142.112 183.937 141.092 184.748L142.187 185.406L141.284 185.924H141.281Z" fill="#FFF6FB"/>
<path d="M149.271 182.34C149.271 182.396 149.258 182.444 149.258 182.493V182.659H149.245C148.959 186.282 143.801 189.172 137.459 189.172C131.124 189.172 125.967 186.282 125.68 182.659H125.65V179.249C125.65 183.02 130.943 186.081 137.46 186.081C143.978 186.081 149.045 183.148 149.258 179.487V182.194C149.258 182.244 149.271 182.292 149.271 182.341V182.34Z" fill="url(#paint25_linear_140_1305)"/>
<path d="M149.271 179.247C149.271 179.326 149.271 179.406 149.258 179.485C149.045 183.145 143.849 186.079 137.46 186.079C131.072 186.079 125.65 183.017 125.65 179.247C125.65 175.476 130.943 172.415 137.46 172.415C143.985 172.415 149.271 175.476 149.271 179.247Z" fill="url(#paint26_linear_140_1305)"/>
<path d="M137.461 185.107C132.001 185.107 127.559 182.479 127.559 179.248C127.559 176.018 132.001 173.39 137.461 173.39C142.921 173.39 147.363 176.018 147.363 179.248C147.363 182.479 142.921 185.107 137.461 185.107ZM137.461 174.006C132.341 174.006 128.174 176.357 128.174 179.247C128.174 182.137 132.34 184.489 137.461 184.489C142.58 184.489 146.747 182.137 146.747 179.247C146.747 176.357 142.581 174.006 137.461 174.006Z" fill="#F2F2F2"/>
<path d="M141.281 181.859L140.251 181.238C139.535 181.623 138.65 181.907 137.999 181.981L137.297 181.21C137.971 181.11 138.812 180.89 139.484 180.505C140.177 180.107 140.321 179.636 139.81 179.329C139.332 179.042 138.638 179.077 137.538 179.372C135.977 179.793 134.718 179.916 133.73 179.32C132.816 178.77 132.775 177.969 133.695 177.216L132.654 176.589L133.558 176.07L134.546 176.666C135.261 176.281 135.893 176.105 136.415 176.005L137.097 176.763C136.717 176.845 135.986 176.976 135.238 177.406C134.467 177.848 134.575 178.237 134.936 178.454C135.372 178.716 136.013 178.635 137.31 178.316C138.99 177.877 140.114 177.906 141.061 178.476C141.965 179.019 142.112 179.872 141.092 180.682L142.187 181.341L141.284 181.859H141.281Z" fill="#FFF6FB"/>
<path d="M149.271 178.275C149.271 178.33 149.258 178.378 149.258 178.428V178.593H149.245C148.959 182.217 143.801 185.107 137.459 185.107C131.117 185.107 125.967 182.217 125.68 178.593H125.65V175.184C125.65 178.954 130.943 182.016 137.46 182.016C143.851 182.016 149.045 179.083 149.258 175.421V178.129C149.258 178.178 149.271 178.227 149.271 178.276V178.275Z" fill="url(#paint27_linear_140_1305)"/>
<path d="M149.271 175.183C149.271 175.262 149.271 175.341 149.258 175.42C149.045 179.081 143.849 182.014 137.46 182.014C130.943 182.014 125.65 178.953 125.65 175.183C125.65 171.412 130.943 168.351 137.46 168.351C143.978 168.351 149.271 171.412 149.271 175.183Z" fill="url(#paint28_linear_140_1305)"/>
<path d="M137.461 181.041C132.001 181.041 127.559 178.413 127.559 175.183C127.559 171.952 132.001 169.324 137.461 169.324C142.921 169.324 147.363 171.952 147.363 175.183C147.363 178.413 142.921 181.041 137.461 181.041ZM137.461 169.941C132.341 169.941 128.174 172.293 128.174 175.183C128.174 178.073 132.34 180.424 137.461 180.424C142.581 180.424 146.747 178.073 146.747 175.183C146.747 172.293 142.581 169.941 137.461 169.941Z" fill="#F2F2F2"/>
<path d="M141.281 177.794L140.251 177.174C139.535 177.559 138.65 177.843 137.999 177.916L137.297 177.145C137.971 177.046 138.812 176.826 139.484 176.441C140.177 176.043 140.321 175.572 139.81 175.265C139.332 174.978 138.638 175.012 137.538 175.308C135.977 175.728 134.718 175.851 133.73 175.256C132.816 174.705 132.775 173.904 133.695 173.152L132.654 172.524L133.558 172.006L134.546 172.601C135.261 172.216 135.893 172.04 136.415 171.94L137.097 172.699C136.717 172.78 135.986 172.912 135.238 173.341C134.467 173.784 134.575 174.172 134.936 174.389C135.372 174.651 136.013 174.571 137.31 174.251C138.99 173.812 140.114 173.841 141.061 174.411C141.965 174.955 142.112 175.807 141.092 176.618L142.187 177.276L141.284 177.794H141.281Z" fill="#FFF6FB"/>
<path d="M149.271 174.209C149.271 174.265 149.258 174.313 149.258 174.362V174.528H149.245C148.959 178.151 143.801 181.041 137.459 181.041C131.124 181.041 125.967 178.151 125.68 174.528H125.65V171.118C125.65 174.889 130.943 177.95 137.46 177.95C143.978 177.95 149.045 175.017 149.258 171.356V174.064C149.258 174.113 149.271 174.161 149.271 174.211V174.209Z" fill="url(#paint29_linear_140_1305)"/>
<path d="M149.271 171.118C149.271 171.197 149.271 171.277 149.258 171.356C149.045 175.016 143.849 177.95 137.46 177.95C131.072 177.95 125.65 174.889 125.65 171.118C125.65 167.348 130.943 164.286 137.46 164.286C143.985 164.286 149.271 167.348 149.271 171.118Z" fill="url(#paint30_linear_140_1305)"/>
<path d="M137.461 176.976C132.001 176.976 127.559 174.348 127.559 171.117C127.559 167.887 132.001 165.259 137.461 165.259C142.921 165.259 147.363 167.887 147.363 171.117C147.363 174.348 142.921 176.976 137.461 176.976ZM137.461 165.876C132.341 165.876 128.174 168.227 128.174 171.117C128.174 174.008 132.34 176.359 137.461 176.359C142.58 176.359 146.747 174.008 146.747 171.117C146.747 168.227 142.581 165.876 137.461 165.876Z" fill="#F2F2F2"/>
<path d="M141.281 173.73L140.251 173.109C139.535 173.494 138.65 173.778 137.999 173.852L137.297 173.081C137.971 172.981 138.812 172.761 139.484 172.376C140.177 171.979 140.321 171.507 139.81 171.201C139.332 170.913 138.638 170.948 137.538 171.243C135.977 171.664 134.718 171.787 133.73 171.191C132.816 170.641 132.775 169.84 133.695 169.087L132.654 168.46L133.558 167.941L134.546 168.537C135.261 168.152 135.893 167.976 136.415 167.876L137.097 168.634C136.717 168.716 135.986 168.847 135.238 169.277C134.467 169.719 134.575 170.108 134.936 170.325C135.372 170.587 136.013 170.506 137.31 170.187C138.99 169.748 140.114 169.777 141.061 170.347C141.965 170.89 142.112 171.743 141.092 172.553L142.187 173.212L141.284 173.73H141.281Z" fill="#FFF6FB"/>
<path d="M173.924 187.07C173.924 187.203 173.924 187.335 173.944 187.469C174.301 193.591 182.99 198.498 193.678 198.498C204.365 198.498 213.431 193.377 213.431 187.071C213.431 186.723 213.401 186.379 213.348 186.04C213.401 185.7 213.431 185.357 213.431 185.01C213.431 184.662 213.401 184.318 213.348 183.979C213.401 183.639 213.431 183.295 213.431 182.948C213.431 176.641 204.58 171.521 193.678 171.521C182.766 171.521 173.924 176.642 173.924 182.948V187.072V187.07ZM178.635 185.007C180.246 181.066 186.366 178.127 193.677 178.127C200.987 178.127 207.106 181.066 208.718 185.008C207.106 188.951 200.982 191.89 193.677 191.89C186.371 191.89 180.241 188.951 178.635 185.008V185.007Z" fill="#606475"/>
<path d="M173.924 181.728C173.924 181.861 173.924 181.995 173.944 182.128C174.303 188.25 182.989 193.158 193.675 193.158C204.362 193.158 213.43 188.035 213.43 181.728C213.43 175.421 204.58 170.302 193.675 170.302C182.771 170.302 173.924 175.425 173.924 181.728ZM178.216 181.728C178.216 176.796 185.138 172.789 193.674 172.789C202.211 172.789 209.137 176.796 209.137 181.728C209.137 181.979 209.121 182.229 209.085 182.472C208.428 187.06 201.775 190.671 193.674 190.671C185.573 190.671 178.905 187.052 178.272 182.456C178.251 182.322 178.24 182.181 178.232 182.043C178.216 181.938 178.216 181.833 178.216 181.728Z" fill="#D0D5E2"/>
<path opacity="0.42" d="M178.273 182.457C178.906 187.054 185.556 190.672 193.676 190.672C201.796 190.672 208.429 187.062 209.086 182.473C208.429 177.884 201.777 174.273 193.676 174.273C185.575 174.273 178.938 177.876 178.273 182.457Z" fill="white"/>
<path d="M173.168 199.406C173.161 199.359 173.153 199.311 173.144 199.264C173.138 199.232 173.133 199.198 173.125 199.166C173.118 199.136 173.11 199.105 173.103 199.075C173.093 199.033 173.081 198.99 173.069 198.948C173.062 198.924 173.054 198.898 173.046 198.874C173.031 198.826 173.015 198.779 172.997 198.732C172.991 198.712 172.984 198.693 172.977 198.672C172.952 198.607 172.926 198.541 172.898 198.476C172.894 198.469 172.891 198.462 172.888 198.455C172.862 198.396 172.835 198.338 172.806 198.28C172.797 198.263 172.789 198.245 172.78 198.227C172.752 198.173 172.722 198.119 172.692 198.065C172.687 198.055 172.681 198.045 172.675 198.034C172.64 197.972 172.602 197.911 172.563 197.852C172.551 197.834 172.54 197.817 172.528 197.8C172.5 197.756 172.47 197.714 172.44 197.672C172.424 197.649 172.407 197.627 172.391 197.604C172.365 197.57 172.337 197.535 172.311 197.501C172.288 197.472 172.265 197.445 172.242 197.416C172.22 197.39 172.197 197.364 172.174 197.339C172.135 197.295 172.095 197.253 172.055 197.211C172.035 197.192 172.016 197.171 171.995 197.152C171.914 197.072 171.83 196.999 171.744 196.931C171.729 196.92 171.713 196.908 171.698 196.897C171.608 196.828 171.515 196.763 171.42 196.708C171.344 196.664 171.268 196.628 171.195 196.597C171.171 196.586 171.148 196.577 171.125 196.569C171.083 196.553 171.04 196.538 170.999 196.525C170.973 196.517 170.946 196.509 170.92 196.504C170.896 196.498 170.87 196.492 170.846 196.487C170.814 196.482 170.783 196.476 170.752 196.472C170.734 196.47 170.717 196.468 170.698 196.467C170.659 196.464 170.622 196.463 170.585 196.464C170.576 196.464 170.567 196.464 170.559 196.464C170.514 196.467 170.469 196.472 170.427 196.481C170.416 196.483 170.406 196.485 170.396 196.487C170.363 196.495 170.329 196.505 170.297 196.516C170.287 196.52 170.277 196.523 170.267 196.526C170.227 196.543 170.187 196.561 170.15 196.583L179.469 191.155C179.469 191.155 179.476 191.152 179.478 191.149C179.507 191.133 179.537 191.118 179.568 191.106C179.573 191.103 179.579 191.102 179.585 191.1C179.595 191.097 179.604 191.093 179.615 191.09C179.631 191.084 179.645 191.078 179.662 191.074C179.679 191.069 179.696 191.066 179.713 191.062C179.723 191.06 179.734 191.056 179.744 191.055C179.75 191.055 179.756 191.052 179.761 191.052C179.797 191.046 179.832 191.041 179.869 191.039C179.871 191.039 179.874 191.039 179.876 191.039C179.884 191.039 179.893 191.039 179.902 191.039C179.93 191.039 179.959 191.037 179.987 191.039C179.996 191.039 180.007 191.041 180.017 191.043C180.034 191.044 180.053 191.046 180.071 191.048C180.088 191.051 180.104 191.051 180.12 191.053C180.135 191.055 180.15 191.06 180.165 191.062C180.189 191.067 180.213 191.071 180.238 191.078C180.251 191.082 180.265 191.083 180.277 191.086C180.29 191.09 180.304 191.097 180.317 191.1C180.359 191.113 180.401 191.128 180.444 191.144C180.458 191.149 180.472 191.153 180.488 191.159C180.496 191.162 180.505 191.168 180.513 191.171C180.587 191.203 180.661 191.239 180.738 191.283C180.833 191.338 180.926 191.402 181.017 191.471C181.032 191.483 181.048 191.494 181.063 191.506C181.149 191.573 181.232 191.648 181.314 191.726C181.321 191.733 181.328 191.738 181.334 191.745C181.347 191.757 181.36 191.772 181.372 191.785C181.412 191.826 181.453 191.869 181.492 191.912C181.504 191.926 181.517 191.939 181.529 191.953C181.54 191.964 181.549 191.977 181.559 191.989C181.583 192.017 181.606 192.046 181.629 192.075C181.644 192.093 181.66 192.111 181.675 192.13C181.686 192.145 181.698 192.162 181.709 192.177C181.727 192.199 181.743 192.222 181.759 192.245C181.77 192.261 181.782 192.276 181.793 192.291C181.811 192.317 181.829 192.345 181.847 192.371C181.858 192.388 181.87 192.405 181.881 192.423C181.886 192.43 181.891 192.437 181.895 192.445C181.927 192.494 181.958 192.545 181.987 192.596C181.989 192.6 181.99 192.603 181.993 192.607C181.998 192.617 182.004 192.627 182.01 192.638C182.03 192.674 182.051 192.71 182.071 192.747C182.08 192.764 182.088 192.781 182.097 192.799C182.106 192.816 182.115 192.834 182.123 192.851C182.131 192.867 182.139 192.882 182.147 192.899C182.168 192.941 182.186 192.984 182.206 193.026C182.209 193.033 182.213 193.041 182.216 193.048C182.216 193.05 182.218 193.052 182.218 193.054C182.241 193.107 182.263 193.161 182.284 193.215C182.287 193.225 182.291 193.234 182.294 193.244C182.301 193.264 182.308 193.283 182.316 193.304C182.325 193.331 182.335 193.357 182.345 193.383C182.351 193.404 182.357 193.426 182.364 193.447C182.372 193.471 182.379 193.496 182.387 193.52C182.392 193.535 182.396 193.55 182.401 193.565C182.409 193.593 182.415 193.62 182.421 193.648C182.429 193.679 182.437 193.709 182.443 193.739C182.445 193.749 182.449 193.759 182.451 193.771C182.456 193.793 182.458 193.814 182.463 193.836C182.472 193.884 182.48 193.932 182.487 193.979C182.489 193.991 182.491 194.005 182.494 194.018C182.495 194.03 182.494 194.042 182.496 194.055C182.509 194.16 182.517 194.266 182.517 194.368C182.515 194.933 182.316 195.329 181.996 195.516L172.678 200.944C172.997 200.758 173.196 200.36 173.198 199.796C173.198 199.694 173.19 199.588 173.177 199.482C173.174 199.457 173.172 199.432 173.168 199.406Z" fill="#707482"/>
<path d="M171.42 196.708C170.434 196.138 169.632 196.595 169.629 197.731C169.625 198.866 170.421 200.249 171.407 200.819C172.393 201.389 173.195 200.931 173.197 199.796C173.201 198.661 172.405 197.278 171.419 196.708H171.42Z" fill="#4A4D5A"/>
<path d="M161.044 207.642C161.034 207.572 161.021 207.502 161.009 207.431C161 207.383 160.992 207.335 160.98 207.286C160.97 207.241 160.958 207.197 160.947 207.152C160.931 207.089 160.915 207.027 160.896 206.963C160.886 206.927 160.875 206.891 160.863 206.854C160.841 206.784 160.817 206.713 160.792 206.643C160.782 206.614 160.771 206.584 160.761 206.555C160.724 206.458 160.687 206.361 160.644 206.265C160.64 206.254 160.635 206.244 160.63 206.235C160.593 206.147 160.551 206.061 160.509 205.976C160.496 205.95 160.482 205.924 160.47 205.898C160.429 205.818 160.386 205.738 160.341 205.659C160.333 205.644 160.324 205.628 160.316 205.613C160.263 205.521 160.207 205.431 160.15 205.342C160.134 205.317 160.116 205.291 160.099 205.266C160.057 205.202 160.014 205.14 159.969 205.078C159.945 205.044 159.921 205.011 159.895 204.978C159.856 204.926 159.816 204.875 159.776 204.825C159.743 204.782 159.709 204.741 159.674 204.699C159.641 204.66 159.608 204.624 159.574 204.586C159.517 204.521 159.459 204.459 159.399 204.398C159.37 204.368 159.34 204.34 159.312 204.311C159.191 204.194 159.068 204.085 158.94 203.985C158.917 203.967 158.894 203.95 158.873 203.933C158.738 203.831 158.602 203.735 158.461 203.655C158.349 203.589 158.239 203.536 158.13 203.489C158.095 203.474 158.061 203.461 158.026 203.448C157.963 203.424 157.901 203.402 157.841 203.384C157.802 203.372 157.763 203.361 157.724 203.35C157.687 203.341 157.651 203.334 157.616 203.327C157.569 203.318 157.522 203.311 157.476 203.305C157.45 203.302 157.423 203.3 157.397 203.297C157.34 203.294 157.283 203.293 157.228 203.294C157.216 203.294 157.202 203.294 157.188 203.294C157.122 203.297 157.056 203.307 156.993 203.318C156.977 203.322 156.962 203.325 156.947 203.328C156.898 203.34 156.849 203.354 156.802 203.371C156.787 203.377 156.772 203.381 156.757 203.387C156.697 203.411 156.639 203.438 156.584 203.47L170.352 195.451C170.352 195.451 170.362 195.445 170.367 195.443C170.41 195.419 170.455 195.397 170.499 195.378C170.507 195.375 170.516 195.373 170.526 195.369C170.541 195.363 170.555 195.359 170.57 195.353C170.593 195.345 170.615 195.336 170.639 195.329C170.664 195.322 170.691 195.317 170.716 195.312C170.731 195.308 170.747 195.304 170.762 195.301C170.77 195.3 170.778 195.297 170.787 195.296C170.839 195.286 170.893 195.281 170.946 195.277C170.95 195.277 170.953 195.277 170.957 195.277C170.969 195.277 170.983 195.277 170.996 195.277C171.037 195.276 171.078 195.274 171.121 195.277C171.134 195.277 171.151 195.281 171.164 195.282C171.191 195.284 171.217 195.286 171.243 195.29C171.267 195.292 171.292 195.293 171.317 195.297C171.339 195.3 171.362 195.307 171.382 195.311C171.418 195.317 171.454 195.324 171.49 195.334C171.509 195.338 171.528 195.34 171.547 195.346C171.567 195.352 171.587 195.361 171.606 195.367C171.667 195.385 171.728 195.407 171.791 195.431C171.813 195.439 171.835 195.445 171.857 195.454C171.869 195.46 171.882 195.468 171.895 195.473C172.004 195.52 172.114 195.573 172.226 195.638C172.366 195.72 172.504 195.815 172.638 195.916C172.661 195.933 172.684 195.949 172.705 195.968C172.833 196.069 172.956 196.178 173.077 196.294C173.087 196.305 173.097 196.311 173.108 196.322C173.127 196.341 173.144 196.362 173.164 196.382C173.224 196.442 173.282 196.505 173.339 196.569C173.358 196.59 173.377 196.608 173.396 196.629C173.411 196.646 173.424 196.664 173.439 196.683C173.474 196.724 173.508 196.765 173.542 196.808C173.564 196.836 173.588 196.862 173.609 196.89C173.626 196.913 173.643 196.937 173.66 196.96C173.686 196.993 173.71 197.026 173.734 197.06C173.75 197.083 173.768 197.104 173.784 197.129C173.812 197.168 173.838 197.208 173.865 197.248C173.882 197.273 173.899 197.299 173.916 197.325C173.923 197.335 173.93 197.346 173.937 197.357C173.984 197.431 174.03 197.505 174.073 197.58C174.077 197.585 174.079 197.591 174.081 197.595C174.09 197.61 174.098 197.626 174.107 197.641C174.136 197.695 174.167 197.748 174.196 197.802C174.21 197.827 174.221 197.854 174.235 197.879C174.249 197.905 174.261 197.931 174.275 197.957C174.287 197.98 174.299 198.003 174.311 198.026C174.34 198.088 174.369 198.151 174.397 198.215C174.401 198.225 174.407 198.236 174.412 198.247C174.413 198.25 174.414 198.252 174.416 198.256C174.45 198.334 174.483 198.413 174.512 198.493C174.518 198.508 174.523 198.521 174.528 198.536C174.54 198.565 174.549 198.595 174.559 198.624C174.573 198.663 174.588 198.702 174.602 198.742C174.612 198.773 174.62 198.804 174.63 198.835C174.642 198.872 174.653 198.908 174.664 198.944C174.671 198.966 174.678 198.989 174.684 199.011C174.696 199.051 174.704 199.091 174.714 199.133C174.726 199.178 174.737 199.222 174.747 199.267C174.751 199.283 174.755 199.298 174.759 199.314C174.766 199.346 174.769 199.379 174.776 199.412C174.79 199.482 174.802 199.553 174.813 199.623C174.815 199.643 174.82 199.663 174.823 199.682C174.825 199.7 174.824 199.718 174.827 199.736C174.845 199.892 174.858 200.049 174.856 200.2C174.854 201.034 174.561 201.62 174.087 201.895L160.319 209.914C160.792 209.639 161.086 209.053 161.088 208.219C161.088 208.068 161.076 207.913 161.058 207.755C161.053 207.718 161.05 207.68 161.044 207.642Z" fill="#D0D5E2"/>
<path d="M158.46 203.656C157.002 202.812 155.819 203.489 155.814 205.167C155.81 206.845 156.986 208.887 158.443 209.729C159.9 210.573 161.083 209.896 161.088 208.218C161.092 206.54 159.916 204.498 158.46 203.656Z" fill="#707482"/>
<path d="M243.454 159.72C243.454 159.88 243.431 160.035 243.384 160.19C242.751 162.351 237.773 164.033 231.731 164.033C225.688 164.033 220.711 162.351 220.078 160.19C220.031 160.035 220.008 159.88 220.008 159.72C220.008 157.338 225.252 155.407 231.731 155.407C238.209 155.407 243.454 157.338 243.454 159.72Z" fill="#B2B1B1"/>
<path d="M243.382 160.19L240.762 177.582C240.762 179.419 236.717 180.903 231.729 180.903C226.741 180.903 222.692 179.419 222.692 177.582L220.076 160.19C220.709 162.351 225.682 164.033 231.729 164.033C237.776 164.033 242.749 162.351 243.382 160.19Z" fill="white"/>
<path d="M234.57 157.024C231.829 155.081 237.642 148.999 242.437 149.28C247.231 149.56 246.998 152.592 250.537 152.032C254.074 151.473 256.449 151.939 258.078 154.365C259.707 156.791 258.543 161.69 258.543 161.69C258.543 161.69 256.356 157.305 252.166 157.584C247.976 157.864 246.068 157.894 242.949 155.406C239.831 152.918 238.388 159.729 234.571 157.023L234.57 157.024Z" fill="url(#paint31_linear_140_1305)"/>
<path d="M232.3 156.747C228.315 155.009 229.878 146.787 235.034 145.769C240.191 144.751 240.893 141.619 242.378 138.644C243.863 135.669 247.613 137.784 250.894 135.591C254.176 133.398 264.956 136.922 264.956 136.922C264.956 136.922 256.987 137.313 254.801 140.601C252.613 143.89 247.936 142.402 246.407 145.534C244.879 148.665 244.02 151.014 238.864 152.11C233.708 153.207 232.302 156.746 232.302 156.746L232.3 156.747Z" fill="url(#paint32_linear_140_1305)"/>
<path d="M228.13 158.294C228.13 158.294 220.303 154.768 221.709 148.069C223.116 141.369 223.645 139.765 218.192 138.407C212.738 137.05 210.979 134.55 213.266 129.717C215.552 124.885 207.812 119.508 207.812 119.508C207.812 119.508 220.83 119.684 222.325 125.413C223.82 131.143 223.645 132.995 227.69 133.788C231.737 134.581 236.398 136.168 235.166 143.22C233.935 150.273 232.297 156.746 232.297 156.746C232.297 156.746 231.099 160.21 228.13 158.294Z" fill="url(#paint33_linear_140_1305)"/>
<path d="M233.747 155.302C233.747 155.302 228.006 152.595 229.405 147.459C230.804 142.323 232.243 141.433 230.851 137.494C229.458 133.556 229.749 128.833 233.798 126.546C237.847 124.259 235.616 116.899 237.933 114.042C240.249 111.186 243.737 110.312 243.737 110.312C243.737 110.312 241.676 115.358 242.895 118.613C244.114 121.869 248.055 126.884 242.486 131.298C236.917 135.712 244.313 139.006 242.423 144.093C240.532 149.181 233.423 151.04 233.747 155.302Z" fill="url(#paint34_linear_140_1305)"/>
<path d="M230.894 156.795C233.621 153.812 229.276 143.996 223.644 142.535C218.012 141.074 215.648 143.897 212.79 142.535C209.933 141.173 205.106 137.573 200.573 141.397C196.041 145.222 195.352 147.401 195.352 147.401C195.352 147.401 203.825 142.026 206.977 146.882C210.13 151.739 215.757 151.056 220.475 150.344C225.193 149.631 225.42 158.748 228.16 158.849C230.9 158.95 230.893 156.795 230.893 156.795H230.894Z" fill="url(#paint35_linear_140_1305)"/>
<path d="M229.715 157.298C228.631 152.845 222.522 150.722 220.158 153.907C217.793 157.091 212.866 153.655 211.388 157.298C209.91 160.942 212.472 162.916 209.123 164.991C205.772 167.064 208.63 172.199 208.63 172.199C208.63 172.199 210.108 168.754 212.866 168.354C215.625 167.954 219.467 165.091 219.27 161.337C219.073 157.585 222.423 155.252 225.477 158.146C228.531 161.041 229.714 157.298 229.714 157.298H229.715Z" fill="url(#paint36_linear_140_1305)"/>
<path d="M230.971 153.687C229.319 156.733 226.435 158.566 229.88 160.321C233.326 162.075 231.335 165.298 229.031 166.846C226.725 168.394 231.356 168.888 235.198 170.566C239.041 172.245 238.352 176.787 238.352 176.787C238.352 176.787 241.446 175.996 242.362 170.072C243.279 164.147 238.45 166.814 238.845 161.975C239.239 157.137 232.362 151.124 230.972 153.686L230.971 153.687Z" fill="url(#paint37_linear_140_1305)"/>
<g opacity="0.49">
<path d="M231.398 151.781C231.398 151.781 238.092 144.025 235.915 138.407C233.738 132.789 235.063 127.286 239.038 125.389C243.014 123.492 236.319 113.164 243.736 110.312" stroke="white" stroke-width="3" stroke-miterlimit="10"/>
<path d="M242.693 143.018C242.693 143.018 244.451 137.962 247.505 139.19C250.558 140.417 252.937 135.788 256.437 136.209C259.936 136.629 264.098 136.657 264.098 136.657" stroke="white" stroke-width="3" stroke-miterlimit="10"/>
<path d="M229.714 146.394C229.714 146.394 231.594 137.703 225.814 136.529C220.033 135.354 217.727 132.788 218.604 127.447C219.481 122.105 208.631 119.539 208.631 119.539" stroke="white" stroke-width="3" stroke-miterlimit="10"/>
<path d="M238.861 152.111C238.861 152.111 242.74 150.736 246.405 154.016C250.069 157.295 251.649 152.723 255.094 154.016C258.538 155.308 258.542 161.69 258.542 161.69" stroke="white" stroke-width="3" stroke-miterlimit="10"/>
<path d="M229.187 154.677C229.187 154.677 228.78 145.504 220.945 145.808C213.11 146.113 212.157 146.342 208.632 143.017C205.106 139.692 198.458 142.54 195.352 147.4" stroke="white" stroke-width="3" stroke-miterlimit="10"/>
<path d="M228.935 156.747C228.935 156.747 223.994 150.106 219.318 155.407C214.642 160.71 213.194 158.322 213.025 162.29C212.854 166.257 209.347 165.595 208.631 168.049C207.915 170.504 208.63 172.198 208.63 172.198" stroke="white" stroke-width="3" stroke-miterlimit="10"/>
<path d="M230.969 153.687C230.969 153.687 236.273 154.571 234.825 160.67C233.377 166.769 234.519 166.683 237.566 167.963C240.615 169.243 239.933 173.235 238.347 176.786" stroke="white" stroke-width="3" stroke-miterlimit="10"/>
</g>
<path opacity="0.32" d="M64.1219 199.681C64.1219 199.681 55.3645 201.822 56.3371 204.929C57.3105 208.037 75.7117 221 82.7007 221C89.6897 221 89.4244 213.986 82.2586 208.658C75.0928 203.33 64.1219 199.681 64.1219 199.681V199.681Z" fill="url(#paint38_linear_140_1305)"/>
<path d="M57.1677 203.557C57.1677 203.557 56.8057 205.915 56.9273 206.221C57.0489 206.526 59.4543 207.779 60.1548 207.565C60.8553 207.351 65.2399 202.187 65.2095 201.758C65.1791 201.33 64.6133 200.2 63.1391 200.688C61.6649 201.177 61.1903 201.177 61.1903 201.177L57.1677 203.556V203.557Z" fill="#20233A"/>
<path d="M66.4557 206.946C66.4557 206.946 65.8865 209.012 66.0882 209.504C66.2892 209.995 68.2007 210.93 68.4459 210.88C68.6912 210.831 74.6695 207.585 74.8657 207.191C75.0619 206.797 73.6892 205.273 72.3663 205.814C71.0434 206.355 68.7395 206.453 68.7395 206.453L66.4557 206.945V206.946Z" fill="#2D2F4F"/>
<path d="M55.9395 169.991C55.9395 169.991 54.9814 173.683 55.9395 176.434C56.8977 179.185 56.8148 179.685 56.8148 179.685L57.9774 188.855C57.9774 188.855 56.5101 192.69 56.7457 197.275C56.9813 201.86 56.7457 203.11 56.7457 203.11C56.7457 203.11 57.3129 204.111 59.3066 204.361C61.3002 204.611 61.6761 203.528 61.6761 203.528C61.6761 203.528 61.3831 196.609 62.9617 192.44C64.5395 188.272 65.7857 171.683 65.7857 171.683L55.9402 169.993L55.9395 169.991Z" fill="#2D2F4F"/>
<path d="M60.6491 173.779C60.6491 173.779 59.7096 176.087 61.3862 178.805C63.0628 181.524 65.7846 182.754 65.7846 182.754L66.2868 191.104C66.2868 191.104 65.6686 195.441 65.7846 199.454C65.9 203.467 66.2868 206.574 66.2868 206.574C66.2868 206.574 66.5445 207.544 68.0284 207.674C69.5116 207.804 70.0276 207.156 70.0276 207.156C70.0276 207.156 70.8013 197.835 71.7692 193.628C72.7363 189.421 70.963 171.192 70.963 171.192C70.963 171.192 66.2965 174.578 60.6491 173.779V173.779Z" fill="#444866"/>
<path d="M68.7683 130.983C68.7683 130.983 69.1717 134.434 69.0536 134.943C68.9355 135.452 68.6833 135.615 68.6833 135.615C68.6833 135.615 69.2304 136.739 69.0342 137.724C68.8381 138.71 68.0077 141.458 67.6056 141.831C67.2036 142.204 65.2389 142.255 65.2389 142.255L65.0662 144.245L59.7324 141.774C59.7324 141.774 60.1393 137.51 60.1103 137.412C60.082 137.313 64.1004 129.35 64.1004 129.35L68.7669 130.982L68.7683 130.983Z" fill="url(#paint39_linear_140_1305)"/>
<path d="M54.0775 142.517C54.0775 142.517 52.4796 143.698 52.137 148.194C51.7937 152.689 52.0879 159.909 53.1076 160.568C54.1265 161.228 60.4385 160.811 60.4385 160.811L54.0775 142.517V142.517Z" fill="url(#paint40_linear_140_1305)"/>
<path d="M69.0426 148.193C69.0426 148.193 66.0569 146.106 65.6777 145.599C65.2984 145.091 65.362 143.377 65.362 143.377C65.362 143.377 60.308 141.033 59.613 141.097C58.9181 141.16 57.8438 142.048 57.8438 142.048C57.8438 142.048 53.8005 140.976 53.4212 143.859C53.042 146.741 55.4433 156.663 56.0747 160.325C56.7068 163.988 55.5144 170.913 55.5144 170.913C55.5144 170.913 56.7696 174.513 62.7714 174.513C68.7732 174.513 71.1109 171.786 71.1109 171.786C71.1109 171.786 70.644 150.275 70.2647 149.451C69.8854 148.627 69.042 148.193 69.042 148.193L69.0426 148.193Z" fill="url(#paint41_linear_140_1305)"/>
<path d="M65.7019 148.984C64.1869 151.367 65.38 153.885 67.3384 156.842C69.2969 159.799 72.1845 163.798 73.3851 164.051C74.5858 164.304 84.3712 163.746 84.3712 163.746C84.3712 163.746 85.0129 162.124 84.6834 160.994L84.3539 159.864C84.3539 159.864 75.5971 159.529 75.155 159.19C74.7129 158.851 71.8833 149.958 69.3397 148.69C66.7961 147.422 65.7033 148.984 65.7033 148.984H65.7019Z" fill="url(#paint42_linear_140_1305)"/>
<path d="M69.9856 131.015C68.4872 132.518 67.1422 133.106 67.091 134.549C67.0399 135.992 67.2789 137.002 66.8555 137.231C66.432 137.461 66.8341 136.233 65.7294 136.174C64.6248 136.115 65.1077 137.976 65.2942 138.512C65.4807 139.048 64.5696 139.34 62.4294 139.487C60.2893 139.634 59.8983 138.598 59.6558 137.983C59.4133 137.368 58.4558 134.76 58.8738 133.348C59.2917 131.937 60.0572 131.643 60.0572 131.643C60.0572 131.643 59.9418 129.136 62.7631 129.011C65.5851 128.885 67.7901 129.896 69.0398 129.559C70.2895 129.222 69.9856 131.014 69.9856 131.014V131.015Z" fill="#2D2F4F"/>
<path d="M84.542 160.517C84.542 160.517 86.4252 159.138 87.2272 158.946C88.0292 158.755 89.3777 158.535 89.3777 158.535C89.3777 158.535 89.5967 159.101 88.758 159.33C87.9194 159.56 89.3777 160.115 91.4557 159.527C93.5336 158.938 91.3465 161.211 89.8516 162.068C88.3567 162.926 84.5137 163.317 84.5137 163.317C84.5137 163.317 85.0649 161.184 84.542 160.518V160.517Z" fill="url(#paint43_linear_140_1305)"/>
<defs>
<linearGradient id="paint0_linear_140_1305" x1="160.802" y1="129.249" x2="265.664" y2="200.54" gradientUnits="userSpaceOnUse">
<stop stop-color="#050101"/>
<stop offset="1"/>
</linearGradient>
<linearGradient id="paint1_linear_140_1305" x1="137.505" y1="145.375" x2="192.875" y2="217.119" gradientUnits="userSpaceOnUse">
<stop stop-color="#050101"/>
<stop offset="1"/>
</linearGradient>
<linearGradient id="paint2_linear_140_1305" x1="73.2609" y1="92.5445" x2="128.631" y2="164.289" gradientUnits="userSpaceOnUse">
<stop stop-color="#050101"/>
<stop offset="1"/>
</linearGradient>
<linearGradient id="paint3_linear_140_1305" x1="181.13" y1="120.095" x2="150.15" y2="120.095" gradientUnits="userSpaceOnUse">
<stop stop-color="#FFAC06"/>
<stop offset="1" stop-color="#F66C1E"/>
</linearGradient>
<linearGradient id="paint4_linear_140_1305" x1="78.0304" y1="113.324" x2="76.7521" y2="110.983" gradientUnits="userSpaceOnUse">
<stop stop-color="#CC4B23"/>
<stop offset="1" stop-color="#F25227"/>
</linearGradient>
<linearGradient id="paint5_linear_140_1305" x1="88.9328" y1="106.939" x2="87.6545" y2="104.598" gradientUnits="userSpaceOnUse">
<stop stop-color="#CC4B23"/>
<stop offset="1" stop-color="#F25227"/>
</linearGradient>
<linearGradient id="paint6_linear_140_1305" x1="99.8351" y1="100.554" x2="98.5568" y2="98.2145" gradientUnits="userSpaceOnUse">
<stop stop-color="#CC4B23"/>
<stop offset="1" stop-color="#F25227"/>
</linearGradient>
<linearGradient id="paint7_linear_140_1305" x1="110.737" y1="94.1705" x2="109.459" y2="91.8298" gradientUnits="userSpaceOnUse">
<stop stop-color="#CC4B23"/>
<stop offset="1" stop-color="#F25227"/>
</linearGradient>
<linearGradient id="paint8_linear_140_1305" x1="101.026" y1="70.5066" x2="31.0666" y2="91.6587" gradientUnits="userSpaceOnUse">
<stop stop-color="#63DBBF"/>
<stop offset="1" stop-color="#7CDAC9"/>
</linearGradient>
<linearGradient id="paint9_linear_140_1305" x1="104.14" y1="80.8034" x2="34.1808" y2="101.955" gradientUnits="userSpaceOnUse">
<stop stop-color="white"/>
<stop offset="1" stop-color="#7CDAC9"/>
</linearGradient>
<linearGradient id="paint10_linear_140_1305" x1="143.898" y1="135.663" x2="106.59" y2="160.818" gradientUnits="userSpaceOnUse">
<stop stop-color="#57BDB2"/>
<stop offset="1" stop-color="#6EE3CC"/>
</linearGradient>
<linearGradient id="paint11_linear_140_1305" x1="140.251" y1="142.947" x2="131.522" y2="174.28" gradientUnits="userSpaceOnUse">
<stop stop-color="#4FB2A4"/>
<stop offset="1" stop-color="#1F6D4F"/>
</linearGradient>
<linearGradient id="paint12_linear_140_1305" x1="90.3398" y1="170.16" x2="113.118" y2="170.16" gradientUnits="userSpaceOnUse">
<stop stop-color="#57BDB2"/>
<stop offset="1" stop-color="#6EE3CC"/>
</linearGradient>
<linearGradient id="paint13_linear_140_1305" x1="145.816" y1="176.729" x2="169.437" y2="176.729" gradientUnits="userSpaceOnUse">
<stop stop-color="#B58252"/>
<stop offset="0.3" stop-color="#DDB277"/>
<stop offset="0.48" stop-color="#BB8958"/>
<stop offset="0.72" stop-color="#B27E4F"/>
<stop offset="1" stop-color="#B27E4F"/>
</linearGradient>
<linearGradient id="paint14_linear_140_1305" x1="145.816" y1="171.767" x2="169.437" y2="171.767" gradientUnits="userSpaceOnUse">
<stop stop-color="#DCB274"/>
<stop offset="1" stop-color="#FFDC96"/>
</linearGradient>
<linearGradient id="paint15_linear_140_1305" x1="23.9545" y1="172.664" x2="24.0692" y2="172.664" gradientUnits="userSpaceOnUse">
<stop stop-color="#B58252"/>
<stop offset="0.3" stop-color="#DDB277"/>
<stop offset="0.48" stop-color="#BB8958"/>
<stop offset="0.72" stop-color="#B27E4F"/>
<stop offset="1" stop-color="#B27E4F"/>
</linearGradient>
<linearGradient id="paint16_linear_140_1305" x1="23.9545" y1="167.701" x2="24.0692" y2="167.701" gradientUnits="userSpaceOnUse">
<stop stop-color="#DCB274"/>
<stop offset="1" stop-color="#FFDC96"/>
</linearGradient>
<linearGradient id="paint17_linear_140_1305" x1="23.9545" y1="168.599" x2="24.0692" y2="168.599" gradientUnits="userSpaceOnUse">
<stop stop-color="#B58252"/>
<stop offset="0.3" stop-color="#DDB277"/>
<stop offset="0.48" stop-color="#BB8958"/>
<stop offset="0.72" stop-color="#B27E4F"/>
<stop offset="1" stop-color="#B27E4F"/>
</linearGradient>
<linearGradient id="paint18_linear_140_1305" x1="23.9545" y1="163.637" x2="24.0692" y2="163.637" gradientUnits="userSpaceOnUse">
<stop stop-color="#DCB274"/>
<stop offset="1" stop-color="#FFDC96"/>
</linearGradient>
<linearGradient id="paint19_linear_140_1305" x1="23.9545" y1="164.534" x2="24.0692" y2="164.534" gradientUnits="userSpaceOnUse">
<stop stop-color="#B58252"/>
<stop offset="0.3" stop-color="#DDB277"/>
<stop offset="0.48" stop-color="#BB8958"/>
<stop offset="0.72" stop-color="#B27E4F"/>
<stop offset="1" stop-color="#B27E4F"/>
</linearGradient>
<linearGradient id="paint20_linear_140_1305" x1="23.9545" y1="159.572" x2="24.0692" y2="159.572" gradientUnits="userSpaceOnUse">
<stop stop-color="#DCB274"/>
<stop offset="1" stop-color="#FFDC96"/>
</linearGradient>
<linearGradient id="paint21_linear_140_1305" x1="23.9545" y1="160.469" x2="24.0692" y2="160.469" gradientUnits="userSpaceOnUse">
<stop stop-color="#B58252"/>
<stop offset="0.3" stop-color="#DDB277"/>
<stop offset="0.48" stop-color="#BB8958"/>
<stop offset="0.72" stop-color="#B27E4F"/>
<stop offset="1" stop-color="#B27E4F"/>
</linearGradient>
<linearGradient id="paint22_linear_140_1305" x1="23.9545" y1="155.507" x2="24.0692" y2="155.507" gradientUnits="userSpaceOnUse">
<stop stop-color="#DCB274"/>
<stop offset="1" stop-color="#FFDC96"/>
</linearGradient>
<linearGradient id="paint23_linear_140_1305" x1="125.65" y1="188.275" x2="149.271" y2="188.275" gradientUnits="userSpaceOnUse">
<stop stop-color="#B58252"/>
<stop offset="0.3" stop-color="#DDB277"/>
<stop offset="0.48" stop-color="#BB8958"/>
<stop offset="0.72" stop-color="#B27E4F"/>
<stop offset="1" stop-color="#B27E4F"/>
</linearGradient>
<linearGradient id="paint24_linear_140_1305" x1="125.65" y1="183.313" x2="149.271" y2="183.313" gradientUnits="userSpaceOnUse">
<stop stop-color="#DCB274"/>
<stop offset="1" stop-color="#FFDC96"/>
</linearGradient>
<linearGradient id="paint25_linear_140_1305" x1="125.65" y1="184.21" x2="149.271" y2="184.21" gradientUnits="userSpaceOnUse">
<stop stop-color="#B58252"/>
<stop offset="0.3" stop-color="#DDB277"/>
<stop offset="0.48" stop-color="#BB8958"/>
<stop offset="0.72" stop-color="#B27E4F"/>
<stop offset="1" stop-color="#B27E4F"/>
</linearGradient>
<linearGradient id="paint26_linear_140_1305" x1="125.65" y1="179.247" x2="149.271" y2="179.247" gradientUnits="userSpaceOnUse">
<stop stop-color="#DCB274"/>
<stop offset="1" stop-color="#FFDC96"/>
</linearGradient>
<linearGradient id="paint27_linear_140_1305" x1="125.65" y1="180.145" x2="149.271" y2="180.145" gradientUnits="userSpaceOnUse">
<stop stop-color="#B58252"/>
<stop offset="0.3" stop-color="#DDB277"/>
<stop offset="0.48" stop-color="#BB8958"/>
<stop offset="0.72" stop-color="#B27E4F"/>
<stop offset="1" stop-color="#B27E4F"/>
</linearGradient>
<linearGradient id="paint28_linear_140_1305" x1="125.65" y1="175.183" x2="149.271" y2="175.183" gradientUnits="userSpaceOnUse">
<stop stop-color="#DCB274"/>
<stop offset="1" stop-color="#FFDC96"/>
</linearGradient>
<linearGradient id="paint29_linear_140_1305" x1="125.65" y1="176.08" x2="149.271" y2="176.08" gradientUnits="userSpaceOnUse">
<stop stop-color="#B58252"/>
<stop offset="0.3" stop-color="#DDB277"/>
<stop offset="0.48" stop-color="#BB8958"/>
<stop offset="0.72" stop-color="#B27E4F"/>
<stop offset="1" stop-color="#B27E4F"/>
</linearGradient>
<linearGradient id="paint30_linear_140_1305" x1="125.65" y1="171.118" x2="149.271" y2="171.118" gradientUnits="userSpaceOnUse">
<stop stop-color="#DCB274"/>
<stop offset="1" stop-color="#FFDC96"/>
</linearGradient>
<linearGradient id="paint31_linear_140_1305" x1="246.394" y1="158.04" x2="246.48" y2="149.655" gradientUnits="userSpaceOnUse">
<stop stop-color="#86E2D0"/>
<stop offset="1" stop-color="#309E98"/>
</linearGradient>
<linearGradient id="paint32_linear_140_1305" x1="245.062" y1="136.93" x2="248.065" y2="147.094" gradientUnits="userSpaceOnUse">
<stop stop-color="#86E2D0"/>
<stop offset="1" stop-color="#309E98"/>
</linearGradient>
<linearGradient id="paint33_linear_140_1305" x1="221.923" y1="127.869" x2="219.777" y2="145.528" gradientUnits="userSpaceOnUse">
<stop stop-color="#86E2D0"/>
<stop offset="1" stop-color="#309E98"/>
</linearGradient>
<linearGradient id="paint34_linear_140_1305" x1="244.451" y1="132.755" x2="232.811" y2="132.862" gradientUnits="userSpaceOnUse">
<stop stop-color="#86E2D0"/>
<stop offset="1" stop-color="#309E98"/>
</linearGradient>
<linearGradient id="paint35_linear_140_1305" x1="214.736" y1="139.109" x2="213.127" y2="154.95" gradientUnits="userSpaceOnUse">
<stop stop-color="#86E2D0"/>
<stop offset="1" stop-color="#309E98"/>
</linearGradient>
<linearGradient id="paint36_linear_140_1305" x1="207.495" y1="162.29" x2="229.715" y2="162.29" gradientUnits="userSpaceOnUse">
<stop stop-color="#86E2D0"/>
<stop offset="1" stop-color="#309E98"/>
</linearGradient>
<linearGradient id="paint37_linear_140_1305" x1="235.484" y1="169.872" x2="235.091" y2="152.446" gradientUnits="userSpaceOnUse">
<stop stop-color="#86E2D0"/>
<stop offset="1" stop-color="#309E98"/>
</linearGradient>
<linearGradient id="paint38_linear_140_1305" x1="64.696" y1="200.301" x2="78.4217" y2="218.061" gradientUnits="userSpaceOnUse">
<stop stop-color="#050101"/>
<stop offset="1"/>
</linearGradient>
<linearGradient id="paint39_linear_140_1305" x1="60.2114" y1="136.396" x2="69.1085" y2="137.167" gradientUnits="userSpaceOnUse">
<stop stop-color="#FFD9D9"/>
<stop offset="1" stop-color="#EFB4B4"/>
</linearGradient>
<linearGradient id="paint40_linear_140_1305" x1="60.4385" y1="151.728" x2="52.0002" y2="151.728" gradientUnits="userSpaceOnUse">
<stop stop-color="#FFAC06"/>
<stop offset="1" stop-color="#F25227"/>
</linearGradient>
<linearGradient id="paint41_linear_140_1305" x1="53.3805" y1="157.804" x2="71.1109" y2="157.804" gradientUnits="userSpaceOnUse">
<stop stop-color="#FFAC06"/>
<stop offset="1" stop-color="#F25227"/>
</linearGradient>
<linearGradient id="paint42_linear_140_1305" x1="84.7767" y1="156.156" x2="65.0152" y2="156.156" gradientUnits="userSpaceOnUse">
<stop stop-color="#FFAC06"/>
<stop offset="1" stop-color="#F25227"/>
</linearGradient>
<linearGradient id="paint43_linear_140_1305" x1="84.513" y1="160.926" x2="92.3081" y2="160.926" gradientUnits="userSpaceOnUse">
<stop stop-color="#FFD9D9"/>
<stop offset="1" stop-color="#EFB4B4"/>
</linearGradient>
</defs>
</svg>
