<svg width="372" height="214" viewBox="0 0 372 214" fill="none" xmlns="http://www.w3.org/2000/svg">
<g clip-path="url(#clip0_140_1199)">
<path opacity="0.6" d="M13.9066 211.613C13.9066 211.613 13.9447 211.629 13.9665 211.635C17.5126 213.057 21.3147 213.732 25.1386 213.732H339.917C344.394 213.373 348.365 212.964 351.797 212.501C376.603 209.15 381.805 167.354 348.893 155.269C313.58 142.301 324.757 130.902 320.868 112.208C312.577 72.3679 256.456 97.3008 235.697 97.8293C214.938 98.3633 217.563 51.1401 216 32.3369C212.754 -6.77875 167.096 -8.26622 147.328 16.3615C112.216 60.1085 87.41 36.1509 71.4009 49.6635C59.0904 60.054 63.4536 73.6374 65.371 77.9037C70.8998 90.2067 76.1563 99.2132 72.1091 113.865C60.1199 157.285 30.9779 137.419 8.14355 162.401C-9.09657 181.259 5.06049 208.039 13.9121 211.602L13.9066 211.613Z" fill="url(#paint0_linear_140_1199)"/>
<path d="M30.9727 213.466C135.693 212.758 253.177 212.752 357.898 213.466C253.177 214.18 135.693 214.174 30.9727 213.466Z" fill="#283034"/>
<path d="M85.6186 188.713C85.6186 188.713 86.5065 129.23 65.0013 121.706C41.7585 113.576 50.5828 158.724 60.9977 175.075C74.3159 195.981 85.7766 203.19 85.6186 188.707V188.713Z" fill="#B3CAFE"/>
<path d="M24.2343 139.948C24.2343 139.948 45.5598 145.881 54.8526 171.55C64.1508 197.218 22.3115 167.398 15.3937 156.762C8.47583 146.132 15.1594 138.787 24.2289 139.948H24.2343Z" fill="#B3CAFE"/>
<path d="M62.8819 135.07C62.8819 135.07 84.3708 187.933 82.911 212.555C82.911 212.555 49.3404 166.983 20.7539 148.425" stroke="#283034" stroke-linecap="round" stroke-linejoin="round"/>
<path d="M285.157 178.654C285.157 178.654 285.135 119.161 306.744 111.958C330.101 104.166 320.623 149.183 309.974 165.381C296.356 186.092 284.792 193.131 285.157 178.654Z" fill="#B3CAFE"/>
<path d="M350.5 122.539C350.5 122.539 329.093 128.162 319.424 153.694C309.756 179.221 352.02 150.01 359.09 139.478C366.161 128.946 359.586 121.509 350.495 122.539H350.5Z" fill="#B3CAFE"/>
<path d="M311.93 117.102C311.93 117.102 283.425 187.351 284.525 211.995C284.525 211.995 297.996 184.392 321.119 161.012C344.242 137.632 353.856 131.066 353.856 131.066" stroke="#283034" stroke-linecap="round" stroke-linejoin="round"/>
<path d="M101.606 89.9668H264.796C268.723 89.9668 271.915 93.1597 271.915 97.0881V199.272H94.4863V97.0881C94.4863 93.1597 97.6783 89.9668 101.606 89.9668Z" fill="#273237"/>
<path d="M102.95 96.0205H263.454C265.072 96.0205 266.385 97.3336 266.385 98.9519V205.325H100.014V98.9519C100.014 97.3336 101.326 96.0205 102.944 96.0205H102.95Z" fill="#315188"/>
<path d="M75.0879 199.277H291.311V203.233C291.311 208.796 286.796 213.318 281.229 213.318H85.1705C79.609 213.318 75.0879 208.802 75.0879 203.233V199.277Z" fill="#273237"/>
<path d="M160.391 199.277H206.01V203.593C206.01 206.148 203.935 208.224 201.38 208.224H165.021C162.466 208.224 160.391 206.148 160.391 203.593V199.277Z" fill="#1A2023"/>
<path d="M191.558 98.957H114.291V136.542H191.558V98.957Z" fill="#365DAD"/>
<path d="M191.558 153.853H114.291V197.54H191.558V153.853Z" fill="#365DAD"/>
<path d="M182.059 83.0635H52.8477C51.7075 83.0635 50.7832 83.988 50.7832 85.1285V147.88C50.7832 149.021 51.7075 149.945 52.8477 149.945H182.059C183.199 149.945 184.123 149.021 184.123 147.88V85.1285C184.123 83.988 183.199 83.0635 182.059 83.0635Z" fill="#EBEBEB"/>
<g style="mix-blend-mode:multiply">
<path d="M175.725 100.674H104.863V103.954H175.725V100.674Z" fill="#EBEBEB"/>
</g>
<g style="mix-blend-mode:multiply">
<path d="M175.725 113.102H104.863V116.382H175.725V113.102Z" fill="#EBEBEB"/>
</g>
<g style="mix-blend-mode:multiply">
<path d="M126.297 114.867H61.041V118.147H126.297V114.867Z" fill="#EBEBEB"/>
</g>
<g style="mix-blend-mode:multiply">
<path d="M126.297 120.011H55.4355V123.291H126.297V120.011Z" fill="#EBEBEB"/>
</g>
<g style="mix-blend-mode:multiply">
<path d="M175.725 106.188H104.863V109.468H175.725V106.188Z" fill="#EBEBEB"/>
</g>
<path d="M98.4994 95.4541C98.4994 95.4541 87.0278 99.1919 83.0841 104.493C79.1403 109.795 74.0527 149.951 74.0527 149.951H156.331C156.331 149.951 154.202 107.583 148.237 102.99C142.267 98.3964 131.901 95.6394 131.901 95.6394L98.4994 95.4541Z" fill="#0FB7C6"/>
<path d="M131.902 95.6334C129.244 94.4674 127.315 93.7373 127.315 93.7373L103.174 93.7482C103.174 93.7482 101.164 94.3748 98.5 95.4482L115.19 121.111C115.19 121.111 127.01 104.727 131.902 95.628V95.6334Z" fill="#92B6FF"/>
<path d="M115.196 114.339C115.196 114.339 126.477 96.7021 127.315 93.7381C125.534 93.2749 120.572 91.9019 120.572 91.9019L120.174 75.7031L110.103 75.7522L110.168 89.6952L110.103 91.9291L103.174 93.7435C103.702 96.3861 115.196 114.334 115.196 114.334V114.339Z" fill="url(#paint1_linear_140_1199)"/>
<g style="mix-blend-mode:multiply" opacity="0.5">
<path d="M126.298 93.4705C124.124 92.8875 120.573 91.9067 120.573 91.9067L120.175 75.708L110.103 75.757L110.169 89.7001L110.103 91.934L105.043 93.258C109.368 95.7698 116.613 97.9111 126.298 93.4651V93.4705Z" fill="#F0C2BF"/>
</g>
<path d="M132.502 65.0175C132.502 65.0175 137.001 64.5708 137.998 68.6191C139.017 72.76 132.246 73.7081 132.246 73.7081L132.508 65.0175H132.502Z" fill="url(#paint2_linear_140_1199)"/>
<g style="mix-blend-mode:multiply" opacity="0.5">
<g style="mix-blend-mode:multiply" opacity="0.3">
<path d="M131.842 66.5876C131.842 66.5876 135.736 65.9664 136.935 69.6987C136.935 69.6987 133.677 67.7154 131.607 69.3827L131.847 66.5876H131.842Z" fill="#DD8373"/>
</g>
</g>
<path d="M98.4407 65.165C98.4407 65.165 93.62 65.4974 93.315 69.6547C93.0045 73.9046 99.8406 73.7085 99.8406 73.7085L98.4407 65.165Z" fill="url(#paint3_linear_140_1199)"/>
<g style="mix-blend-mode:multiply">
<g style="mix-blend-mode:multiply" opacity="0.3">
<path d="M99.0345 66.6197C99.0345 66.6197 95.0908 66.6578 94.5352 70.5427C94.5352 70.5427 97.4167 68.0418 99.7372 69.3331L99.0345 66.6143V66.6197Z" fill="#DD8373"/>
</g>
</g>
<path d="M131.275 58.8938C129.99 55.5538 130.104 52.6115 128.644 50.6772C125.381 46.351 120.708 45.5283 120.708 45.5283C117.124 46.1004 113.033 43.5886 107.656 47.2174C104.753 49.1789 99.3115 50.0289 98.5107 60.8062C97.2416 77.8985 100.94 88.5669 115.903 88.5016C132.021 88.4307 136.107 71.4583 131.275 58.8938Z" fill="#F0C2BF"/>
<g style="mix-blend-mode:multiply" opacity="0.5">
<path d="M128.645 50.6772C125.382 46.351 120.708 45.5283 120.708 45.5283C117.124 46.1004 113.033 43.5886 107.657 47.2174C106.884 47.7404 105.93 48.1818 104.939 48.7539C103.828 50.0997 102.613 51.3311 101.044 52.2192C99.7968 54.0554 98.8218 56.7143 98.5167 60.8062C98.2934 63.7921 98.228 66.5763 98.3424 69.1426C105.576 69.4314 116.874 62.2882 122.076 58.4361C124.919 56.3275 127.321 55.5538 129.07 55.3249C129.244 58.0547 130.235 62.2556 132.866 68.6631C132.866 68.6631 132.975 68.5705 133.171 68.3471C133.079 65.1379 132.436 61.885 131.287 58.8883C130.001 55.5483 130.115 52.606 128.656 50.6718L128.645 50.6772Z" fill="#F0C2BF"/>
</g>
<path d="M116.994 77.4625C117.369 77.4625 117.783 77.4025 118.061 77.1791C118.274 77.0102 118.383 76.765 118.383 76.4708C118.383 75.5881 117.669 75.3048 117.201 75.1196C117.005 75.0433 116.781 74.9507 116.743 74.8635C116.607 74.5747 116.596 72.526 116.623 71.3055C116.623 71.202 116.542 71.1148 116.438 71.1094C116.313 71.1094 116.247 71.1911 116.242 71.2946C116.231 71.8395 116.187 74.5693 116.4 75.0215C116.503 75.2449 116.765 75.3484 117.059 75.4683C117.522 75.6535 118.001 75.8442 118.001 76.4708C118.001 76.6506 117.941 76.7868 117.822 76.8849C117.44 77.19 116.547 77.0756 116.231 77.0048C116.128 76.983 116.029 77.0484 116.002 77.1464C115.98 77.25 116.046 77.3535 116.144 77.3753C116.171 77.3807 116.547 77.4625 116.983 77.4625H116.994Z" fill="#283034"/>
<path d="M128.487 68.0418C128.749 67.4424 124.598 63.879 121.798 65.3502C119.325 66.6469 124.086 67.7367 126.499 68.1943C128.907 68.6466 128.487 68.0472 128.487 68.0472V68.0418Z" fill="#283034"/>
<path d="M102.705 67.8787C102.329 67.3502 105.641 62.9968 108.686 63.8522C111.377 64.6096 106.943 66.6637 104.682 67.6117C102.422 68.5544 102.705 67.8787 102.705 67.8787Z" fill="#283034"/>
<path d="M132.861 66.4131C132.861 66.4131 134.828 64.784 137.018 58.0386C139.207 51.2932 131.957 48.0894 130.781 48.2583C129.599 48.4272 126.63 51.2332 132.861 66.4131Z" fill="#283034"/>
<path d="M132.186 53.2593C132.186 53.2593 128.139 51.6847 122.071 56.1798C116.003 60.6749 101.617 69.6706 95.0965 66.0745C88.5763 62.4784 86.5555 52.5837 97.1174 51.2324C107.685 49.8812 105.659 36.8426 120.273 37.7417C131.821 38.45 130.612 52.1315 132.186 53.2593Z" fill="#283034"/>
<path d="M120.769 80.7318L110.076 80.6719C110.076 80.6719 111.394 84.6112 115.834 84.6766C120.061 84.742 120.763 80.7318 120.763 80.7318H120.769Z" fill="#F6FCF7"/>
<path d="M107.434 73.2675C108.298 73.2675 108.998 72.3014 108.998 71.1098C108.998 69.9182 108.298 68.9521 107.434 68.9521C106.571 68.9521 105.871 69.9182 105.871 71.1098C105.871 72.3014 106.571 73.2675 107.434 73.2675Z" fill="#283034"/>
<path d="M125.59 71.1098C125.59 72.303 124.892 73.2675 124.026 73.2675C123.16 73.2675 122.463 72.303 122.463 71.1098C122.463 69.9165 123.16 68.9521 124.026 68.9521C124.892 68.9521 125.59 69.9165 125.59 71.1098Z" fill="#283034"/>
<path d="M152.949 41.3712L118.545 49.9201C117.178 50.4595 115.577 50.514 114.068 50.0781L77.7247 36.353C76.5645 36.0152 76.4555 34.6422 77.5668 34.3316L113.883 25.385C114.961 25.0853 116.149 25.0635 117.298 25.3196L152.574 39.3661C153.734 39.6222 153.984 40.9626 152.949 41.3712Z" fill="#12A3AF"/>
<path d="M77.7251 36.353L77.8232 36.3912L113.883 27.5099C114.962 27.2102 116.149 27.1885 117.298 27.4445L152.536 41.4747L152.955 41.3712C153.99 40.9626 153.74 39.6277 152.579 39.3661L117.304 25.3196C116.155 25.0635 114.973 25.0853 113.889 25.385L77.5726 34.3316C76.4614 34.6422 76.5703 36.0152 77.7306 36.353H77.7251Z" fill="#0FB7C6"/>
<path d="M117.161 25.2974C116.056 25.0686 114.917 25.0958 113.877 25.3846L77.5609 34.3312C76.4497 34.6418 76.5586 36.0149 77.7189 36.3527L77.8169 36.3908L113.877 27.5096C114.917 27.2208 116.05 27.1935 117.161 27.4224V25.2974Z" fill="#0FB7C6"/>
<path d="M98.1195 37.5946L97.7109 51.2434C97.7109 51.2434 105.843 54.0767 118.377 54.0767C130.911 54.0767 133.019 51.6139 133.019 51.6139V39.3109C116.58 28.697 98.1195 37.5946 98.1195 37.5946Z" fill="#0FB7C6"/>
<path d="M85.1813 32.457L83.9121 52.6442" stroke="#E0AC19" stroke-miterlimit="10"/>
<path d="M83.9727 51.4831C83.9727 51.4831 83.2047 51.2924 82.8997 51.652C82.5946 52.0117 82.6763 52.7472 82.9977 52.8616C83.3191 52.9761 84.463 53.3793 84.8552 53.0578C85.2474 52.7363 85.0785 52.1697 85.0458 52.028C84.9696 51.6629 83.9673 51.4831 83.9673 51.4831H83.9727Z" fill="#E0AC19"/>
<path d="M83.1292 52.208C83.1292 52.208 81.2881 61.7649 81.555 62.119L81.8219 62.4732C81.8219 62.4732 81.3807 65.2629 81.2935 65.9658C81.2064 66.6686 81.6912 67.1536 82.0016 65.2575C82.3121 63.3559 81.1628 70.4391 81.4297 70.4554C81.6966 70.4718 81.8437 70.815 82.2141 69.8942C82.579 68.9734 83.3307 62.4296 83.3307 62.4296C83.3307 62.4296 83.3743 63.3995 83.6848 63.3995C83.9953 63.3995 84.5618 52.208 84.5618 52.208H83.1401H83.1292Z" fill="#E0AC19"/>
<path opacity="0.5" d="M95.4122 149.945C95.4122 149.945 94.1212 140.797 94.2628 140.388C94.7367 139.026 95.7335 142.797 95.7335 142.797C95.7335 142.797 94.8511 130.951 95.3795 130.837C95.9078 130.717 96.616 140.911 97.1443 139.795C97.6727 138.678 98.0268 133.872 98.8547 134.58C99.6772 135.289 96.1475 149.945 96.1475 149.945H95.4122Z" fill="#1698A4"/>
<path opacity="0.5" d="M133.373 149.946C133.373 149.946 132.801 146.393 133.373 146.333C133.945 146.273 134.207 147.805 134.468 147.69C134.73 147.57 133.417 138.084 134.076 137.73C134.735 137.376 135.04 144.802 135.743 144.802C136.446 144.802 136.663 141.604 137.192 141.789C137.72 141.975 136.576 149.946 136.576 149.946H133.373Z" fill="#1698A4"/>
<g style="mix-blend-mode:multiply">
<path d="M177.821 88.1581C178.672 88.1581 179.362 87.4678 179.362 86.6162C179.362 85.7646 178.672 85.0742 177.821 85.0742C176.969 85.0742 176.279 85.7646 176.279 86.6162C176.279 87.4678 176.969 88.1581 177.821 88.1581Z" fill="#EBEBEB"/>
</g>
<g style="mix-blend-mode:multiply">
<path d="M171.752 88.1581C172.604 88.1581 173.294 87.4678 173.294 86.6162C173.294 85.7646 172.604 85.0742 171.752 85.0742C170.901 85.0742 170.211 85.7646 170.211 86.6162C170.211 87.4678 170.901 88.1581 171.752 88.1581Z" fill="#EBEBEB"/>
</g>
<g style="mix-blend-mode:multiply">
<path d="M167.232 86.6162C167.232 87.4662 166.54 88.1581 165.69 88.1581C164.84 88.1581 164.148 87.4662 164.148 86.6162C164.148 85.7662 164.84 85.0742 165.69 85.0742C166.54 85.0742 167.232 85.7662 167.232 86.6162Z" fill="#EBEBEB"/>
</g>
<path d="M166.416 184.577H76.2549C72.9594 184.577 70.2903 181.907 70.2903 178.611V166.88L62.5391 159.601H166.416C169.711 159.601 172.38 162.27 172.38 165.567V178.611C172.38 181.907 169.711 184.577 166.416 184.577Z" fill="#0FB7C6"/>
<path d="M165.538 166.776H81.9355V168.482H165.538V166.776Z" fill="#92B6FF"/>
<path d="M159.42 171.238H78.541V172.944H159.42V171.238Z" fill="#92B6FF"/>
<path d="M165.989 175.695H89.0215V177.401H165.989V175.695Z" fill="#92B6FF"/>
<path d="M198.145 30.7734C190.317 30.7734 183.977 37.1211 183.977 44.9453C183.977 54.0826 192.768 61.9995 196.499 64.9526L196.211 66.184H198.15C198.15 66.184 212.318 55.6082 212.318 44.9453C212.318 37.1156 205.972 30.7734 198.15 30.7734H198.145ZM198.145 52.9657C194.005 52.9657 190.649 49.6093 190.649 45.4684C190.649 41.3274 194.005 37.9711 198.145 37.9711C202.284 37.9711 205.64 41.3274 205.64 45.4684C205.64 49.6093 202.284 52.9657 198.145 52.9657Z" fill="#0A49A5"/>
<path d="M196.205 30.7734C188.378 30.7734 182.037 37.1211 182.037 44.9453C182.037 56.5454 196.205 66.184 196.205 66.184C196.205 66.184 210.373 55.6082 210.373 44.9453C210.373 37.1156 204.027 30.7734 196.205 30.7734ZM196.205 52.9657C192.065 52.9657 188.71 49.6093 188.71 45.4684C188.71 41.3274 192.065 37.9711 196.205 37.9711C200.345 37.9711 203.7 41.3274 203.7 45.4684C203.7 49.6093 200.345 52.9657 196.205 52.9657Z" fill="#12A3AF"/>
<path d="M233.17 194.679H279.639C282.962 194.679 285.653 191.988 285.653 188.664V184.011" stroke="#283034" stroke-miterlimit="10"/>
<path d="M184.129 104.531H223.969C226.448 104.531 228.463 106.542 228.463 109.026V125.65" stroke="#283034" stroke-miterlimit="10"/>
<path d="M341.301 112.127H212.09C210.95 112.127 210.025 113.052 210.025 114.192V176.944C210.025 178.084 210.95 179.009 212.09 179.009H341.301C342.441 179.009 343.365 178.084 343.365 176.944V114.192C343.365 113.052 342.441 112.127 341.301 112.127Z" fill="#EBEBEB"/>
<g style="mix-blend-mode:multiply">
<path d="M230.995 117.75C230.995 118.6 230.303 119.292 229.454 119.292C228.604 119.292 227.912 118.6 227.912 117.75C227.912 116.9 228.604 116.208 229.454 116.208C230.303 116.208 230.995 116.9 230.995 117.75Z" fill="#EBEBEB"/>
</g>
<g style="mix-blend-mode:multiply">
<path d="M224.927 117.75C224.927 118.6 224.235 119.292 223.385 119.292C222.536 119.292 221.844 118.6 221.844 117.75C221.844 116.9 222.536 116.208 223.385 116.208C224.235 116.208 224.927 116.9 224.927 117.75Z" fill="#EBEBEB"/>
</g>
<g style="mix-blend-mode:multiply">
<path d="M218.86 117.75C218.86 118.6 218.169 119.292 217.319 119.292C216.469 119.292 215.777 118.6 215.777 117.75C215.777 116.9 216.469 116.208 217.319 116.208C218.169 116.208 218.86 116.9 218.86 117.75Z" fill="#EBEBEB"/>
</g>
<g style="mix-blend-mode:multiply">
<path d="M242.539 131.535H214.383V149.979H242.539V131.535Z" fill="#EBEBEB"/>
</g>
<g style="mix-blend-mode:multiply">
<path d="M242.539 153.607H214.383V160.407H242.539V153.607Z" fill="#EBEBEB"/>
</g>
<g style="mix-blend-mode:multiply">
<path d="M331.109 117.123H302.953V123.923H331.109V117.123Z" fill="#EBEBEB"/>
</g>
<path d="M334.399 133.087C334.399 133.087 339.525 115.232 338.501 109.451C337.477 103.67 337.7 99.5399 336.845 99.4201C335.782 99.2729 336.289 104.373 335.575 104.4C335.347 104.411 335.363 98.0525 333.958 98.0089C332.585 97.9653 333.664 104.378 333.222 104.569C332.781 104.754 332.236 97.7528 330.515 97.1262C329.453 96.7448 330.047 99.8015 330.352 102.39C330.64 104.831 330.896 106.253 330.597 106.334C330.406 106.389 329.453 99.5617 328.069 100.216C327.22 100.619 329.437 109.364 328.745 113.81C328.603 114.714 325.226 122.571 323.205 125.437L334.404 133.087H334.399Z" fill="#B78776"/>
<path d="M330.917 112.568C330.917 112.568 327.322 107.07 325.41 107.06C323.498 107.049 328.362 112.988 327.91 115.892C327.458 118.801 330.923 112.568 330.923 112.568H330.917Z" fill="#B78776"/>
<path d="M321.793 126.108L323.58 121.804C323.58 121.804 339.616 135.42 340.422 136.831L336.99 142.721L321.793 126.108Z" fill="#92B6FF"/>
<path d="M229.116 179.259H319.233C330.917 166.063 341.185 141.358 340.673 140.792C339.965 140.007 321.957 124.092 321.957 124.092C319.364 129.742 312.316 146.033 310.164 146.388C308.007 146.742 300.947 134.248 299.564 132.837C296.383 129.595 285.657 127.83 285.657 127.83L278.625 128.004L279.023 130.042L250.349 127.824H247.566C247.566 127.824 239.324 132.025 238.088 133.305C232.178 139.435 228.697 160.173 228.996 165.828C229.127 168.264 229.143 173.772 229.122 179.265L229.116 179.259Z" fill="#0FB7C6"/>
<path d="M291.605 128.984C288.479 128.211 285.651 127.824 285.651 127.824L278.619 127.998L279.017 130.036L250.343 127.818H247.56C247.56 127.818 244.814 129.148 242.26 130.554C246.607 134.825 258.4 145.744 267.948 148.381C267.948 148.381 284.655 136.858 291.611 128.979L291.605 128.984Z" fill="#92B6FF"/>
<path d="M271.702 82.105C271.702 82.105 254.14 88.7414 254.14 94.7458C254.14 100.75 260.088 123.204 260.088 123.204C260.088 123.204 249.058 120.098 248.383 119.75C247.707 119.401 251.335 112.732 249.26 106.395C247.184 100.058 242.238 94.3753 250.196 86.9052C257.605 79.9528 267.769 72.4337 271.702 82.105Z" fill="#283034"/>
<path d="M259.239 122.566C261.99 119.815 262.453 108.291 262.453 108.291H270.759C270.759 108.291 271.222 119.815 273.973 122.566C276.724 125.318 285.652 127.824 285.652 127.824L265.824 142.966C260.688 141.609 247.555 127.824 247.555 127.824C247.555 127.824 256.488 125.318 259.239 122.566Z" fill="url(#paint4_linear_140_1199)"/>
<path d="M254.75 99.3876C254.75 99.3876 249.63 93.6775 246.263 95.4374C242.897 97.1918 246.846 105.392 253.432 105.392C260.017 105.392 254.75 99.3931 254.75 99.3931V99.3876Z" fill="url(#paint5_linear_140_1199)"/>
<path d="M278.457 99.3876C278.457 99.3876 283.578 93.6775 286.944 95.4374C290.31 97.1918 286.361 105.392 279.776 105.392C273.19 105.392 278.457 99.3931 278.457 99.3931V99.3876Z" fill="url(#paint6_linear_140_1199)"/>
<path d="M250.801 101.73V93.7371C250.801 85.0084 257.877 77.9307 266.603 77.9307C275.33 77.9307 282.405 85.0084 282.405 93.7371V101.73C282.405 101.73 282.699 119.057 266.603 120.523C250.507 119.057 250.801 101.73 250.801 101.73Z" fill="#B78776"/>
<g style="mix-blend-mode:multiply" opacity="0.3">
<path d="M282.406 101.731V93.7376C282.406 90.6101 281.496 87.7006 279.927 85.2487C271.74 81.8814 261.603 77.5879 264.523 84.0772C267.835 91.4438 275.254 90.839 274.752 97.1212C273.619 111.342 276.261 113.641 275.711 117.085C282.564 111.615 282.406 101.736 282.406 101.736V101.731Z" fill="#B78776"/>
</g>
<path d="M265.307 107.67C264.958 107.67 264.571 107.61 264.315 107.403C264.119 107.245 264.016 107.016 264.016 106.744C264.016 105.926 264.675 105.659 265.111 105.485C265.29 105.414 265.497 105.333 265.535 105.251C265.661 104.984 265.672 103.077 265.65 101.943C265.65 101.845 265.726 101.764 265.824 101.764C265.944 101.764 266.004 101.84 266.004 101.938C266.015 102.445 266.053 104.978 265.857 105.403C265.759 105.61 265.519 105.708 265.241 105.817C264.811 105.992 264.364 106.166 264.364 106.749C264.364 106.918 264.419 107.043 264.533 107.131C264.887 107.414 265.721 107.31 266.009 107.245C266.107 107.223 266.2 107.283 266.222 107.381C266.243 107.479 266.184 107.572 266.086 107.594C266.058 107.599 265.71 107.675 265.307 107.675V107.67Z" fill="#283034"/>
<path d="M254.626 97.2032C254.386 96.6474 258.237 93.3347 260.841 94.7023C263.14 95.9064 258.711 96.9199 256.473 97.3449C254.234 97.7644 254.626 97.2086 254.626 97.2086V97.2032Z" fill="#283034"/>
<path d="M278.581 97.0562C278.93 96.5658 275.852 92.5229 273.025 93.3129C270.525 94.0158 274.643 95.9283 276.746 96.8055C278.848 97.6827 278.581 97.0562 278.581 97.0562Z" fill="#283034"/>
<path d="M261.793 110.705L271.729 110.65C271.729 110.65 270.503 114.312 266.374 114.372C262.447 114.432 261.793 110.705 261.793 110.705Z" fill="#F6FCF7"/>
<path d="M272.836 100.515C272.836 101.589 273.468 102.461 274.247 102.461C275.026 102.461 275.658 101.589 275.658 100.515C275.658 99.4421 275.026 98.5703 274.247 98.5703C273.468 98.5703 272.836 99.4421 272.836 100.515Z" fill="#283034"/>
<path d="M257.871 100.515C257.871 101.589 258.503 102.461 259.282 102.461C260.061 102.461 260.693 101.589 260.693 100.515C260.693 99.4421 260.061 98.5703 259.282 98.5703C258.503 98.5703 257.871 99.4421 257.871 100.515Z" fill="#283034"/>
<path d="M275.429 121.346L289.423 120.147C289.423 120.147 293.682 112.737 290.463 107.67C287.238 102.603 287.865 104.564 287.723 97.77C287.582 90.981 288.17 87.908 284.689 86.5404C276.306 83.244 262.77 76.7002 266.082 84.0722C269.394 91.4387 276.813 90.8339 276.311 97.1162C274.803 116.039 279.983 113.86 275.424 121.346H275.429Z" fill="#283034"/>
<path d="M304.837 79.3967L270.738 85.4664C269.371 85.9023 267.802 85.8533 266.364 85.3248L231.84 69.5565C230.729 69.1533 230.713 67.802 231.819 67.5732L267.808 61.2419C268.881 61.0185 270.036 61.0784 271.141 61.3999L304.603 77.4134C305.714 77.7403 305.872 79.0643 304.837 79.3912V79.3967Z" fill="#12A3AF"/>
<path d="M231.84 69.5565L231.933 69.6001L267.666 63.3124C268.739 63.0944 269.894 63.1489 271 63.4704L304.423 79.4675L304.837 79.3967C305.872 79.0698 305.714 77.7458 304.603 77.4189L271.141 61.4054C270.041 61.0784 268.881 61.024 267.808 61.2474L231.819 67.5786C230.713 67.8075 230.729 69.1533 231.84 69.5619V69.5565Z" fill="#0FB7C6"/>
<path d="M271.011 61.3786C269.948 61.0843 268.837 61.0353 267.808 61.2478L231.819 67.5791C230.713 67.8079 230.729 69.1537 231.84 69.5624L231.933 69.606L267.666 63.3183C268.701 63.1058 269.807 63.1548 270.869 63.449L271.011 61.3786Z" fill="#0FB7C6"/>
<path d="M251.64 72.1063L250.344 85.3846C250.344 85.3846 258.084 88.681 270.302 89.5037C282.52 90.3265 284.737 88.0707 284.737 88.0707L285.298 79.7779L285.548 76.0838C270.22 64.6526 251.646 72.1117 251.646 72.1117L251.64 72.1063Z" fill="#0FB7C6"/>
<path d="M239.362 66.249L236.797 85.8423" stroke="#E0AC19" stroke-miterlimit="10"/>
<path d="M236.932 84.7151C236.932 84.7151 236.197 84.4808 235.876 84.8077C235.554 85.1401 235.587 85.8593 235.892 85.9955C236.197 86.1317 237.286 86.5949 237.689 86.3061C238.093 86.0173 237.962 85.4506 237.945 85.3144C237.896 84.9548 236.932 84.7151 236.932 84.7151Z" fill="#E0AC19"/>
<path d="M236.061 85.3687C236.061 85.3687 233.637 94.566 233.871 94.9256L234.105 95.2852C234.105 95.2852 233.49 97.9768 233.359 98.6579C233.228 99.339 233.67 99.8457 234.094 98.0095C234.519 96.1788 232.934 103.006 233.19 103.039C233.446 103.071 233.572 103.415 233.991 102.543C234.41 101.666 235.571 95.3397 235.571 95.3397C235.571 95.3397 235.549 96.2878 235.854 96.3096C236.153 96.3314 237.444 85.4559 237.444 85.4559L236.061 85.3633V85.3687Z" fill="#E0AC19"/>
<path d="M247.985 179.259C247.985 179.259 246.466 169.861 246.782 169.861C247.097 169.861 247.985 171.424 247.985 171.424C247.985 171.424 246.651 165.267 247.364 164.853C248.078 164.439 248.819 173.718 249.02 174.018C249.222 174.312 249.995 171.457 250.742 171.424C251.488 171.397 249.195 179.259 249.195 179.259H247.985Z" fill="#1698A4"/>
<path d="M292.135 172.051L293.899 179.259C293.899 179.259 296.667 177.995 297.288 177.287C297.908 176.579 296.579 176.611 295.784 176.965C294.989 177.32 297.287 171.484 296.078 171.838C294.869 172.192 294.341 177.025 294.341 176.846C294.341 176.666 293.485 168.275 292.924 168.329C292.363 168.389 291.568 169.768 292.129 172.051H292.135Z" fill="#1698A4"/>
<path d="M299.004 100.837C299.963 99.8778 301.504 101.42 302.463 100.461C303.422 99.5018 301.88 97.9599 302.839 97.0009C303.797 96.042 305.339 97.5839 306.298 96.625C307.256 95.666 305.715 94.124 306.673 93.1651C307.632 92.2061 309.174 93.7426 310.138 92.7837C311.102 91.8247 309.56 90.2828 310.519 89.3184" stroke="#283034" stroke-width="2" stroke-miterlimit="10" stroke-linecap="round"/>
<path d="M158.609 69.8506C159.383 68.7336 161.175 69.9813 161.948 68.8644C162.722 67.7474 160.93 66.5051 161.703 65.3936C162.477 64.2821 164.269 65.5244 165.037 64.4074C165.805 63.2904 164.018 62.0481 164.792 60.9366C165.565 59.8251 167.357 61.0619 168.131 59.945C168.904 58.828 167.118 57.5857 167.891 56.4688" stroke="#12A3AF" stroke-width="2" stroke-miterlimit="10"/>
<path d="M299.33 199.882C300.474 199.157 301.64 200.999 302.789 200.274C303.938 199.55 302.773 197.708 303.917 196.983C305.06 196.259 306.226 198.1 307.375 197.376C308.525 196.651 307.359 194.809 308.503 194.085C309.647 193.36 310.818 195.202 311.962 194.477C313.106 193.752 311.946 191.911 313.095 191.181" stroke="#12A3AF" stroke-width="2" stroke-miterlimit="10"/>
<path d="M31.5879 131.519C32.759 132.2 31.6696 134.085 32.8407 134.766C34.0119 135.447 35.1067 133.562 36.2779 134.237C37.449 134.913 36.3596 136.804 37.5307 137.485C38.7018 138.166 39.7967 136.281 40.9733 136.962C42.1499 137.643 41.055 139.528 42.2316 140.209C43.4081 140.89 44.4976 139.005 45.6741 139.686" stroke="#283034" stroke-width="2" stroke-miterlimit="10" stroke-linecap="round"/>
<path d="M223.386 84.5945C225.332 84.5945 226.91 83.0161 226.91 81.0692C226.91 79.1222 225.332 77.5439 223.386 77.5439C221.439 77.5439 219.861 79.1222 219.861 81.0692C219.861 83.0161 221.439 84.5945 223.386 84.5945Z" stroke="#283034" stroke-width="2" stroke-miterlimit="10" stroke-linecap="round"/>
<path d="M62.9528 208.54C62.9528 209.597 62.0976 210.453 61.0408 210.453C59.9841 210.453 59.1289 209.597 59.1289 208.54C59.1289 207.483 59.9841 206.628 61.0408 206.628C62.0976 206.628 62.9528 207.483 62.9528 208.54Z" stroke="#283034" stroke-width="2" stroke-miterlimit="10" stroke-linecap="round"/>
<path d="M358.704 164.842C358.704 166.564 357.31 167.959 355.588 167.959C353.867 167.959 352.473 166.564 352.473 164.842C352.473 163.12 353.867 161.726 355.588 161.726C357.31 161.726 358.704 163.12 358.704 164.842Z" stroke="#283034" stroke-width="2" stroke-miterlimit="10" stroke-linecap="round"/>
</g>
<defs>
<linearGradient id="paint0_linear_140_1199" x1="286.747" y1="84.1968" x2="196.071" y2="142.082" gradientUnits="userSpaceOnUse">
<stop stop-color="white" stop-opacity="0"/>
<stop offset="0.11" stop-color="#FDFDFD" stop-opacity="0.27"/>
<stop offset="0.24" stop-color="#FBFBFB" stop-opacity="0.56"/>
<stop offset="0.35" stop-color="#FAFAFA" stop-opacity="0.76"/>
<stop offset="0.43" stop-color="#F9F9F9" stop-opacity="0.89"/>
<stop offset="0.48" stop-color="#F9F9F9" stop-opacity="0.94"/>
<stop offset="0.68" stop-color="#F6F6F6" stop-opacity="0.98"/>
<stop offset="1" stop-color="#F5F5F5"/>
</linearGradient>
<linearGradient id="paint1_linear_140_1199" x1="123.394" y1="77.1307" x2="114.789" y2="91.7418" gradientUnits="userSpaceOnUse">
<stop stop-color="#E2948F"/>
<stop offset="1" stop-color="#F0C2BF"/>
</linearGradient>
<linearGradient id="paint2_linear_140_1199" x1="131.712" y1="68.6845" x2="135.122" y2="70.1658" gradientUnits="userSpaceOnUse">
<stop stop-color="#E2948F"/>
<stop offset="1" stop-color="#F0C2BF"/>
</linearGradient>
<linearGradient id="paint3_linear_140_1199" x1="99.699" y1="69.2461" x2="96.387" y2="70.1119" gradientUnits="userSpaceOnUse">
<stop stop-color="#E2948F"/>
<stop offset="1" stop-color="#F0C2BF"/>
</linearGradient>
<linearGradient id="paint4_linear_140_1199" x1="264.844" y1="116.518" x2="266.435" y2="126.729" gradientUnits="userSpaceOnUse">
<stop stop-color="#8C5D4A"/>
<stop offset="1" stop-color="#B78776"/>
</linearGradient>
<linearGradient id="paint5_linear_140_1199" x1="255.54" y1="100.314" x2="243.393" y2="100.145" gradientUnits="userSpaceOnUse">
<stop stop-color="#8C5D4A"/>
<stop offset="0.68" stop-color="#B78776"/>
</linearGradient>
<linearGradient id="paint6_linear_140_1199" x1="288.268" y1="100.292" x2="280.996" y2="100.232" gradientUnits="userSpaceOnUse">
<stop offset="0.32" stop-color="#B78776"/>
<stop offset="1" stop-color="#8C5D4A"/>
</linearGradient>
<clipPath id="clip0_140_1199">
<rect width="372" height="214" fill="white"/>
</clipPath>
</defs>
</svg>
