<svg width="345" height="187" viewBox="0 0 345 187" fill="none" xmlns="http://www.w3.org/2000/svg">
<g clip-path="url(#clip0_140_1545)">
<path opacity="0.25" d="M345.001 182.926C345.001 180.685 343.177 178.852 340.949 178.852H6.37773C4.14949 178.852 2.32617 180.685 2.32617 182.926C2.32617 185.166 4.14949 187 6.37773 187H340.949C343.177 187 345.001 185.166 345.001 182.926Z" fill="#BCBCBC"/>
<path d="M55.9965 164.927V164.92C53.6438 163.435 51.359 161.824 49.1647 160.113C49.1647 160.113 48.477 159.611 47.0677 158.421C46.9025 158.284 46.7374 158.15 46.5745 158.011C46.5655 158.005 46.5632 157.993 46.5541 157.986C46.1854 157.67 45.7805 157.32 45.3303 156.926C45.3145 156.917 45.2964 156.908 45.2805 156.895C45.0973 156.733 44.9186 156.567 44.7354 156.403C44.5589 156.246 44.3779 156.087 44.1924 155.919V155.91C42.4279 154.303 40.7223 152.616 39.1048 150.871C39.0505 150.812 39.0188 150.732 39.0256 150.65C39.0912 149.244 39.1998 147.791 39.3491 146.333C39.3582 146.246 39.4034 146.164 39.4758 146.114L39.5256 146.08C41.2358 144.874 44.2015 137.977 46.0859 132.006C47.1129 128.632 47.2916 126.476 46.6265 125.413C46.2963 124.883 45.7398 124.576 44.8779 124.442C43.7649 124.301 42.713 124.576 41.747 125.256C40.2517 126.312 38.9849 128.327 37.985 131.244C36.1617 136.303 37.001 143.484 38.4375 145.671C38.4759 145.727 38.4918 145.8 38.485 145.868C38.3628 147.015 38.2723 148.075 38.2045 149.11C38.1977 149.203 38.1524 149.285 38.0778 149.338C38.0552 149.356 38.0303 149.367 38.0031 149.376C37.8878 149.417 37.7588 149.383 37.6796 149.29C35.4401 146.747 33.3317 144.042 31.4111 141.248C31.3659 141.182 31.3478 141.098 31.3636 141.018C31.7821 138.851 32.2843 136.715 32.8567 134.669C32.8793 134.59 32.8318 134.506 32.7526 134.483L32.4608 134.401C32.4223 134.39 32.3816 134.394 32.3454 134.415C32.3409 134.417 32.3364 134.419 32.3318 134.421C32.3024 134.442 32.2821 134.472 32.273 134.506C31.8002 136.198 31.3727 137.954 31.0039 139.726C30.9881 139.804 30.9451 139.867 30.8818 139.913C30.8456 139.938 30.8071 139.956 30.7642 139.965C30.6465 139.988 30.5244 139.938 30.4565 139.833C28.8006 137.317 27.2578 134.676 25.8711 131.985C25.8326 131.912 25.8281 131.828 25.853 131.751C26.2896 130.416 26.7805 129.042 27.3121 127.672C27.3324 127.615 27.3709 127.567 27.4207 127.533C27.4455 127.515 27.4727 127.501 27.5021 127.492C27.7283 127.422 28.0043 127.272 28.321 127.049C30.547 125.477 34.1755 120.754 36.3947 117.094C37.9511 114.48 38.5347 112.66 38.1796 111.53C37.9918 110.934 37.5416 110.495 36.7612 110.145C35.3699 109.555 33.9357 109.771 32.5015 110.784C31.427 111.541 30.3524 112.754 29.3118 114.385C26.733 118.304 25.914 124.506 26.6221 126.771C26.6425 126.837 26.6402 126.91 26.6131 126.974C26.19 128.047 25.819 129.051 25.4752 130.04C25.4526 130.099 25.4164 130.152 25.3643 130.188C25.3168 130.22 25.2648 130.24 25.2083 130.243C25.0861 130.249 24.973 130.183 24.9187 130.072C23.3623 126.851 21.9937 123.498 20.8558 120.104C20.8309 120.029 20.8377 119.942 20.8717 119.869C21.6566 118.295 22.4846 116.76 23.3352 115.306C23.3759 115.236 23.3533 115.142 23.2809 115.099L23.023 114.944C22.9868 114.924 22.9461 114.919 22.9076 114.928C22.8895 114.933 22.8737 114.94 22.8601 114.951C22.842 114.963 22.8284 114.979 22.8149 114.999C22.1566 116.13 21.5073 117.315 20.8807 118.518C20.8581 118.561 20.8264 118.598 20.7857 118.627C20.7269 118.668 20.6567 118.687 20.5866 118.682C20.4645 118.673 20.3627 118.589 20.3265 118.47C19.7066 116.491 19.1592 114.505 18.7022 112.563C18.6841 112.485 18.6954 112.401 18.7384 112.333C19.5981 110.936 20.5188 109.544 21.4689 108.188C21.4892 108.161 21.5141 108.136 21.5413 108.118C21.5684 108.097 21.5978 108.084 21.6295 108.074C22.3624 107.854 23.4551 107.249 24.7083 106.364C26.5135 105.09 28.5269 103.331 29.9633 101.778C31.5604 100.026 32.3296 98.6248 32.2459 97.6102C32.2006 97.0461 31.9066 96.5706 31.3252 96.1088C30.0154 95.1056 28.4386 95.2399 26.6379 96.5115C26.052 96.9232 25.4413 97.4601 24.8192 98.1061C22.0751 100.9 20.3242 105.877 20.6341 107.644C20.65 107.724 20.6319 107.806 20.5844 107.872C19.9238 108.816 19.3356 109.692 18.7814 110.554C18.761 110.588 18.7339 110.615 18.7022 110.638C18.6344 110.684 18.5529 110.704 18.4738 110.688C18.3539 110.665 18.2588 110.572 18.234 110.452C17.3902 106.427 16.8337 102.301 16.578 98.1903C16.5735 98.1175 16.5961 98.0447 16.6414 97.9856C17.8222 96.4546 19.1501 91.5273 19.4849 87.4417C19.8808 82.0163 18.1322 81.1223 16.7839 80.9221C16.0849 80.8106 15.456 80.9494 14.9153 81.3315C13.7435 82.1573 13.0129 84.1228 12.8002 87.0141C12.4473 91.4568 14.2231 96.7208 15.5917 98.1016C15.6438 98.1539 15.6732 98.2222 15.6777 98.2949C15.9424 102.44 16.517 106.616 17.3879 110.706C17.4151 110.827 17.3653 110.948 17.268 111.018C17.1639 111.091 17.0305 111.091 16.9287 111.023C16.0216 110.424 15.0714 109.767 14.1077 109.066C14.0444 109.021 14.0014 108.955 13.9879 108.877C13.6304 107.012 10.5539 102.51 7.40266 99.2413C4.81473 96.6116 2.81044 95.7653 1.44861 96.7253C1.20203 96.9005 0.964503 97.1371 0.745072 97.4305C-0.813567 99.4847 0.104876 102.344 3.26287 105.279C6.46838 108.272 11.4452 109.935 13.3273 109.721C13.4019 109.712 13.4766 109.731 13.5377 109.776C14.9357 110.791 16.3473 111.748 17.734 112.626C17.8019 112.67 17.8494 112.736 17.8675 112.811C18.3561 114.844 18.9194 116.876 19.5438 118.848C19.58 118.966 19.5438 119.094 19.451 119.171L19.4465 119.176C19.3334 119.255 19.2157 119.262 19.1162 119.21C17.863 118.555 16.6052 117.849 15.3723 117.119C15.3203 117.09 15.2569 117.092 15.2094 117.126C15.1913 117.137 15.1778 117.153 15.1664 117.171L15.0126 117.433C14.9923 117.467 14.9855 117.508 14.9968 117.547C15.0081 117.585 15.033 117.62 15.0669 117.64C16.6414 118.573 18.2769 119.469 19.9283 120.302C19.9985 120.338 20.0527 120.399 20.0776 120.475C21.2359 123.891 22.6158 127.26 24.1767 130.486C24.2287 130.595 24.2129 130.727 24.1315 130.818C24.1156 130.836 24.0975 130.852 24.0794 130.866C24.0002 130.921 23.8984 130.936 23.808 130.905C22.7628 130.545 21.6725 130.143 20.5685 129.708C20.5052 129.683 20.4532 129.638 20.417 129.581C19.037 127.249 13.8431 122.981 9.61733 120.202C5.99332 117.877 3.41444 117.222 1.9576 118.252C1.521 118.559 1.17262 119.01 0.894376 119.631C-0.435784 122.506 1.59113 125.841 6.32134 128.548C11.5673 131.573 18.9352 131.94 20.4803 130.85L20.5278 130.814C20.6092 130.757 20.7156 130.743 20.8083 130.78C22.2177 131.321 23.6134 131.817 24.9549 132.251C25.0295 132.274 25.0929 132.329 25.1313 132.401C26.5316 135.124 28.0993 137.809 29.7914 140.379C29.8593 140.482 29.8593 140.614 29.7914 140.716C29.7711 140.746 29.7439 140.773 29.7145 140.796C29.6466 140.843 29.5629 140.859 29.4838 140.846C27.631 140.473 25.7851 140.033 23.9935 139.542C23.9482 139.531 23.903 139.54 23.869 139.565C23.8396 139.583 23.8193 139.613 23.8102 139.649L23.731 139.94C23.7197 139.979 23.7243 140.02 23.7446 140.056C23.765 140.09 23.7967 140.118 23.8351 140.127C26.0339 140.73 28.2961 141.248 30.5538 141.671C30.6329 141.685 30.7031 141.731 30.7483 141.796C32.3092 144.069 33.9742 146.264 35.6957 148.321C36.0916 148.794 36.5372 149.31 37.053 149.899C37.1344 149.993 37.1525 150.122 37.0983 150.234C37.0756 150.279 37.0417 150.32 37.001 150.35C36.9444 150.389 36.8766 150.409 36.8087 150.407C35.7274 150.341 34.5804 150.247 33.4019 150.129C33.3363 150.122 33.2729 150.093 33.2231 150.047C31.1623 148.057 24.2242 145.006 18.4398 143.02C14.1982 141.626 11.3049 141.444 9.83902 142.477C9.1943 142.932 8.79842 143.628 8.62876 144.599C7.99082 148.043 11.2257 151.085 17.2793 152.738C23.4732 154.451 30.9655 153.202 33.205 151.624C33.3996 151.485 33.5489 151.349 33.6462 151.219C33.6665 151.192 33.6891 151.169 33.7163 151.151C33.7751 151.11 33.8452 151.091 33.9176 151.098C35.4107 151.237 36.8766 151.339 38.2768 151.396C38.3583 151.399 38.4307 151.435 38.485 151.492C40.1748 153.321 41.9619 155.084 43.8079 156.76C44.8507 157.684 46.8482 159.413 48.3662 160.628C50.4836 162.297 52.6846 163.871 54.9491 165.332C56.0146 166.005 58.3152 167.402 59.9281 168.31C60.2358 168.48 60.5457 168.644 60.8556 168.81L61.118 167.939C59.254 166.958 57.5257 165.928 56.0033 164.934L55.9965 164.927Z" fill="#B0C9ED"/>
<path d="M23.6693 140.634C24.2054 140.257 24.3434 139.481 23.986 138.867C23.6173 138.232 22.83 137.984 22.2374 138.316C22.2012 138.337 22.1672 138.357 22.1356 138.38C21.6175 138.744 21.4954 139.513 21.8528 140.127C22.0519 140.468 22.3708 140.714 22.7305 140.803C23.0404 140.88 23.3549 140.832 23.6128 140.673C23.6331 140.66 23.6512 140.648 23.6693 140.634Z" fill="#007D9A"/>
<path d="M14.9973 117.851C15.4452 117.535 15.642 116.944 15.4904 116.375C15.2981 115.665 14.6036 115.217 13.9453 115.379C13.8119 115.411 13.6897 115.467 13.5766 115.547C13.1378 115.856 12.9477 116.45 13.1016 117.026C13.2034 117.406 13.4499 117.729 13.7712 117.908C14.0517 118.065 14.3661 118.104 14.6579 118.015C14.7801 117.979 14.8932 117.924 14.9973 117.851Z" fill="#007D9A"/>
<path d="M33.4803 134.533C34.0097 134.16 34.2042 133.489 33.9237 133.006C33.6274 132.499 32.9035 132.356 32.3063 132.688C32.2633 132.711 32.2203 132.738 32.1818 132.765C31.6683 133.127 31.5009 133.771 31.7882 134.264C31.9285 134.505 32.1615 134.676 32.442 134.744C32.761 134.824 33.1139 134.763 33.4102 134.581C33.4351 134.565 33.4577 134.549 33.4803 134.533Z" fill="#007D9A"/>
<path d="M24.0901 115.268C24.5041 114.974 24.7031 114.478 24.5832 114.037C24.4249 113.445 23.7553 113.097 23.0947 113.261C22.9364 113.298 22.7916 113.364 22.6649 113.455C22.2555 113.743 22.0722 114.228 22.1966 114.69C22.2736 114.976 22.4613 115.218 22.726 115.363C23.011 115.525 23.3639 115.559 23.6919 115.463C23.8367 115.42 23.9702 115.354 24.0923 115.27L24.0901 115.268Z" fill="#007D9A"/>
<path d="M19.0479 172.429C19.0479 172.429 14.7045 166.31 20.4052 162.165C26.115 158.018 31.5057 165.698 31.5057 165.698C31.5057 165.698 35.0076 157.5 40.8553 160.37C50.4786 165.095 41.7624 183.21 41.966 183.346H13.0011C11.947 181.997 11.3226 180.416 11.3611 178.64C11.5352 170.489 19.0479 172.429 19.0479 172.429Z" fill="#89ACE8"/>
<path d="M34.9786 183.347H35.5622L35.6844 183.306C37.9013 176.331 37.2769 168.767 37.2679 168.674C37.252 168.492 37.0937 168.358 36.9127 168.374C36.7317 168.39 36.5983 168.549 36.6141 168.731C36.6232 168.824 37.2475 176.449 34.9763 183.347H34.9786ZM17.9647 179.316C18.019 179.35 21.2268 181.415 25.6018 183.347H27.2826C22.2561 181.295 18.3787 178.799 18.3199 178.761C18.1683 178.661 17.9647 178.706 17.8675 178.859C17.7679 179.013 17.8132 179.216 17.9647 179.316ZM24.4911 168.349C24.5567 168.44 29.7461 175.697 31.954 183.344H32.6349C30.4135 175.501 25.0906 168.053 25.0227 167.962C24.9164 167.814 24.7105 167.782 24.5635 167.889C24.4165 167.996 24.3848 168.201 24.4911 168.349ZM30.2144 183.347H30.9293C27.4297 180.03 23.9934 176.506 23.9391 176.449C23.8441 176.352 23.688 176.349 23.5908 176.447C23.4935 176.543 23.4935 176.697 23.5862 176.798C23.6383 176.852 26.837 180.132 30.2122 183.349L30.2144 183.347ZM33.3249 183.347H33.8158C34.2524 178.06 33.0987 173.076 33.0829 173.005C33.0512 172.871 32.9177 172.792 32.7865 172.823C32.6553 172.853 32.5739 172.989 32.6033 173.121C32.6214 173.192 33.7638 178.14 33.3249 183.349V183.347Z" fill="url(#paint0_linear_140_1545)"/>
<path style="mix-blend-mode:color-burn" d="M31.2397 173.519C31.5791 166.121 36.8386 164.775 41.0644 163.689C42.0846 163.428 42.9917 163.184 43.7971 162.909C48.3056 169.618 41.7928 183.226 41.967 183.344H35.1307L34.6126 182.671C32.2374 179.588 31.1017 176.508 31.2397 173.519Z" fill="url(#paint1_linear_140_1545)"/>
<path d="M112.822 183.346C116.967 175.987 125.251 173.36 129.221 177.477C131.017 179.34 130.902 181.485 130.164 183.346H112.822Z" fill="#89ACE8"/>
<path style="mix-blend-mode:color-burn" d="M122.222 175.782C122.113 177.882 121.305 180.173 119.799 182.636L119.367 183.346H112.822C115.148 179.215 118.781 176.574 122.222 175.782Z" fill="url(#paint2_linear_140_1545)"/>
<path d="M99.575 175.528C97.4034 178.426 96.4261 181.099 96.0664 183.344H118.537C120.283 180.485 121.466 177.138 120.254 174.176C117.424 167.259 105.708 167.343 99.575 175.528Z" fill="#B0C9ED"/>
<path style="mix-blend-mode:color-burn" d="M108.379 169.604C106.782 175.992 100.507 182.139 99.6697 182.937L99.2422 183.344H96.0684C96.428 181.099 97.4053 178.426 99.577 175.528C101.955 172.357 105.169 170.408 108.379 169.604Z" fill="url(#paint3_linear_140_1545)"/>
<path d="M75.334 183.346H98.0372C102.148 179.429 111.843 167.832 103.138 162.099C93.3635 155.662 80.0235 168.198 75.334 183.346Z" fill="#89ACE8"/>
<path style="mix-blend-mode:color-burn" d="M93.8864 160.931C95.0673 161.417 96.0649 162.38 96.7458 163.731C98.6732 167.557 98.2411 175.105 92.7417 182.637L92.2237 183.347H75.332C78.6393 172.66 86.2538 163.274 93.8864 160.933V160.931Z" fill="url(#paint4_linear_140_1545)"/>
<path d="M35.9756 183.346C34.1025 180.914 32.8312 178.192 32.9624 175.339C33.4782 164.133 46.9404 169.909 49.4763 161.574C51.2928 155.602 42.9567 146.574 54.3422 141.499C63.547 137.395 66.9607 150.921 74.5095 149.36C82.0562 147.798 84.5332 147.14 87.8157 151.938C90.7701 156.253 85.4132 164.481 91.8152 164.051C96.706 163.724 98.3846 173.71 91.3469 183.346H35.9734H35.9756Z" fill="#FFAC06"/>
<path d="M46.7582 181.768C47.0274 181.843 49.4887 182.519 52.8978 183.347H57.4448C51.8142 182.1 47.1202 180.81 47.0274 180.785C46.756 180.71 46.4777 180.87 46.4031 181.143C46.3284 181.413 46.489 181.695 46.7582 181.768ZM80.8877 175.578C80.8515 175.638 78.1369 180.183 75.4313 183.347H76.757C79.2974 180.224 81.6206 176.331 81.7586 176.102C81.9011 175.86 81.8242 175.547 81.5822 175.403C81.3424 175.258 81.0302 175.337 80.8877 175.581V175.578ZM55.8703 173.663C55.9449 173.681 63.2631 175.531 69.6831 176.02C70.5201 178.397 71.3051 180.854 71.9996 183.347H73.0492C72.6715 181.977 72.2688 180.617 71.8435 179.275C79.7385 167.983 82.1228 156.413 82.1477 156.297C82.202 156.022 82.0256 155.753 81.7496 155.699C81.4759 155.642 81.2067 155.821 81.1524 156.097C81.1297 156.208 78.8676 167.155 71.4476 178.06C71.1603 177.189 70.864 176.325 70.5631 175.471C70.5541 175.399 70.5292 175.333 70.493 175.274C69.941 173.722 69.3664 172.203 68.785 170.731C71.9679 166.445 73.6374 161.449 73.7075 161.236C73.7958 160.967 73.651 160.678 73.3863 160.592C73.1216 160.503 72.8321 160.646 72.7439 160.915C72.728 160.963 71.1875 165.574 68.3371 169.616C67.8937 168.522 67.4481 167.455 67.0025 166.422C66.9889 166.345 66.9572 166.274 66.912 166.213C66.403 165.037 65.8962 163.904 65.3963 162.821C67.0386 159.063 68.6199 153.674 68.6335 153.619C68.7127 153.349 68.5588 153.064 68.2896 152.987C68.0204 152.907 67.7399 153.062 67.6607 153.333C67.6449 153.383 66.3034 157.967 64.8195 161.581C61.5574 154.634 58.8224 150.034 58.7636 149.936C58.6188 149.695 58.3066 149.618 58.0691 149.761C57.8293 149.907 57.7524 150.221 57.8972 150.462C57.9651 150.576 61.6909 156.843 65.6293 165.81L55.592 163.717C55.3183 163.661 55.0491 163.838 54.9926 164.113C54.936 164.388 55.1125 164.659 55.3862 164.716L66.1293 166.957C67.206 169.461 68.2896 172.157 69.3076 174.971C63.0889 174.441 56.1915 172.698 56.1191 172.68C55.8477 172.612 55.5717 172.776 55.5038 173.049C55.4359 173.322 55.5988 173.599 55.8703 173.668V173.663ZM88.785 173.301C88.7533 173.37 86.6133 178.035 83.1272 183.347H84.3375C87.6561 178.197 89.6762 173.793 89.7079 173.727C89.8233 173.47 89.7124 173.167 89.4568 173.051C89.2035 172.935 88.9003 173.046 88.785 173.304V173.301Z" fill="url(#paint5_linear_140_1545)"/>
<path d="M289.005 151.437V151.431C291.357 149.945 293.642 148.334 295.836 146.624C295.836 146.624 296.524 146.121 297.933 144.931C298.099 144.795 298.264 144.661 298.427 144.522C298.436 144.515 298.438 144.506 298.447 144.497C298.816 144.181 299.221 143.83 299.671 143.437C299.687 143.428 299.705 143.419 299.721 143.405C299.904 143.243 300.083 143.077 300.266 142.914C300.442 142.757 300.623 142.597 300.809 142.429V142.42C302.573 140.812 304.279 139.126 305.896 137.381C305.951 137.322 305.98 137.242 305.976 137.161C305.91 135.755 305.801 134.299 305.652 132.841C305.643 132.754 305.598 132.672 305.525 132.622L305.476 132.588C303.765 131.382 300.8 124.485 298.915 118.514C297.888 115.14 297.71 112.984 298.375 111.921C298.705 111.394 299.261 111.084 300.123 110.95C301.236 110.809 302.288 111.082 303.254 111.764C304.749 112.82 306.016 114.835 307.016 117.752C308.839 122.811 308 129.993 306.564 132.179C306.525 132.236 306.509 132.308 306.516 132.377C306.638 133.523 306.729 134.583 306.797 135.618C306.803 135.711 306.849 135.793 306.923 135.846C306.946 135.862 306.971 135.873 306.998 135.884C307.113 135.925 307.242 135.891 307.322 135.798C309.561 133.255 311.669 130.55 313.59 127.756C313.635 127.688 313.653 127.606 313.638 127.527C313.219 125.359 312.717 123.223 312.144 121.178C312.122 121.098 312.169 121.014 312.249 120.991L312.54 120.909C312.579 120.898 312.62 120.902 312.656 120.921C312.66 120.923 312.665 120.925 312.669 120.927C312.699 120.948 312.719 120.977 312.728 121.012C313.201 122.704 313.628 124.46 313.997 126.232C314.013 126.31 314.056 126.373 314.119 126.419C314.156 126.444 314.194 126.46 314.237 126.471C314.355 126.494 314.477 126.444 314.545 126.339C316.201 123.823 317.743 121.182 319.13 118.491C319.169 118.418 319.173 118.334 319.148 118.257C318.712 116.921 318.221 115.547 317.689 114.178C317.669 114.121 317.63 114.073 317.58 114.039C317.556 114.021 317.528 114.007 317.499 113.998C317.273 113.928 316.997 113.778 316.68 113.555C314.454 111.983 310.826 107.26 308.606 103.6C307.05 100.986 306.466 99.1663 306.822 98.0358C307.007 97.4397 307.46 96.9984 308.24 96.6504C309.631 96.0612 311.065 96.2773 312.5 97.2896C313.574 98.0471 314.649 99.2596 315.689 100.891C318.268 104.81 319.087 111.011 318.379 113.277C318.359 113.343 318.361 113.416 318.388 113.48C318.811 114.553 319.182 115.556 319.526 116.546C319.549 116.605 319.585 116.657 319.637 116.694C319.684 116.726 319.736 116.746 319.793 116.748C319.915 116.755 320.028 116.689 320.082 116.578C321.639 113.357 323.007 110.004 324.145 106.61C324.172 106.535 324.163 106.448 324.129 106.375C323.345 104.801 322.517 103.266 321.666 101.812C321.625 101.739 321.648 101.648 321.72 101.605L321.978 101.45C322.014 101.43 322.055 101.425 322.094 101.434C322.112 101.439 322.127 101.446 322.141 101.457C322.159 101.468 322.173 101.484 322.186 101.505C322.845 102.635 323.494 103.821 324.12 105.024C324.143 105.067 324.175 105.104 324.215 105.133C324.274 105.174 324.344 105.192 324.415 105.188C324.537 105.179 324.638 105.095 324.675 104.976C325.295 102.997 325.842 101.011 326.299 99.0685C326.317 98.9912 326.306 98.907 326.263 98.8388C325.403 97.442 324.482 96.0498 323.53 94.694C323.51 94.6667 323.485 94.6417 323.458 94.6235C323.43 94.603 323.401 94.5894 323.369 94.5803C322.636 94.3596 321.544 93.7545 320.291 92.8696C318.483 91.5957 316.472 89.8373 315.036 88.2836C313.438 86.5319 312.669 85.1307 312.753 84.1161C312.798 83.5519 313.092 83.0765 313.674 82.6147C314.984 81.6115 316.56 81.7457 318.361 83.0173C318.947 83.4291 319.558 83.9659 320.18 84.612C322.924 87.4055 324.675 92.3828 324.365 94.1504C324.349 94.23 324.367 94.3119 324.415 94.3778C325.075 95.3219 325.663 96.1977 326.217 97.0599C326.24 97.094 326.265 97.1213 326.297 97.144C326.365 97.1895 326.446 97.21 326.525 97.1941C326.645 97.1713 326.74 97.0781 326.765 96.9575C327.609 92.9333 328.165 88.8068 328.421 84.6962C328.425 84.6234 328.403 84.5506 328.358 84.4914C327.177 82.9605 325.849 78.0332 325.514 73.9476C325.118 68.5221 326.867 67.6281 328.215 67.4279C328.916 67.3165 329.543 67.4552 330.084 67.8374C331.255 68.6632 331.986 70.6286 332.199 73.5199C332.552 77.9627 330.776 83.2266 329.407 84.6074C329.355 84.6598 329.326 84.728 329.321 84.8008C329.057 88.9455 328.482 93.1221 327.611 97.2123C327.584 97.3328 327.634 97.4534 327.731 97.5239C327.835 97.5967 327.966 97.599 328.07 97.5285C328.977 96.9302 329.927 96.2728 330.891 95.5721C330.954 95.5266 330.997 95.4606 331.011 95.3833C331.368 93.5179 334.445 89.0161 337.596 85.7471C340.184 83.1174 342.188 82.2712 343.55 83.2312C343.797 83.4063 344.034 83.6429 344.254 83.9364C345.812 85.9905 344.894 88.85 341.736 91.7845C338.531 94.7782 333.554 96.4411 331.672 96.2273C331.597 96.2182 331.522 96.2364 331.461 96.2819C330.063 97.2964 328.652 98.2541 327.265 99.1322C327.197 99.1754 327.149 99.2414 327.131 99.3165C326.643 101.35 326.08 103.382 325.455 105.354C325.419 105.472 325.455 105.6 325.548 105.677L325.552 105.681C325.666 105.761 325.783 105.768 325.883 105.716C327.136 105.06 328.394 104.355 329.627 103.625C329.679 103.595 329.742 103.598 329.789 103.632C329.808 103.643 329.821 103.659 329.832 103.677L329.986 103.939C330.007 103.973 330.013 104.014 330.002 104.055C329.991 104.094 329.966 104.128 329.932 104.148C328.358 105.081 326.722 105.977 325.071 106.81C325 106.846 324.946 106.908 324.921 106.983C323.763 110.399 322.383 113.768 320.822 116.994C320.77 117.103 320.786 117.235 320.867 117.326C320.883 117.345 320.901 117.36 320.919 117.374C320.999 117.431 321.1 117.445 321.191 117.413C322.236 117.053 323.326 116.651 324.43 116.216C324.494 116.191 324.546 116.146 324.582 116.089C325.962 113.757 331.156 109.49 335.382 106.71C339.006 104.385 341.584 103.73 343.041 104.76C343.478 105.067 343.826 105.518 344.105 106.139C345.435 109.014 343.408 112.349 338.678 115.056C333.432 118.082 326.064 118.448 324.519 117.358L324.471 117.322C324.39 117.265 324.283 117.251 324.191 117.288C322.781 117.829 321.388 118.325 320.044 118.759C319.969 118.782 319.906 118.837 319.868 118.907C318.467 121.63 316.9 124.315 315.207 126.885C315.14 126.988 315.14 127.119 315.207 127.222C315.228 127.251 315.255 127.279 315.284 127.301C315.352 127.349 315.436 127.365 315.515 127.351C317.368 126.978 319.214 126.539 321.005 126.048C321.051 126.034 321.096 126.046 321.13 126.071C321.159 126.089 321.18 126.119 321.189 126.155L321.268 126.446C321.279 126.485 321.275 126.526 321.254 126.562C321.234 126.596 321.202 126.621 321.164 126.633C318.965 127.235 316.703 127.754 314.445 128.177C314.366 128.191 314.296 128.236 314.251 128.302C312.69 130.575 311.025 132.772 309.303 134.827C308.907 135.3 308.462 135.816 307.946 136.405C307.864 136.499 307.846 136.628 307.901 136.74C307.923 136.785 307.957 136.826 307.998 136.856C308.052 136.894 308.122 136.915 308.19 136.91C309.272 136.844 310.418 136.751 311.597 136.633C311.663 136.626 311.726 136.596 311.776 136.551C313.837 134.56 320.775 131.51 326.559 129.524C330.801 128.129 333.694 127.947 335.16 128.98C335.805 129.435 336.2 130.131 336.37 131.103C337.008 134.547 333.773 137.588 327.72 139.242C321.526 140.955 314.031 139.706 311.794 138.127C311.599 137.989 311.45 137.852 311.353 137.722C311.332 137.695 311.31 137.672 311.283 137.654C311.224 137.613 311.154 137.595 311.081 137.602C309.588 137.741 308.122 137.843 306.722 137.9C306.641 137.902 306.568 137.939 306.514 137.995C304.824 139.824 303.037 141.587 301.191 143.264C300.148 144.187 298.151 145.916 296.633 147.131C294.515 148.801 292.314 150.375 290.05 151.835C288.984 152.509 286.684 153.906 285.071 154.813C284.763 154.984 284.451 155.148 284.143 155.314L283.881 154.442C285.745 153.462 287.473 152.431 288.996 151.437H289.005Z" fill="#B0C9ED"/>
<path d="M321.331 127.144C320.795 126.767 320.657 125.991 321.015 125.377C321.383 124.742 322.168 124.494 322.763 124.826C322.799 124.847 322.833 124.867 322.865 124.89C323.383 125.254 323.505 126.023 323.148 126.637C322.949 126.978 322.63 127.224 322.27 127.313C321.96 127.39 321.646 127.342 321.388 127.183C321.368 127.169 321.349 127.158 321.331 127.144Z" fill="#007D9A"/>
<path d="M330.005 104.362C329.557 104.046 329.36 103.454 329.511 102.888C329.704 102.178 330.398 101.73 331.056 101.891C331.19 101.923 331.312 101.98 331.425 102.06C331.864 102.369 332.054 102.963 331.9 103.538C331.799 103.918 331.552 104.241 331.231 104.421C330.95 104.578 330.636 104.617 330.344 104.528C330.222 104.491 330.109 104.437 330.005 104.364V104.362Z" fill="#007D9A"/>
<path d="M311.523 121.043C310.993 120.67 310.799 119.999 311.079 119.517C311.376 119.01 312.1 118.866 312.697 119.199C312.74 119.221 312.78 119.249 312.819 119.276C313.332 119.638 313.5 120.281 313.213 120.775C313.072 121.016 312.839 121.187 312.559 121.255C312.24 121.335 311.887 121.273 311.591 121.091C311.566 121.075 311.543 121.059 311.52 121.043H311.523Z" fill="#007D9A"/>
<path d="M320.91 101.778C320.496 101.485 320.297 100.991 320.417 100.548C320.576 99.9562 321.245 99.6081 321.906 99.7719C322.064 99.8083 322.209 99.8743 322.336 99.9653C322.745 100.254 322.928 100.739 322.804 101.201C322.727 101.487 322.539 101.728 322.275 101.874C321.99 102.035 321.637 102.07 321.309 101.974C321.164 101.931 321.03 101.865 320.908 101.781L320.91 101.778Z" fill="#007D9A"/>
<path d="M276.803 164.204C274.919 166.062 272.536 166.879 271.025 165.439C269.458 163.947 269.917 160.725 272.634 154.736C272.679 154.64 272.722 154.545 272.77 154.452C274.441 150.935 276.631 147.211 279.622 144.511C282.581 141.797 285.768 140.343 288.252 139.763C290.765 139.174 292.645 139.287 293.975 139.62C296.647 140.343 297.273 141.869 297.332 143.43C297.414 145.045 296.81 146.451 295.097 147.727C294.249 148.371 293.152 149.006 291.865 149.784C290.562 150.58 289.118 151.471 287.34 153.084C285.564 154.663 283.352 157.031 280.834 159.872C279.581 161.269 278.239 162.746 276.832 164.17C276.821 164.181 276.81 164.192 276.798 164.204H276.803Z" fill="#007D9A"/>
<path style="mix-blend-mode:color-burn" d="M276.803 164.204C274.919 166.062 272.536 166.879 271.025 165.439C269.458 163.947 269.917 160.725 272.634 154.736C272.679 154.64 272.722 154.545 272.77 154.452C274.441 150.935 276.631 147.211 279.622 144.511C282.581 141.797 285.768 140.343 288.252 139.763C290.765 139.174 292.645 139.287 293.975 139.62C296.647 140.343 297.273 141.869 297.332 143.43C297.414 145.045 296.81 146.451 295.097 147.727C294.249 148.371 293.152 149.006 291.865 149.784C290.562 150.58 289.118 151.471 287.34 153.084C285.564 154.663 283.352 157.031 280.834 159.872C279.581 161.269 278.239 162.746 276.832 164.17C276.821 164.181 276.81 164.192 276.798 164.204H276.803Z" fill="url(#paint6_linear_140_1545)"/>
<path opacity="0.5" d="M278.797 153.264C280.715 150.68 282.785 148.633 284.479 147.45C286.162 146.256 287.348 145.832 287.411 145.969C287.508 146.128 286.456 146.765 284.947 148.066C283.43 149.345 281.552 151.388 279.724 153.96C277.887 156.515 276.048 159.566 274.032 162.448C273.218 163.61 272.347 164.723 271.447 165.758C271.302 165.664 271.16 165.562 271.028 165.435C270.831 165.248 270.666 165.034 270.535 164.791C271.377 163.817 272.193 162.773 272.965 161.681C274.971 158.867 276.847 155.835 278.799 153.262L278.797 153.264Z" fill="url(#paint7_linear_140_1545)"/>
<path style="mix-blend-mode:color-burn" d="M272.77 154.454C274.442 150.937 276.631 147.213 279.622 144.513C280.522 143.687 281.443 142.98 282.359 142.377C282.393 143.785 281.986 145.225 281.131 146.717C280.554 147.75 279.792 148.819 278.907 150.059L278.45 150.703C277.459 152.118 276.335 153.719 275.172 156.299C274.489 157.778 273.729 159.709 272.84 162.225C273.344 161.572 273.876 160.935 274.394 160.33C276.713 157.689 279.409 155.33 282.189 153.508C286.227 150.862 290.467 148.994 294.81 147.939C294.007 148.512 293.009 149.092 291.863 149.786C290.56 150.582 289.116 151.474 287.338 153.087C285.562 154.666 283.35 157.034 280.832 159.875C279.579 161.272 278.237 162.748 276.83 164.172C276.819 164.183 276.808 164.195 276.796 164.206C275.077 165.901 272.946 166.724 271.437 165.764C271.372 165.724 271.308 165.68 271.245 165.633C271.168 165.576 271.091 165.514 271.019 165.444C270.922 165.35 270.831 165.25 270.75 165.146C270.75 165.146 270.747 165.141 270.745 165.139C269.519 163.533 270.085 160.35 272.627 154.743C272.672 154.647 272.715 154.552 272.763 154.456L272.77 154.454Z" fill="url(#paint8_linear_140_1545)"/>
<path d="M337.15 176.909C333.847 172.252 325.344 177.296 325.344 177.296C325.344 177.296 325.559 169.245 314.818 168.153C299.118 166.556 297.137 183.349 297.137 183.349H331.291C337.584 183.349 338.505 178.822 337.152 176.911L337.15 176.909Z" fill="#FFAC06"/>
<path style="mix-blend-mode:color-burn" d="M325.142 175.694C325.361 176.647 325.345 177.294 325.345 177.294C322.024 178.909 319.787 180.715 319.787 180.715C319.787 180.715 322.088 177.373 325.142 175.694Z" fill="url(#paint9_linear_140_1545)"/>
<path style="mix-blend-mode:color-burn" d="M314.818 168.15C317.63 168.437 319.688 169.199 321.199 170.17C320.347 170.553 319.369 170.744 318.254 170.744C318.164 170.744 318.073 170.744 317.994 170.739C316.987 170.721 315.872 170.58 314.583 170.414L313.933 170.332C313.071 170.23 312.029 170.104 310.789 170.073C311.814 171.59 312.137 173.396 311.721 175.412C311.339 177.313 310.443 180.043 307.12 181.783C306.122 182.334 304.656 182.905 302.955 183.344H297.137C297.137 183.344 299.118 166.551 314.818 168.148V168.15Z" fill="url(#paint10_linear_140_1545)"/>
<path d="M292.289 171.65C289.584 171.955 287.134 171.097 286.815 168.959C286.485 166.745 288.896 164.42 294.889 161.295C294.986 161.247 295.081 161.197 295.178 161.149C298.759 159.363 302.892 157.737 307.032 157.457C311.151 157.143 314.66 158.001 317.044 159.118C319.458 160.248 320.915 161.543 321.786 162.662C323.498 164.957 323.044 166.597 322.105 167.903C321.15 169.268 319.77 170.026 317.571 169.964C316.476 169.946 315.183 169.759 313.644 169.566C312.083 169.379 310.344 169.182 307.882 169.357C305.444 169.505 302.148 170.012 298.304 170.713C296.402 171.045 294.38 171.388 292.337 171.645C292.321 171.645 292.305 171.65 292.289 171.652V171.65Z" fill="#007D9A"/>
<path style="mix-blend-mode:color-burn" d="M292.289 171.65C289.584 171.955 287.134 171.097 286.815 168.959C286.485 166.745 288.896 164.42 294.889 161.295C294.986 161.247 295.081 161.197 295.178 161.149C298.759 159.363 302.892 157.737 307.032 157.457C311.151 157.143 314.66 158.001 317.044 159.118C319.458 160.248 320.915 161.543 321.786 162.662C323.498 164.957 323.044 166.597 322.105 167.903C321.15 169.268 319.77 170.026 317.571 169.964C316.476 169.946 315.183 169.759 313.644 169.566C312.083 169.379 310.344 169.182 307.882 169.357C305.444 169.505 302.148 170.012 298.304 170.713C296.402 171.045 294.38 171.388 292.337 171.645C292.321 171.645 292.305 171.65 292.289 171.652V171.65Z" fill="url(#paint11_linear_140_1545)"/>
<path opacity="0.5" d="M300.825 164.038C304.016 163.164 306.994 162.825 309.118 162.948C311.24 163.053 312.473 163.469 312.434 163.619C312.411 163.81 311.156 163.653 309.106 163.749C307.064 163.817 304.247 164.277 301.137 165.198C298.029 166.099 294.608 167.402 291.147 168.456C289.751 168.879 288.34 169.224 286.953 169.493C286.894 169.325 286.842 169.149 286.815 168.963C286.774 168.685 286.774 168.405 286.822 168.123C288.12 167.871 289.444 167.546 290.762 167.152C294.171 166.149 297.612 164.884 300.825 164.042V164.038Z" fill="url(#paint12_linear_140_1545)"/>
<path d="M306.05 181.165C304.363 182.102 300.607 183.347 296.653 183.347H265.195C265.354 183.235 265.512 183.124 265.67 183.008C267.252 181.864 268.856 180.553 270.444 179.12L272.832 176.934C273.179 176.579 273.728 176.104 274.258 175.674C274.782 175.239 275.321 174.828 275.877 174.42C280.264 171.156 285.299 168.927 289.758 168.001C298.73 166.208 304.191 167.666 307.057 169.363C309.962 171.163 310.434 173.463 309.975 175.703C309.516 177.98 308.534 179.866 306.048 181.163L306.05 181.165Z" fill="#B4C8E5"/>
<path style="mix-blend-mode:color-burn" d="M306.05 181.165C304.363 182.102 300.607 183.347 296.653 183.347H265.195C265.354 183.235 265.512 183.124 265.67 183.008C267.252 181.864 268.856 180.553 270.444 179.12L272.832 176.934C273.179 176.579 273.728 176.104 274.258 175.674C274.782 175.239 275.321 174.828 275.877 174.42C280.264 171.156 285.299 168.927 289.758 168.001C298.73 166.208 304.191 167.666 307.057 169.363C309.962 171.163 310.434 173.463 309.975 175.703C309.516 177.98 308.534 179.866 306.048 181.163L306.05 181.165Z" fill="url(#paint13_linear_140_1545)"/>
<path style="mix-blend-mode:color-burn" d="M284.265 179.243C282.494 179.955 280.675 180.83 278.879 181.861C278.083 182.327 277.266 182.834 276.433 183.346H272.66C274.459 182.4 276.157 181.292 277.997 180.266C279.886 179.224 281.795 178.353 283.654 177.657C291.151 174.87 297.343 174.891 297.34 175.321C297.411 175.844 291.371 176.317 284.263 179.243H284.265Z" fill="url(#paint14_linear_140_1545)"/>
<path d="M307.467 160.546C305.94 161.349 303.882 162.12 301.231 163.112C298.595 164.111 295.324 165.342 291.625 167.389C289.782 168.41 287.836 169.593 285.877 171.015C285.391 171.37 284.9 171.731 284.42 172.118C283.905 172.519 283.534 172.819 282.83 173.447C281.563 174.545 280.224 175.61 278.837 176.606C275.08 179.332 271.012 181.586 267.006 183.349H251.393C253.433 182.009 255.634 180.449 257.858 178.679C262.165 175.298 266.508 171.183 270.182 166.886C271.114 165.803 271.999 164.73 272.845 163.647C273.202 163.169 273.865 162.361 274.435 161.738C275.016 161.074 275.641 160.435 276.254 159.818C278.756 157.361 281.486 155.35 284.181 153.86C289.596 150.864 294.381 149.672 298.134 149.218C301.923 148.772 304.762 149.074 306.8 149.634C310.906 150.819 311.919 152.976 311.716 155.08C311.526 157.225 310.549 158.988 307.472 160.548L307.467 160.546Z" fill="#FFAC06"/>
<path style="mix-blend-mode:color-burn" d="M307.467 160.546C305.94 161.349 303.882 162.12 301.231 163.112C298.595 164.111 295.324 165.342 291.625 167.389C289.782 168.41 287.836 169.593 285.877 171.015C285.391 171.37 284.9 171.731 284.42 172.118C283.905 172.519 283.534 172.819 282.83 173.447C281.563 174.545 280.224 175.61 278.837 176.606C275.08 179.332 271.012 181.586 267.006 183.349H251.393C253.433 182.009 255.634 180.449 257.858 178.679C262.165 175.298 266.508 171.183 270.182 166.886C271.114 165.803 271.999 164.73 272.845 163.647C273.202 163.169 273.865 162.361 274.435 161.738C275.016 161.074 275.641 160.435 276.254 159.818C278.756 157.361 281.486 155.35 284.181 153.86C289.596 150.864 294.381 149.672 298.134 149.218C301.923 148.772 304.762 149.074 306.8 149.634C310.906 150.819 311.919 152.976 311.716 155.08C311.526 157.225 310.549 158.988 307.472 160.548L307.467 160.546Z" fill="url(#paint15_linear_140_1545)"/>
<path style="mix-blend-mode:color-burn" d="M290.447 159.886C287.574 161.385 283.69 163.79 280.066 167.393C276.575 171.176 272.16 175.205 267.42 178.41C264.715 180.276 261.914 181.925 259.179 183.347H255.15C258.804 181.652 262.711 179.507 266.436 176.959C271.128 173.817 275.352 170.043 278.982 166.263C282.833 162.605 286.952 160.264 290.004 158.949C293.074 157.641 295.062 157.245 295.128 157.434C295.204 157.664 293.331 158.374 290.447 159.886Z" fill="url(#paint16_linear_140_1545)"/>
<path style="mix-blend-mode:color-burn" d="M282.828 173.444C283.531 172.818 283.905 172.516 284.418 172.115C284.898 171.728 285.386 171.367 285.875 171.012C287.585 169.772 289.282 168.717 290.911 167.788C292.56 167.5 294.087 167.324 295.491 167.24C293.413 168.394 291.587 169.545 289.913 170.759C289.458 171.092 288.972 171.449 288.508 171.824L288.488 171.84C287.999 172.218 287.646 172.506 286.954 173.121C285.617 174.279 284.242 175.368 282.871 176.351C279.222 178.997 275.159 181.312 270.795 183.232L270.542 183.344H267.004C271.01 181.581 275.078 179.326 278.835 176.601C280.222 175.605 281.561 174.54 282.828 173.441V173.444Z" fill="url(#paint17_linear_140_1545)"/>
<path style="mix-blend-mode:color-burn" d="M304.85 163.067C302.499 163.958 299.622 165.048 296.416 166.743C297.093 166.702 297.756 166.681 298.402 166.681C303.626 166.681 306.895 167.969 308.718 169.049L308.741 169.063C308.863 169.138 308.978 169.218 309.094 169.297C308.711 169.306 308.309 169.325 307.886 169.356C307.643 169.37 307.392 169.391 307.132 169.411C307.107 169.395 307.085 169.381 307.06 169.366C304.318 167.741 299.201 166.34 290.91 167.789C291.15 167.653 291.387 167.518 291.623 167.389C295.321 165.341 298.593 164.111 301.228 163.112C303.879 162.122 305.938 161.349 307.465 160.546C309.295 159.618 310.378 158.617 310.998 157.507C312.245 157.637 313.401 157.866 314.444 158.16C313.668 158.997 312.645 159.732 311.34 160.394C309.713 161.249 307.506 162.072 304.956 163.026L304.847 163.067H304.85Z" fill="url(#paint18_linear_140_1545)"/>
<path d="M269.645 173.26C268.724 176.326 266.677 178.583 264.242 177.944C261.722 177.282 260.347 173.601 259.763 165.678C259.757 165.55 259.747 165.425 259.741 165.296C259.481 160.598 259.643 155.377 261.252 150.771C262.815 146.169 265.349 142.768 267.645 140.705C269.966 138.614 272.022 137.636 273.621 137.208C276.868 136.414 278.41 137.663 279.376 139.278C280.394 140.941 280.569 142.779 279.492 145.132C278.967 146.308 278.171 147.62 277.257 149.197C276.338 150.8 275.325 152.588 274.377 155.334C273.411 158.041 272.434 161.84 271.411 166.319C270.891 168.53 270.325 170.876 269.658 173.205C269.654 173.223 269.647 173.242 269.642 173.26H269.645Z" fill="#B3C7E4"/>
<path style="mix-blend-mode:color-burn" d="M269.645 173.26C268.724 176.326 266.677 178.583 264.242 177.944C261.722 177.282 260.347 173.601 259.763 165.678C259.757 165.55 259.747 165.425 259.741 165.296C259.481 160.598 259.643 155.377 261.252 150.771C262.815 146.169 265.349 142.768 267.645 140.705C269.966 138.614 272.022 137.636 273.621 137.208C276.868 136.414 278.41 137.663 279.376 139.278C280.394 140.941 280.569 142.779 279.492 145.132C278.967 146.308 278.171 147.62 277.257 149.197C276.338 150.8 275.325 152.588 274.377 155.334C273.411 158.041 272.434 161.84 271.411 166.319C270.891 168.53 270.325 170.876 269.658 173.205C269.654 173.223 269.647 173.242 269.642 173.26H269.645Z" fill="url(#paint19_linear_140_1545)"/>
<path opacity="0.5" d="M265.435 160.519C265.971 156.663 266.98 153.287 268.091 151.044C269.181 148.797 270.193 147.655 270.337 147.766C270.532 147.88 269.785 149.165 268.942 151.426C268.073 153.667 267.265 156.925 266.818 160.717C266.349 164.493 266.166 168.795 265.698 173.026C265.508 174.732 265.227 176.418 264.874 178.04C264.666 178.026 264.458 178.001 264.243 177.944C263.926 177.862 263.628 177.73 263.35 177.551C263.678 176.029 263.94 174.448 264.126 172.839C264.623 168.69 264.858 164.384 265.435 160.519Z" fill="url(#paint20_linear_140_1545)"/>
<path style="mix-blend-mode:color-burn" d="M267.004 183.347H251.391C253.431 182.007 255.632 180.446 257.856 178.676C259.134 177.673 260.417 176.604 261.684 175.485C260.724 173.51 260.111 170.323 259.767 165.676C259.761 165.548 259.752 165.423 259.745 165.293C259.485 160.596 259.648 155.375 261.256 150.769C262.091 148.314 263.201 146.205 264.403 144.456C265.185 147.509 264.464 150.707 263.857 153.389C263.299 155.862 262.772 158.198 263.312 159.979C264.312 163.267 267.384 164.054 270.943 164.966C275.505 166.135 281.183 167.589 281.548 175.526C281.665 178.083 280.912 180.705 279.313 183.347H267H267.004Z" fill="url(#paint21_linear_140_1545)"/>
<path d="M275.249 183.346C277.309 180.671 278.707 177.677 278.563 174.536C277.997 162.208 263.187 168.562 260.397 159.394C258.398 152.825 267.571 142.893 255.043 137.31C244.917 132.797 241.16 147.677 232.858 145.957C224.555 144.237 221.832 143.516 218.219 148.794C214.968 153.539 220.861 162.593 213.821 162.12C208.44 161.76 206.594 172.745 214.335 183.346H275.249Z" fill="#007D9A"/>
<path d="M263.779 180.92C263.698 180.622 263.39 180.444 263.094 180.528C262.992 180.556 257.827 181.975 251.633 183.347H256.635C260.386 182.437 263.094 181.693 263.39 181.611C263.686 181.529 263.863 181.22 263.781 180.922L263.779 180.92ZM225.078 174.607C224.813 174.766 224.727 175.11 224.885 175.376C225.037 175.631 227.593 179.912 230.387 183.347H231.844C228.867 179.866 225.881 174.866 225.842 174.8C225.684 174.534 225.342 174.448 225.078 174.607ZM253.769 172.011C253.692 171.711 253.389 171.529 253.09 171.604C253.011 171.625 245.424 173.54 238.583 174.125C239.703 171.029 240.895 168.065 242.08 165.307L253.898 162.842C254.199 162.78 254.393 162.482 254.33 162.18C254.267 161.875 253.972 161.681 253.669 161.743L242.625 164.045C246.96 154.181 251.057 147.286 251.131 147.161C251.29 146.895 251.206 146.549 250.941 146.39C250.679 146.231 250.335 146.315 250.177 146.581C250.113 146.688 247.104 151.747 243.517 159.391C241.883 155.417 240.406 150.373 240.39 150.319C240.302 150.021 239.992 149.852 239.698 149.939C239.402 150.025 239.232 150.337 239.32 150.635C239.338 150.694 241.076 156.622 242.883 160.756C242.336 161.948 241.777 163.192 241.216 164.486C241.166 164.554 241.132 164.632 241.117 164.718C240.626 165.856 240.135 167.027 239.648 168.231C236.513 163.783 234.819 158.713 234.803 158.658C234.705 158.365 234.389 158.205 234.097 158.303C233.805 158.401 233.647 158.717 233.744 159.013C233.821 159.247 235.658 164.746 239.16 169.459C238.52 171.079 237.888 172.748 237.28 174.457C237.241 174.521 237.212 174.596 237.203 174.675C236.87 175.612 236.547 176.563 236.23 177.523C228.068 165.528 225.58 153.485 225.555 153.362C225.494 153.06 225.2 152.862 224.899 152.923C224.596 152.985 224.401 153.28 224.462 153.583C224.487 153.71 227.114 166.438 235.796 178.861C235.328 180.337 234.884 181.832 234.47 183.34H235.626C236.389 180.597 237.253 177.894 238.173 175.28C245.236 174.743 253.287 172.71 253.368 172.687C253.667 172.612 253.848 172.307 253.773 172.007L253.769 172.011ZM216.416 172.018C216.135 172.148 216.013 172.48 216.14 172.762C216.174 172.835 218.397 177.68 222.046 183.347H223.379C219.544 177.505 217.189 172.371 217.153 172.296C217.024 172.014 216.694 171.891 216.414 172.018H216.416Z" fill="url(#paint22_linear_140_1545)"/>
<path d="M107.254 4.57864C105.05 1.52582 94.943 -1.02881 93.7169 9.70838C93.0653 15.4091 94.8027 39.0332 83.9194 39.0332C79.5285 39.065 75.219 45.1343 77.4563 53.9219C80.4967 65.858 90.5951 64.7206 98.8113 59.9002C108.407 54.27 103.804 25.589 104.376 16.8195C104.851 9.56507 106.159 7.94084 107.254 4.57864Z" fill="#050505"/>
<path d="M104.372 16.82L106.976 16.1398L109.555 6.85393L107.252 4.5791C107.252 4.5791 102.866 10.8258 104.374 16.82H104.372Z" fill="#FFAC06"/>
<path d="M127.007 22C127.007 22 131.834 19.8184 128.536 9.00844C125.625 -0.532189 110.536 0.803136 107.256 10.1572C103.973 19.5091 110.454 26.9364 117.607 28.3513C122.236 21.6201 127.005 22 127.005 22H127.007Z" fill="#050505"/>
<path d="M131.235 178.822C131.235 178.822 130.701 182.68 134.51 183.049C138.322 183.417 149.146 183.85 149.631 181.579C149.99 179.887 143.661 178.208 139.573 177.396C135.485 176.581 131.345 175.876 131.235 178.822Z" fill="#050505"/>
<path d="M146.409 180.127C146.371 179.399 136.718 176.567 133.711 177.352C131.718 177.873 132.216 179.436 133.173 179.643C135.689 180.189 146.459 181.033 146.409 180.127Z" fill="#FFB680"/>
<path d="M87.7837 168.988C90.2291 167.362 92.0683 171.158 93.7898 174.975C94.2739 176.045 94.8032 177.3 95.2828 178.565C98.002 179.821 100.282 181.238 99.9022 182.266C99.5244 183.288 96.9749 183.385 93.9911 183.106C92.9053 182.965 92.1135 182.626 91.5547 181.939C89.4419 179.282 87.2883 175.892 86.2703 174.125C84.352 170.794 87.7837 168.986 87.7837 168.986V168.988Z" fill="#050505"/>
<path d="M88.0291 170.698C87.7825 170.225 88.0766 169.349 89.1398 169.179C89.9881 169.042 90.6102 170.143 90.6102 170.143C90.8523 170.639 93.4312 175.612 94.7839 179.008C96.0756 179.559 96.9511 180.05 96.924 180.357C96.8991 180.619 95.3359 180.476 93.8361 180.228L93.8202 180.243C91.7119 177.168 88.5924 171.786 88.0268 170.701L88.0291 170.698Z" fill="#FFB680"/>
<path d="M141.234 112.488C137.476 113.639 137.264 118.109 137.225 119.219C136.863 129.351 133.083 173.746 132.389 178.46L136.121 179.172C136.861 174.14 143.491 143.459 148.066 123.752C148.654 121.23 148.925 120.447 149.425 117.79C149.95 114.999 146.921 110.745 141.229 112.488H141.234Z" fill="url(#paint23_linear_140_1545)"/>
<path d="M130.356 117.654C126.554 116.667 123.868 120.1 123.262 121.025C117.711 129.465 91.6074 165.708 88.1191 169.911L91.4174 171.875C94.9509 167.616 116.224 145.264 130.347 130.848C132.157 129.006 132.795 128.478 134.6 126.474C136.496 124.367 136.118 119.149 130.356 117.652V117.654Z" fill="#FFB680"/>
<path d="M221.846 35.9467C221.846 35.9467 212.247 49.6321 198.125 62.6873C198.125 62.6873 195.905 64.9508 198.054 67.4508C200.332 70.1033 202.644 68.0286 202.644 68.0286C202.703 67.9854 202.76 67.9399 202.816 67.8921C216.964 56.5794 227.397 42.546 227.08 38.7994C226.764 35.0527 223.669 33.9426 221.846 35.9467Z" fill="url(#paint24_linear_140_1545)"/>
<path d="M211.18 48.5037L220.618 58.5379C220.618 58.5379 224.988 53.845 229.565 47.6119C232.173 44.0609 227.074 27.8141 223.201 32.8164C219.674 37.3729 211.178 48.5037 211.178 48.5037H211.18Z" fill="url(#paint25_linear_140_1545)"/>
<path d="M131.463 37.8807C131.463 37.8807 140.912 51.6707 154.892 64.8784C154.892 64.8784 157.087 67.1646 154.91 69.6419C152.603 72.267 150.314 70.1696 150.314 70.1696C150.255 70.1241 150.201 70.0786 150.144 70.0309C136.121 58.5635 125.839 44.4186 126.197 40.6742C126.554 36.9298 129.66 35.8561 131.461 37.8807H131.463Z" fill="#FFB680"/>
<path d="M142.343 50.5802L134.459 61.1764C134.459 61.1764 127.446 55.2072 122.99 48.8855C119.509 43.9468 122.881 27.7364 129.118 34.0672C133.161 38.1688 142.343 50.5825 142.343 50.5825V50.5802Z" fill="url(#paint26_linear_140_1545)"/>
<path d="M149.674 64.9598C165.195 53.4765 176.655 40.4189 176.655 40.4189L179.313 41.8885C179.313 41.8885 168.742 57.7941 153.852 70.5695C153.852 70.5695 151.995 72.0095 149.708 69.3275C147.55 66.7979 149.513 65.0781 149.513 65.0781C149.565 65.0394 149.617 65.0007 149.671 64.9598H149.674Z" fill="#FFB680"/>
<path d="M141.627 81.1767C140.333 75.9377 136.929 62.498 136.929 62.498C136.929 62.498 129.271 63.0304 123.831 63.7447C118.39 64.4567 114.669 65.0914 114.669 65.0914C114.669 65.0914 112.814 82.6485 114.101 90.6149C122.36 90.069 124.261 90.6149 131.228 87.4302C134.212 86.0675 141.627 81.1767 141.627 81.1767Z" fill="#FFB680"/>
<path d="M138.89 52.1575C138.008 47.6761 134.07 46.2998 132.973 42.6419C131.384 37.7555 129.545 33.836 127.577 32.9306C122.496 30.5944 114.104 33.9952 114.104 39.8393C114.104 57.8332 113.145 71.7801 113.145 71.7801C113.145 71.7801 114.097 74.0322 124.842 72.6196C139.033 70.7542 138.515 67.3169 138.515 67.3169C138.515 67.3169 137.605 63.5157 136.203 56.9847C137.434 56.6252 139.298 54.2207 138.893 52.1575H138.89Z" fill="#FFAC06"/>
<path d="M125.843 11.9834C125.843 11.9834 131.175 21.6992 129.795 24.7588C128.413 27.8185 123.785 27.5023 123.785 27.5023C123.785 27.5023 125.142 30.7007 125.538 31.3877C125.934 32.0747 131.272 38.2486 127.112 41.3901C123.581 44.0562 120.013 35.2094 120.013 35.2094L115.184 21.449C115.184 21.449 111.872 20.2274 112.338 17.6295C112.804 15.0317 116.299 17.5135 116.299 17.5135L113.709 12.0607C113.709 12.0607 122.69 13.9921 125.843 11.9879V11.9834Z" fill="#FFB680"/>
<path d="M127.09 32.7278C127.09 32.7278 130.537 36.7384 131.015 41.1515C131.492 45.5647 134.53 47.9305 134.53 48.5265C134.53 50.4328 125.728 51.3428 123.71 49.3864C123.038 48.7358 122.353 45.2781 121.267 42.2366C120.181 39.1952 118.79 35.1687 116.512 34.8912C117.84 32.6209 125.52 31.074 127.09 32.7278Z" fill="#FFB680"/>
<path style="mix-blend-mode:color-burn" d="M130.085 46.7926C130.067 45.6506 130.108 44.9409 130.024 44.9272C129.938 44.9113 129.742 45.6142 129.644 46.7767C129.579 47.566 129.565 48.576 129.656 49.693C129.61 49.5679 129.567 49.4428 129.518 49.3176C128.982 47.9277 128.273 46.7653 127.669 46.0009C127.068 45.2343 126.577 44.8613 126.518 44.925C126.459 44.9864 126.819 45.4504 127.31 46.2557C127.803 47.0587 128.421 48.2053 128.939 49.5451C129.058 49.85 129.167 50.1525 129.267 50.446C129.631 50.4255 129.993 50.3959 130.346 50.355C130.158 48.9832 130.099 47.7366 130.085 46.7903V46.7926Z" fill="url(#paint27_linear_140_1545)"/>
<path d="M149.707 124.365C150.323 119.656 151.06 114.879 149.707 109.471C149.707 109.471 142.306 83.8569 141.109 79.0889C141.109 79.0889 136.56 82.9174 129.126 83.3815C119.779 83.9638 116.999 82.972 113.648 81.5389C113.694 86.3615 116.655 116.039 116.655 116.039C116.655 116.039 116.634 116.123 116.653 116.255C116.659 125.727 108.624 134.044 105.588 138.646C103.163 142.322 115.899 148.382 122.086 144.674C128.273 140.966 129.28 146.883 137.492 147.361C145.703 147.839 149.9 141.242 150.092 140.127C150.474 137.92 149.097 129.071 149.71 124.362L149.707 124.365Z" fill="#007D9A"/>
<path style="mix-blend-mode:color-burn" d="M134.161 114.947C129.798 114.94 130.361 122.727 127.511 133.1C125.791 139.353 124.76 143.564 120.285 145.441C120.925 145.256 121.529 145.006 122.081 144.674C127.635 141.346 129.019 145.773 135.184 147.058C129.474 145.88 139.398 114.953 134.161 114.944V114.947Z" fill="url(#paint28_linear_140_1545)"/>
<path d="M140.494 76.639C140.494 76.639 135.707 79.2323 128.106 80.0103C120.505 80.7883 113.73 78.6044 113.73 78.6044L113.646 82.5968C113.646 82.5968 118.121 85.2856 128.937 84.7465C138.515 84.2688 141.265 79.6986 141.265 79.6986L140.494 76.6367V76.639Z" fill="#007D9A"/>
<path d="M130.183 75.6406C130.296 76.2798 130.574 76.7666 130.805 76.7257C131.036 76.6847 131.131 76.1319 131.017 75.4927C130.904 74.8535 130.624 74.3667 130.393 74.4099C130.162 74.4508 130.067 75.0036 130.18 75.6428L130.183 75.6406Z" fill="#FB9D5F"/>
<path d="M87.968 62.1553H248.322C249.906 62.1553 251.191 63.4474 251.191 65.0398V127.761C251.191 129.354 249.906 130.646 248.322 130.646H87.968C86.3845 130.646 85.0996 129.354 85.0996 127.761V65.0398C85.0996 63.4474 86.3845 62.1553 87.968 62.1553Z" fill="#92B4EA"/>
<path d="M245.42 108.864V83.9364C236.645 83.9364 229.531 76.7821 229.531 67.958H106.763C106.763 76.7821 99.648 83.9364 90.873 83.9364V108.864C99.648 108.864 106.763 116.018 106.763 124.842H229.531C229.531 116.018 236.645 108.864 245.42 108.864Z" fill="#ABC6ED"/>
<path style="mix-blend-mode:color-burn" d="M229.53 67.96H227.494C227.494 76.784 234.609 83.9384 243.384 83.9384V108.866C234.609 108.866 227.494 116.02 227.494 124.844H229.53C229.53 116.02 236.645 108.866 245.42 108.866V83.9384C236.645 83.9384 229.53 76.784 229.53 67.96Z" fill="url(#paint29_linear_140_1545)"/>
<path d="M85.0984 127.763V65.0417C85.0984 63.4539 86.3901 62.1572 87.9668 62.1572H85.1165C83.5398 62.1572 82.248 63.4562 82.248 65.0417V127.763C82.248 129.351 83.5398 130.648 85.1165 130.648H87.9668C86.3901 130.648 85.0984 129.349 85.0984 127.763Z" fill="#92B4EA"/>
<path style="mix-blend-mode:color-burn" d="M85.0984 127.763V65.0417C85.0984 63.4539 86.3901 62.1572 87.9668 62.1572H85.1165C83.5398 62.1572 82.248 63.4562 82.248 65.0417V127.763C82.248 129.351 83.5398 130.648 85.1165 130.648H87.9668C86.3901 130.648 85.0984 129.349 85.0984 127.763Z" fill="url(#paint30_linear_140_1545)"/>
<path d="M187.711 96.4006C187.711 85.5337 178.952 76.7256 168.146 76.7256C157.339 76.7256 148.58 85.5337 148.58 96.4006C148.58 107.267 157.339 116.076 168.146 116.076C178.952 116.076 187.711 107.267 187.711 96.4006Z" fill="#0FB7C6"/>
<path d="M212.289 96.3999C212.289 92.0732 208.801 88.5654 204.498 88.5654C200.195 88.5654 196.707 92.0732 196.707 96.3999C196.707 100.727 200.195 104.234 204.498 104.234C208.801 104.234 212.289 100.727 212.289 96.3999Z" fill="#0FB7C6"/>
<path d="M137.304 101.94C140.347 98.8807 140.347 93.9201 137.304 90.8606C134.262 87.801 129.329 87.801 126.286 90.8606C123.244 93.9201 123.244 98.8807 126.286 101.94C129.329 105 134.262 105 137.304 101.94Z" fill="#0FB7C6"/>
<path d="M231.065 96.3999C231.065 93.6838 228.876 91.4795 226.172 91.4795C223.469 91.4795 221.279 93.6815 221.279 96.3999C221.279 99.1184 223.469 101.32 226.172 101.32C228.876 101.32 231.065 99.1184 231.065 96.3999Z" fill="#0FB7C6"/>
<path d="M115.013 96.3999C115.013 93.6838 112.823 91.4795 110.12 91.4795C107.416 91.4795 105.227 93.6815 105.227 96.3999C105.227 99.1184 107.416 101.32 110.12 101.32C112.823 101.32 115.013 99.1184 115.013 96.3999Z" fill="#0FB7C6"/>
<path d="M174.503 97.206C173.888 96.5099 173.148 96.0003 172.286 95.6796C171.424 95.3565 170.323 95.0221 168.968 94.7105C167.669 94.4125 166.699 94.1281 166.065 93.8324C165.432 93.5367 165.115 93.0794 165.115 92.4675C165.115 91.8556 165.391 91.3642 165.939 90.9911C166.486 90.6181 167.337 90.4293 168.486 90.4293C169.309 90.4293 170.133 90.5476 170.956 90.7864C171.105 90.8296 171.255 90.8797 171.404 90.9297C172.069 91.1549 172.897 91.5758 172.897 91.5758C173.173 91.7191 173.497 91.5963 173.612 91.3073L174.454 89.2236C174.571 88.9347 174.444 88.5776 174.171 88.4297C174.171 88.4297 173.356 87.9906 172.583 87.7427C172.485 87.7108 172.436 87.6949 172.436 87.6949H172.427C172.325 87.6676 172.228 87.6381 172.13 87.6108C172.028 87.5835 171.936 87.5516 171.832 87.5243C171.201 87.3651 170.558 87.2559 169.911 87.1922V84.3464C169.911 84.1394 169.741 83.9688 169.536 83.9688H166.683C166.477 83.9688 166.307 84.1394 166.307 84.3464V87.2968C165.606 87.4197 164.968 87.6039 164.394 87.8542C163.272 88.3478 162.432 89.0143 161.874 89.856C161.317 90.6954 161.039 91.6349 161.039 92.67C161.039 93.8597 161.344 94.8106 161.964 95.5249C162.582 96.2369 163.319 96.7578 164.181 97.0809C165.041 97.4016 166.149 97.7224 167.502 98.0454C168.38 98.2501 169.076 98.4389 169.59 98.6073C170.106 98.7779 170.529 99.0031 170.857 99.2829C171.187 99.565 171.35 99.9176 171.35 100.338C171.35 100.918 171.072 101.378 170.515 101.728C169.956 102.076 169.097 102.249 167.929 102.249C166.911 102.249 165.896 102.092 164.882 101.767C164.851 101.758 164.821 101.751 164.789 101.74C164.667 101.701 164.556 101.653 164.439 101.612C163.541 101.289 162.559 100.686 162.559 100.686C162.294 100.525 161.973 100.623 161.846 100.907L160.917 102.979C160.788 103.264 160.901 103.632 161.165 103.794C161.165 103.794 162.224 104.444 163.265 104.797L163.41 104.847H163.414C163.511 104.881 163.606 104.918 163.71 104.947C163.756 104.961 163.794 104.975 163.839 104.988C164.645 105.218 165.468 105.375 166.31 105.466V108.453C166.31 108.66 166.479 108.83 166.685 108.83H169.538C169.744 108.83 169.913 108.66 169.913 108.453V105.407C170.694 105.286 171.406 105.095 172.038 104.82C173.169 104.328 174.017 103.66 174.585 102.818C175.148 101.979 175.433 101.048 175.433 100.029C175.433 98.8416 175.123 97.8998 174.508 97.2014L174.503 97.206Z" fill="#F5F5F5"/>
<path d="M184.253 91.1953C183.798 91.1953 183.371 90.92 183.194 90.4696C183.004 89.985 182.789 89.5028 182.554 89.0387C182.269 88.4768 182.491 87.7876 183.052 87.5009C183.61 87.2143 184.296 87.4372 184.581 88.0014C184.85 88.5314 185.097 89.0819 185.312 89.637C185.54 90.2262 185.253 90.8882 184.667 91.1202C184.531 91.1748 184.391 91.1998 184.253 91.1998V91.1953Z" fill="url(#paint31_linear_140_1545)"/>
<path d="M181.132 86.0616C180.817 86.0616 180.503 85.9297 180.279 85.6749C180.053 85.4155 179.813 85.1608 179.569 84.9151C177.596 82.9314 175.15 81.4915 172.499 80.7499C171.895 80.5815 171.54 79.9491 171.707 79.3417C171.875 78.7344 172.504 78.3772 173.108 78.5456C176.137 79.3918 178.928 81.0342 181.177 83.2977C181.453 83.5752 181.724 83.8664 181.985 84.1621C182.401 84.6353 182.355 85.3587 181.883 85.7772C181.666 85.9683 181.399 86.0639 181.132 86.0639V86.0616Z" fill="url(#paint32_linear_140_1545)"/>
<path style="mix-blend-mode:color-burn" d="M155.575 96.4006C155.575 85.5337 161.203 76.7256 168.146 76.7256C157.339 76.7256 148.58 85.5337 148.58 96.4006C148.58 107.267 157.339 116.076 168.146 116.076C161.203 116.076 155.575 107.267 155.575 96.4006Z" fill="url(#paint33_linear_140_1545)"/>
<path d="M210.911 94.328C210.73 94.328 210.558 94.2188 210.49 94.0391C210.416 93.8458 210.33 93.6547 210.235 93.4681C210.122 93.2429 210.21 92.9699 210.432 92.8562C210.656 92.7425 210.927 92.8312 211.04 93.0541C211.146 93.2657 211.246 93.4841 211.332 93.7047C211.422 93.939 211.309 94.2029 211.076 94.2939C211.022 94.3144 210.966 94.3257 210.911 94.3257V94.328Z" fill="url(#paint34_linear_140_1545)"/>
<path d="M209.666 92.2832C209.542 92.2832 209.415 92.2308 209.327 92.1285C209.237 92.0261 209.142 91.9237 209.044 91.8259C208.259 91.0366 207.284 90.4633 206.228 90.1676C205.988 90.0993 205.846 89.8491 205.913 89.6057C205.981 89.3645 206.23 89.2212 206.472 89.2895C207.678 89.6262 208.791 90.2813 209.687 91.1821C209.798 91.2936 209.904 91.4096 210.008 91.5256C210.173 91.7144 210.155 92.0011 209.967 92.1694C209.881 92.2468 209.775 92.2832 209.669 92.2832H209.666Z" fill="url(#paint35_linear_140_1545)"/>
<path style="mix-blend-mode:color-burn" d="M199.488 96.3999C199.488 92.0732 201.73 88.5654 204.494 88.5654C200.191 88.5654 196.703 92.0732 196.703 96.3999C196.703 100.727 200.191 104.234 204.494 104.234C201.73 104.234 199.488 100.727 199.488 96.3999Z" fill="url(#paint36_linear_140_1545)"/>
<path d="M138.21 94.328C138.029 94.328 137.857 94.2188 137.789 94.0391C137.715 93.8458 137.629 93.6547 137.534 93.4681C137.421 93.2429 137.509 92.9699 137.73 92.8562C137.954 92.7425 138.226 92.8312 138.339 93.0541C138.445 93.2657 138.545 93.4841 138.631 93.7047C138.721 93.939 138.608 94.2029 138.375 94.2939C138.321 94.3144 138.264 94.3257 138.21 94.3257V94.328Z" fill="url(#paint37_linear_140_1545)"/>
<path d="M136.967 92.2832C136.843 92.2832 136.716 92.2308 136.628 92.1285C136.537 92.0261 136.442 91.9237 136.345 91.8259C135.56 91.0366 134.585 90.4633 133.529 90.1676C133.289 90.0993 133.146 89.8491 133.214 89.6057C133.282 89.3645 133.531 89.2212 133.773 89.2895C134.979 89.6262 136.092 90.2813 136.988 91.1821C137.098 91.2936 137.205 91.4096 137.309 91.5256C137.474 91.7144 137.456 92.0011 137.268 92.1694C137.182 92.2468 137.076 92.2832 136.969 92.2832H136.967Z" fill="url(#paint38_linear_140_1545)"/>
<path style="mix-blend-mode:color-burn" d="M126.789 96.3999C126.789 92.0732 129.03 88.5654 131.795 88.5654C127.492 88.5654 124.004 92.0732 124.004 96.3999C124.004 100.727 127.492 104.234 131.795 104.234C129.03 104.234 126.789 100.727 126.789 96.3999Z" fill="url(#paint39_linear_140_1545)"/>
<path d="M230.2 95.0988C230.087 95.0988 229.978 95.0306 229.935 94.9169C229.888 94.7963 229.834 94.6757 229.775 94.5597C229.705 94.4187 229.759 94.2458 229.899 94.1753C230.039 94.1047 230.211 94.1593 230.281 94.3004C230.349 94.4323 230.41 94.5711 230.465 94.7099C230.521 94.8577 230.449 95.0238 230.304 95.0807C230.27 95.0943 230.234 95.1011 230.2 95.1011V95.0988Z" fill="url(#paint40_linear_140_1545)"/>
<path d="M229.419 93.8161C229.339 93.8161 229.26 93.7842 229.206 93.7182C229.149 93.6545 229.088 93.5886 229.029 93.5294C228.536 93.0335 227.926 92.6741 227.26 92.4876C227.109 92.4443 227.021 92.2874 227.064 92.135C227.104 91.9825 227.263 91.8938 227.414 91.9348C228.172 92.1463 228.869 92.5581 229.432 93.1222C229.502 93.1928 229.57 93.2633 229.633 93.3383C229.738 93.4566 229.726 93.6363 229.609 93.741C229.554 93.7888 229.489 93.8115 229.421 93.8115L229.419 93.8161Z" fill="url(#paint41_linear_140_1545)"/>
<path style="mix-blend-mode:color-burn" d="M223.028 96.3999C223.028 93.6838 224.435 91.4795 226.172 91.4795C223.471 91.4795 221.279 93.6815 221.279 96.3999C221.279 99.1184 223.469 101.32 226.172 101.32C224.437 101.32 223.028 99.1184 223.028 96.3999Z" fill="url(#paint42_linear_140_1545)"/>
<path d="M114.146 95.0988C114.033 95.0988 113.925 95.0306 113.882 94.9169C113.834 94.7963 113.78 94.6757 113.721 94.5597C113.649 94.4187 113.705 94.2458 113.845 94.1753C113.986 94.1047 114.158 94.1593 114.228 94.3004C114.296 94.4323 114.357 94.5711 114.411 94.7099C114.468 94.8577 114.395 95.0238 114.25 95.0807C114.216 95.0943 114.18 95.1011 114.146 95.1011V95.0988Z" fill="url(#paint43_linear_140_1545)"/>
<path d="M113.365 93.8161C113.286 93.8161 113.209 93.7842 113.153 93.7182C113.096 93.6545 113.035 93.5886 112.976 93.5294C112.483 93.0335 111.872 92.6741 111.21 92.4876C111.058 92.4443 110.97 92.2874 111.013 92.135C111.056 91.9825 111.212 91.8938 111.363 91.9348C112.121 92.1463 112.818 92.5581 113.381 93.1222C113.451 93.1928 113.519 93.2633 113.583 93.3383C113.687 93.4566 113.675 93.6363 113.558 93.741C113.503 93.7888 113.438 93.8115 113.37 93.8115L113.365 93.8161Z" fill="url(#paint44_linear_140_1545)"/>
<path style="mix-blend-mode:color-burn" d="M106.975 96.3999C106.975 93.6838 108.382 91.4795 110.12 91.4795C107.419 91.4795 105.227 93.6815 105.227 96.3999C105.227 99.1184 107.416 101.32 110.12 101.32C108.385 101.32 106.975 99.1184 106.975 96.3999Z" fill="url(#paint45_linear_140_1545)"/>
<path d="M266.656 170.719C266.454 166.876 262.597 167.245 262.597 167.245C259.665 167.224 260.188 171.415 260.819 175.559C260.973 176.581 261.177 177.741 261.416 178.903C258.887 180.054 256.858 181.331 257.197 182.307C257.557 183.335 260.104 183.48 263.09 183.257C263.927 183.164 266.341 182.652 266.341 181.549C266.404 181.36 266.45 180.371 266.47 180.166C266.798 176.781 266.76 172.759 266.656 170.719Z" fill="#050505"/>
<path d="M264.193 180.364C264.288 176.627 264.293 170.032 264.177 168.813C264.127 168.28 262.548 167.709 261.564 168.151C260.779 168.503 260.856 169.766 260.856 169.766C260.922 170.303 261.438 175.653 262.128 179.245C260.963 179.732 260.189 180.164 260.209 180.451C260.227 180.712 264.195 180.364 264.195 180.364H264.193Z" fill="#FFB680"/>
<path d="M213.165 72.4964C219.569 62.5804 233.943 78.3768 229.659 87.7218C226.991 93.534 216.71 108.168 208.378 119.806C207.491 121.048 204.456 124.049 199.947 123.48C195.545 122.927 194.357 117.508 194.925 115.9C199.499 102.979 213.163 72.4964 213.163 72.4964H213.165Z" fill="#007D9A"/>
<path d="M217.994 75.019C219.094 66.8888 228.149 65.6285 233.262 71.5408C235.793 74.4685 239.315 79.9418 239.342 83.0901C239.397 89.4915 236.334 105.759 233.734 119.858C233.456 121.362 231.988 125.377 227.669 126.799C223.453 128.186 220.08 123.796 219.912 122.097C218.566 108.45 217.994 75.0168 217.994 75.0168V75.019Z" fill="#007D9A"/>
<path d="M224.71 31.6427C218.625 34.4407 212.601 69.4549 209.633 80.4719C211.94 83.1653 216.017 87.1462 224.862 87.9401C238.005 89.123 239.362 86.7913 239.613 85.3855C238.876 79.4254 243.054 45.899 239.613 36.8497C238.403 33.6673 229.791 29.3064 224.71 31.6427Z" fill="#FFAC06"/>
<path d="M207.335 178.842C207.335 178.842 207.862 182.702 204.052 183.064C200.241 183.423 189.414 183.835 188.934 181.567C188.579 179.875 194.911 178.205 198.999 177.402C203.091 176.597 207.231 175.898 207.335 178.844V178.842Z" fill="#050505"/>
<path d="M205.042 179.728C202.434 180.107 192.105 181.024 192.154 180.119C192.216 179.02 203.257 177.25 204.755 177.198C206.852 177.125 206.834 179.468 205.042 179.728Z" fill="#FFB680"/>
<path d="M202.602 178.062C202.466 175.512 201.663 159.079 201.654 158.592L205.299 158.542C205.303 158.663 206.283 175.071 206.409 178.19C206.461 179.466 205.177 179.791 204.735 179.762C204.222 179.727 202.686 179.568 202.604 178.065L202.602 178.062Z" fill="#FFB680"/>
<path d="M195.622 123.327C195.265 120.761 195.066 119.956 194.808 117.265C194.537 114.437 197.941 110.479 203.45 112.738C207.087 114.23 207.718 118.65 207.657 119.756C207.227 127.556 207.293 147.42 207.347 156.124C207.363 158.715 206.343 160.073 205.657 160.862C204.332 162.391 203.038 162.643 201.488 161.344C200.638 160.63 199.226 159.386 199.086 156.893C198.717 150.332 197.559 137.338 195.622 123.327Z" fill="#007D9A"/>
<path d="M205.537 160.377L201.637 160.821L201.836 164.859C201.836 164.859 202.462 165.359 203.84 165.234C205.218 165.109 205.831 164.931 205.831 164.931L205.537 160.375V160.377Z" fill="#007D9A"/>
<path style="mix-blend-mode:color-burn" d="M204.468 161.069L204.656 165.146C204.864 165.119 205.045 165.091 205.196 165.064L205.011 161.042C205.004 160.892 204.877 160.774 204.728 160.781C204.579 160.787 204.463 160.915 204.47 161.067L204.468 161.069ZM202.382 165.112C202.531 165.16 202.715 165.201 202.932 165.228L202.776 161.818C202.769 161.668 202.642 161.552 202.493 161.556C202.341 161.561 202.226 161.69 202.233 161.843L202.384 165.112H202.382ZM203.432 161.538L203.601 165.253C203.678 165.251 203.76 165.244 203.843 165.237C203.947 165.228 204.047 165.216 204.144 165.207L203.975 161.513C203.968 161.363 203.841 161.247 203.692 161.254C203.54 161.263 203.427 161.388 203.434 161.538H203.432Z" fill="url(#paint46_linear_140_1545)"/>
<path d="M260.637 170.552C259.129 168.498 249.469 155.218 249.195 154.815L252.211 152.759C252.281 152.857 262.072 166.019 263.884 168.553C264.623 169.59 263.732 170.573 263.345 170.791C262.897 171.046 261.526 171.765 260.637 170.552Z" fill="#FFB680"/>
<path d="M224.872 128.701C223.171 126.756 222.565 126.194 220.877 124.087C219.104 121.876 219.783 116.687 225.619 115.527C229.471 114.761 232.417 118.105 232.971 119.062C236.878 125.814 247.797 142.368 252.604 149.606C254.034 151.763 253.926 153.46 253.783 154.5C253.512 156.511 252.571 157.436 250.566 157.209C249.465 157.084 247.605 156.824 246.126 154.82C242.23 149.545 234.154 139.333 224.875 128.703L224.872 128.701Z" fill="#007D9A"/>
<path d="M253.419 154.16L250.406 156.687L252.782 159.952C252.782 159.952 253.58 160.022 254.661 159.156C255.745 158.289 256.159 157.802 256.159 157.802L253.422 154.16H253.419Z" fill="#007D9A"/>
<path style="mix-blend-mode:color-burn" d="M252.902 155.332L255.289 158.632C255.449 158.494 255.583 158.371 255.696 158.266L253.341 155.011C253.253 154.89 253.083 154.863 252.961 154.952C252.841 155.04 252.812 155.211 252.902 155.334V155.332ZM253.371 159.861C253.522 159.818 253.696 159.752 253.893 159.654L251.898 156.892C251.81 156.769 251.64 156.742 251.518 156.831C251.393 156.919 251.369 157.09 251.457 157.213L253.371 159.858V159.861ZM252.291 156.294L254.465 159.301C254.529 159.256 254.592 159.208 254.658 159.156C254.739 159.09 254.816 159.026 254.893 158.964L252.73 155.973C252.642 155.852 252.472 155.825 252.35 155.914C252.23 156.005 252.201 156.173 252.289 156.294H252.291Z" fill="url(#paint47_linear_140_1545)"/>
<path d="M211.808 67.9536C197.321 55.1782 187.657 42.041 187.657 42.041L184.236 42.4209C184.236 42.4209 193.419 59.175 207.166 73.1834C207.166 73.1834 208.894 74.7781 211.401 72.3031C213.765 69.9691 211.955 68.0878 211.955 68.0878C211.905 68.0446 211.858 68.0014 211.808 67.9559V67.9536Z" fill="url(#paint48_linear_140_1545)"/>
<path d="M227.464 40.9197C228.197 41.0494 227.808 43.5016 228.543 43.6131C230.797 43.9543 236.343 35.997 234.147 31.461C233.093 29.2839 228.729 29.5137 227.245 30.7967C224.014 33.5879 222.745 41.8387 225.01 42.6053C225.91 42.9102 226.53 40.7559 227.464 40.922V40.9197Z" fill="#0FB7C6"/>
<path d="M223.142 19.3586C223.142 19.3586 217.841 15.935 220.531 6.32838C223.223 -3.27822 240.214 -1.34689 243.223 8.0982C246.234 17.5433 241.436 23.2827 237.665 25.0661C233.753 26.9179 230.55 26.3173 229.322 22.6321C226.738 14.8726 223.139 19.3586 223.139 19.3586H223.142Z" fill="#050505"/>
<path d="M223.501 11.4873C223.501 11.4873 220.321 22.1131 222.311 24.811C224.302 27.509 228.761 26.2214 228.761 26.2214C228.761 26.2214 227.836 30.2251 227.591 30.9803C227.349 31.7356 222.949 39.8294 228.121 40.405C232.935 40.9418 234.129 32.3953 234.129 32.3953L235.9 18.4824C235.9 18.4824 238.882 16.5875 237.884 14.1443C236.884 11.7035 233.989 14.8677 233.989 14.8677L235.38 8.9873C235.38 8.9873 227.005 12.7749 223.504 11.4828L223.501 11.4873Z" fill="#FFB680"/>
<path d="M231.709 42.0818C231.709 42.0818 221.341 55.1871 206.494 67.4029C206.494 67.4029 204.148 69.5322 206.15 72.1551C208.272 74.9349 210.7 72.9968 210.7 72.9968C210.761 72.9558 210.82 72.9149 210.878 72.8716C225.65 62.3983 236.873 48.9928 236.769 45.2325C236.667 41.4745 233.643 40.1869 231.709 42.0818Z" fill="#FFB680"/>
<path d="M219.989 54.0043L227.133 65.1168C227.133 65.1168 233.573 60.7878 238.448 54.7868C242.257 50.1007 240.961 32.5526 234.306 38.4376C229.994 42.2525 219.986 54.002 219.986 54.002L219.989 54.0043Z" fill="url(#paint49_linear_140_1545)"/>
<path d="M181.207 37.9148C182.193 37.7624 185.277 37.5349 185.394 38.322C185.677 40.1873 183.842 39.3911 182.067 40.9676C180.92 41.989 177.49 39.6118 177.49 39.6118C177.49 39.6118 179.155 38.2287 181.207 37.9148Z" fill="#FFB680"/>
<path d="M177.511 39.5842C180.723 37.0341 184.212 40.1984 187.087 44.4637C188.333 46.3131 182.257 50.7126 180.492 49.35C177.246 46.8431 172.423 43.6243 177.513 39.5819L177.511 39.5842Z" fill="#FFB680"/>
<path d="M183.305 38.4098C182.359 38.0891 179.362 37.3316 179.111 38.0845C178.514 39.8725 180.457 39.4062 181.936 41.267C182.891 42.4704 186.678 40.7233 186.678 40.7233C186.678 40.7233 185.273 39.0741 183.307 38.4076L183.305 38.4098Z" fill="#FB9D5F"/>
<path d="M186.66 40.6941C183.932 37.6253 179.39 40.9056 175.827 44.6113C174.282 46.2196 180.89 50.5691 181.813 50.1391C185.527 48.4103 190.983 45.5554 186.66 40.6941Z" fill="#FB9D5F"/>
<path d="M182.8 45.8446C186.134 43.4583 186.709 43.9679 187.971 45.0165C189.683 46.4406 183.053 51.4748 181.3 50.0985C179.592 48.7609 180.347 47.6008 182.802 45.8446H182.8Z" fill="#FFB680"/>
<path d="M113.987 39.0425C113.987 39.0425 103.717 52.2251 88.9581 64.5479C88.9581 64.5479 86.6281 66.6953 88.6482 69.3022C90.7905 72.0662 93.2042 70.1121 93.2042 70.1121C93.2653 70.0711 93.3241 70.0279 93.3829 69.9847C108.078 59.4022 119.201 45.9147 119.07 42.1567C118.941 38.3987 115.907 37.1339 113.985 39.0425H113.987Z" fill="#FFB680"/>
<path d="M102.709 51.0451L111.633 61.5434C111.633 61.5434 114.873 58.9774 119.626 52.8786C122.693 48.9409 119.619 31.1858 115.502 35.9857C111.751 40.3579 102.709 51.0451 102.709 51.0451Z" fill="url(#paint50_linear_140_1545)"/>
<path d="M94.154 65.0557C104.384 81.4776 116.475 93.946 116.475 93.946L114.819 96.5029C114.819 96.5029 99.8366 84.7124 88.2814 68.8296C88.2814 68.8296 86.992 66.8596 89.8219 64.7667C92.4913 62.7922 94.05 64.8896 94.05 64.8896C94.0839 64.9442 94.1178 64.9988 94.1563 65.0579L94.154 65.0557Z" fill="#FFB680"/>
<path d="M118.171 90.7949C119.137 90.547 122.184 90.0192 122.378 90.7927C122.84 92.6216 120.937 92.0074 119.32 93.7499C118.277 94.8783 114.633 92.8468 114.633 92.8468C114.633 92.8468 116.158 91.3091 118.169 90.7949H118.171Z" fill="#FFB680"/>
<path d="M114.655 92.8151C117.607 89.9647 120.962 94.6827 124.792 97.2919C126.634 98.5454 121.74 102.927 118.775 102.604C114.644 102.156 109.977 97.3329 114.655 92.8151Z" fill="#FFB680"/>
<path d="M136.2 56.9864C136.286 56.9614 136.374 56.925 136.467 56.8795C133.117 58.0442 122.376 59.8026 120.182 54.6865C120.901 61.5429 135.429 59.3499 136.474 58.258C136.383 57.8463 136.293 57.4209 136.198 56.9841L136.2 56.9864Z" fill="#FFBF4D"/>
</g>
<defs>
<linearGradient id="paint0_linear_140_1545" x1="24.8304" y1="169.097" x2="33.1251" y2="183.532" gradientUnits="userSpaceOnUse">
<stop stop-color="white"/>
<stop offset="1" stop-color="white"/>
</linearGradient>
<linearGradient id="paint1_linear_140_1545" x1="38.3113" y1="163.234" x2="38.3113" y2="187.443" gradientUnits="userSpaceOnUse">
<stop stop-color="white"/>
<stop offset="0.99" stop-color="#AEAEAE"/>
</linearGradient>
<linearGradient id="paint2_linear_140_1545" x1="120.326" y1="172.347" x2="116.588" y2="182.757" gradientUnits="userSpaceOnUse">
<stop stop-color="white"/>
<stop offset="0.99" stop-color="#AEAEAE"/>
</linearGradient>
<linearGradient id="paint3_linear_140_1545" x1="106.248" y1="167.184" x2="100.022" y2="180.889" gradientUnits="userSpaceOnUse">
<stop stop-color="white"/>
<stop offset="0.99" stop-color="#AEAEAE"/>
</linearGradient>
<linearGradient id="paint4_linear_140_1545" x1="86.5615" y1="160.257" x2="86.5615" y2="183.463" gradientUnits="userSpaceOnUse">
<stop stop-color="white"/>
<stop offset="0.99" stop-color="#AEAEAE"/>
</linearGradient>
<linearGradient id="paint5_linear_140_1545" x1="78.1052" y1="202.096" x2="56.0406" y2="148.385" gradientUnits="userSpaceOnUse">
<stop stop-color="white"/>
<stop offset="1" stop-color="white"/>
</linearGradient>
<linearGradient id="paint6_linear_140_1545" x1="293.331" y1="142.873" x2="274.661" y2="156.998" gradientUnits="userSpaceOnUse">
<stop stop-color="white"/>
<stop offset="1" stop-color="#878787"/>
</linearGradient>
<linearGradient id="paint7_linear_140_1545" x1="302.5" y1="123.236" x2="271.352" y2="165.335" gradientUnits="userSpaceOnUse">
<stop stop-color="white"/>
<stop offset="1" stop-color="white"/>
</linearGradient>
<linearGradient id="paint8_linear_140_1545" x1="289.005" y1="139.743" x2="266.745" y2="188.103" gradientUnits="userSpaceOnUse">
<stop stop-color="white"/>
<stop offset="1" stop-color="#878787"/>
</linearGradient>
<linearGradient id="paint9_linear_140_1545" x1="326.182" y1="175.494" x2="319.463" y2="181.292" gradientUnits="userSpaceOnUse">
<stop stop-color="white"/>
<stop offset="0.99" stop-color="#AEAEAE"/>
</linearGradient>
<linearGradient id="paint10_linear_140_1545" x1="320.473" y1="186.11" x2="297.932" y2="167.671" gradientUnits="userSpaceOnUse">
<stop stop-color="white"/>
<stop offset="0.99" stop-color="#AEAEAE"/>
</linearGradient>
<linearGradient id="paint11_linear_140_1545" x1="319.234" y1="164.816" x2="295.135" y2="164.485" gradientUnits="userSpaceOnUse">
<stop stop-color="white"/>
<stop offset="1" stop-color="#878787"/>
</linearGradient>
<linearGradient id="paint12_linear_140_1545" x1="339.098" y1="154.725" x2="287.212" y2="169.138" gradientUnits="userSpaceOnUse">
<stop stop-color="white"/>
<stop offset="1" stop-color="white"/>
</linearGradient>
<linearGradient id="paint13_linear_140_1545" x1="304.706" y1="172.027" x2="267.294" y2="185.456" gradientUnits="userSpaceOnUse">
<stop stop-color="white"/>
<stop offset="1" stop-color="#878787"/>
</linearGradient>
<linearGradient id="paint14_linear_140_1545" x1="259.763" y1="186.579" x2="314.312" y2="170.293" gradientUnits="userSpaceOnUse">
<stop stop-color="white"/>
<stop offset="0.99" stop-color="#AEAEAE"/>
</linearGradient>
<linearGradient id="paint15_linear_140_1545" x1="308.942" y1="150.842" x2="271.931" y2="170.457" gradientUnits="userSpaceOnUse">
<stop stop-color="white"/>
<stop offset="1" stop-color="#878787"/>
</linearGradient>
<linearGradient id="paint16_linear_140_1545" x1="226.701" y1="211.159" x2="299.993" y2="150.2" gradientUnits="userSpaceOnUse">
<stop stop-color="white"/>
<stop offset="0.99" stop-color="#AEAEAE"/>
</linearGradient>
<linearGradient id="paint17_linear_140_1545" x1="295.494" y1="175.293" x2="267.004" y2="175.293" gradientUnits="userSpaceOnUse">
<stop stop-color="white"/>
<stop offset="0.99" stop-color="#AEAEAE"/>
</linearGradient>
<linearGradient id="paint18_linear_140_1545" x1="317.81" y1="158.508" x2="287.219" y2="175.555" gradientUnits="userSpaceOnUse">
<stop stop-color="white"/>
<stop offset="0.99" stop-color="#AEAEAE"/>
</linearGradient>
<linearGradient id="paint19_linear_140_1545" x1="274.773" y1="140.987" x2="263.205" y2="166.854" gradientUnits="userSpaceOnUse">
<stop stop-color="white"/>
<stop offset="1" stop-color="#878787"/>
</linearGradient>
<linearGradient id="paint20_linear_140_1545" x1="273.135" y1="114.847" x2="264.73" y2="177.63" gradientUnits="userSpaceOnUse">
<stop stop-color="white"/>
<stop offset="1" stop-color="white"/>
</linearGradient>
<linearGradient id="paint21_linear_140_1545" x1="256.234" y1="137.427" x2="273.379" y2="206.036" gradientUnits="userSpaceOnUse">
<stop stop-color="white"/>
<stop offset="1" stop-color="#878787"/>
</linearGradient>
<linearGradient id="paint22_linear_140_1545" x1="228.905" y1="203.973" x2="253.176" y2="144.888" gradientUnits="userSpaceOnUse">
<stop stop-color="white"/>
<stop offset="1" stop-color="white"/>
</linearGradient>
<linearGradient id="paint23_linear_140_1545" x1="138.682" y1="165.327" x2="142.866" y2="123.564" gradientUnits="userSpaceOnUse">
<stop stop-color="#FFB680"/>
<stop offset="1" stop-color="#FC9E5E"/>
</linearGradient>
<linearGradient id="paint24_linear_140_1545" x1="211.603" y1="53.8542" x2="205.134" y2="61.3732" gradientUnits="userSpaceOnUse">
<stop stop-color="#FFB680"/>
<stop offset="1" stop-color="#FC9E5E"/>
</linearGradient>
<linearGradient id="paint25_linear_140_1545" x1="225.652" y1="37.9408" x2="220.032" y2="48.573" gradientUnits="userSpaceOnUse">
<stop stop-color="#FECD6C"/>
<stop offset="1" stop-color="#F7AF2F"/>
</linearGradient>
<linearGradient id="paint26_linear_140_1545" x1="126.154" y1="39.2091" x2="133.314" y2="50.6581" gradientUnits="userSpaceOnUse">
<stop stop-color="#FECD6C"/>
<stop offset="1" stop-color="#F7AF2F"/>
</linearGradient>
<linearGradient id="paint27_linear_140_1545" x1="128.038" y1="43.4986" x2="129.502" y2="52.1858" gradientUnits="userSpaceOnUse">
<stop stop-color="white"/>
<stop offset="1" stop-color="#A0A0A0"/>
</linearGradient>
<linearGradient id="paint28_linear_140_1545" x1="126.395" y1="153.876" x2="140.116" y2="76.6465" gradientUnits="userSpaceOnUse">
<stop stop-color="white"/>
<stop offset="1" stop-color="#A0A0A0"/>
</linearGradient>
<linearGradient id="paint29_linear_140_1545" x1="236.457" y1="66.081" x2="236.457" y2="124.148" gradientUnits="userSpaceOnUse">
<stop stop-color="white"/>
<stop offset="1" stop-color="#A0A0A0"/>
</linearGradient>
<linearGradient id="paint30_linear_140_1545" x1="85.1074" y1="48.7949" x2="85.1074" y2="128.218" gradientUnits="userSpaceOnUse">
<stop stop-color="white"/>
<stop offset="1" stop-color="#A0A0A0"/>
</linearGradient>
<linearGradient id="paint31_linear_140_1545" x1="137.862" y1="62.8486" x2="185.224" y2="89.7371" gradientUnits="userSpaceOnUse">
<stop stop-color="white"/>
<stop offset="1" stop-color="white"/>
</linearGradient>
<linearGradient id="paint32_linear_140_1545" x1="139.281" y1="60.3492" x2="186.645" y2="87.2377" gradientUnits="userSpaceOnUse">
<stop stop-color="white"/>
<stop offset="1" stop-color="white"/>
</linearGradient>
<linearGradient id="paint33_linear_140_1545" x1="158.362" y1="77.6082" x2="158.362" y2="129.481" gradientUnits="userSpaceOnUse">
<stop stop-color="white"/>
<stop offset="1" stop-color="#A0A0A0"/>
</linearGradient>
<linearGradient id="paint34_linear_140_1545" x1="192.436" y1="83.0403" x2="211.297" y2="93.7483" gradientUnits="userSpaceOnUse">
<stop stop-color="white"/>
<stop offset="1" stop-color="white"/>
</linearGradient>
<linearGradient id="paint35_linear_140_1545" x1="193.001" y1="82.0442" x2="211.862" y2="92.7522" gradientUnits="userSpaceOnUse">
<stop stop-color="white"/>
<stop offset="1" stop-color="white"/>
</linearGradient>
<linearGradient id="paint36_linear_140_1545" x1="200.599" y1="88.9158" x2="200.599" y2="109.576" gradientUnits="userSpaceOnUse">
<stop stop-color="white"/>
<stop offset="1" stop-color="#A0A0A0"/>
</linearGradient>
<linearGradient id="paint37_linear_140_1545" x1="119.735" y1="83.0403" x2="138.596" y2="93.7484" gradientUnits="userSpaceOnUse">
<stop stop-color="white"/>
<stop offset="1" stop-color="white"/>
</linearGradient>
<linearGradient id="paint38_linear_140_1545" x1="120.302" y1="82.0442" x2="139.163" y2="92.7522" gradientUnits="userSpaceOnUse">
<stop stop-color="white"/>
<stop offset="1" stop-color="white"/>
</linearGradient>
<linearGradient id="paint39_linear_140_1545" x1="127.899" y1="88.9158" x2="127.899" y2="109.576" gradientUnits="userSpaceOnUse">
<stop stop-color="white"/>
<stop offset="1" stop-color="#A0A0A0"/>
</linearGradient>
<linearGradient id="paint40_linear_140_1545" x1="218.602" y1="88.0105" x2="230.445" y2="94.735" gradientUnits="userSpaceOnUse">
<stop stop-color="white"/>
<stop offset="1" stop-color="white"/>
</linearGradient>
<linearGradient id="paint41_linear_140_1545" x1="218.954" y1="87.3851" x2="230.797" y2="94.1095" gradientUnits="userSpaceOnUse">
<stop stop-color="white"/>
<stop offset="1" stop-color="white"/>
</linearGradient>
<linearGradient id="paint42_linear_140_1545" x1="223.725" y1="91.7002" x2="223.725" y2="104.673" gradientUnits="userSpaceOnUse">
<stop stop-color="white"/>
<stop offset="1" stop-color="#A0A0A0"/>
</linearGradient>
<linearGradient id="paint43_linear_140_1545" x1="102.548" y1="88.0105" x2="114.391" y2="94.7348" gradientUnits="userSpaceOnUse">
<stop stop-color="white"/>
<stop offset="1" stop-color="white"/>
</linearGradient>
<linearGradient id="paint44_linear_140_1545" x1="102.901" y1="87.3851" x2="114.744" y2="94.1095" gradientUnits="userSpaceOnUse">
<stop stop-color="white"/>
<stop offset="1" stop-color="white"/>
</linearGradient>
<linearGradient id="paint45_linear_140_1545" x1="107.672" y1="91.7002" x2="107.672" y2="104.673" gradientUnits="userSpaceOnUse">
<stop stop-color="white"/>
<stop offset="1" stop-color="#A0A0A0"/>
</linearGradient>
<linearGradient id="paint46_linear_140_1545" x1="205.096" y1="166.595" x2="202.894" y2="161.103" gradientUnits="userSpaceOnUse">
<stop stop-color="white"/>
<stop offset="0.99" stop-color="#AEAEAE"/>
</linearGradient>
<linearGradient id="paint47_linear_140_1545" x1="255.749" y1="160.301" x2="251.992" y2="155.617" gradientUnits="userSpaceOnUse">
<stop stop-color="white"/>
<stop offset="0.99" stop-color="#AEAEAE"/>
</linearGradient>
<linearGradient id="paint48_linear_140_1545" x1="199.391" y1="57.5326" x2="191.002" y2="45.201" gradientUnits="userSpaceOnUse">
<stop stop-color="#FFB680"/>
<stop offset="1" stop-color="#FC9E5E"/>
</linearGradient>
<linearGradient id="paint49_linear_140_1545" x1="234.606" y1="46.8897" x2="225.297" y2="59.7015" gradientUnits="userSpaceOnUse">
<stop stop-color="#FECD6C"/>
<stop offset="1" stop-color="#F7AF2F"/>
</linearGradient>
<linearGradient id="paint50_linear_140_1545" x1="114.537" y1="47.9661" x2="107.768" y2="55.9682" gradientUnits="userSpaceOnUse">
<stop stop-color="#FECD6C"/>
<stop offset="1" stop-color="#F7AF2F"/>
</linearGradient>
<clipPath id="clip0_140_1545">
<rect width="345" height="187" fill="white"/>
</clipPath>
</defs>
</svg>
