<svg width="215" height="25" viewBox="0 0 215 25" fill="none" xmlns="http://www.w3.org/2000/svg">
<path d="M15.1935 25C14.2744 25 13.4564 24.8246 12.7394 24.4737C12.0409 24.1404 11.4894 23.6403 11.0849 22.9737C10.6805 22.307 10.4783 21.5088 10.4783 20.5789C10.4783 20.3509 10.4875 20.114 10.5059 19.8684C10.5243 19.6403 10.5518 19.4035 10.5886 19.1579C9.0812 19.2456 7.68409 19.0789 6.39728 18.6579C5.11047 18.2368 3.98911 17.614 3.03319 16.7895C2.07728 15.9474 1.33277 14.9386 0.79966 13.7632C0.266553 12.5702 0 11.2632 0 9.8421C0 8.54386 0.229787 7.33333 0.689362 6.21053C1.14894 5.07018 1.81072 4.07017 2.67473 3.21053C3.53873 2.35088 4.57737 1.68421 5.79064 1.21053C7.0223 0.719298 8.38264 0.473684 9.87167 0.473684C11.3607 0.473684 12.7118 0.710526 13.9251 1.18421C15.1384 1.65789 16.177 2.32456 17.041 3.18421C17.905 4.02632 18.5668 5 19.0264 6.10526C19.5044 7.21053 19.7433 8.40351 19.7433 9.68421V20.2895C19.7433 21.2368 19.5595 22.0614 19.1918 22.7632C18.8242 23.4825 18.3003 24.0351 17.6201 24.4211C16.9583 24.807 16.1495 25 15.1935 25ZM15.0281 22.7368C15.6347 22.7368 16.1311 22.5263 16.5171 22.1053C16.9032 21.7018 17.0962 21.114 17.0962 20.3421V14.0789C16.1587 14.6579 15.4141 15.2456 14.8626 15.8421C14.3112 16.4386 13.8975 17.0175 13.6218 17.5789C13.3644 18.1403 13.1898 18.6579 13.0979 19.1316C13.0244 19.6053 12.9876 20 12.9876 20.3158C12.9876 20.8246 13.0795 21.2544 13.2633 21.6053C13.4655 21.9737 13.7229 22.2544 14.0354 22.4474C14.3479 22.6404 14.6788 22.7368 15.0281 22.7368ZM9.87167 17C10.1658 17 10.4415 16.9912 10.6989 16.9737C10.9563 16.9386 11.232 16.886 11.5261 16.8158C11.7835 16.2193 12.142 15.614 12.6015 15C13.0795 14.386 13.6769 13.7807 14.3939 13.1842C15.1292 12.5702 16.03 12 17.0962 11.4737V9.68421C17.0962 8.68421 16.9124 7.76316 16.5447 6.92105C16.1954 6.0614 15.6899 5.32456 15.0281 4.71053C14.3847 4.07895 13.6218 3.58772 12.7394 3.23684C11.857 2.86842 10.9011 2.68421 9.87167 2.68421C8.82384 2.68421 7.85873 2.86842 6.97635 3.23684C6.11234 3.58772 5.34945 4.08772 4.68766 4.73684C4.04426 5.38596 3.53873 6.14912 3.17107 7.02631C2.82179 7.88596 2.64715 8.82456 2.64715 9.8421C2.64715 10.8596 2.82179 11.807 3.17107 12.6842C3.53873 13.5439 4.04426 14.2982 4.68766 14.9474C5.34945 15.5965 6.11234 16.1053 6.97635 16.4737C7.85873 16.8246 8.82384 17 9.87167 17Z" fill="#0FB7C6"/>
<path d="M23.4456 19.2105V9.60526C23.4456 8.41228 23.7949 7.48246 24.4935 6.81579C25.2104 6.13158 26.1939 5.78947 27.4439 5.78947H30.3393V7.86842H27.9127C27.3061 7.86842 26.8281 8.03509 26.4788 8.36842C26.1479 8.70175 25.9825 9.16667 25.9825 9.76316V19.2105H23.4456Z" fill="#0FB7C6"/>
<path d="M38.5297 19.5263C37.1694 19.5263 35.9929 19.2193 35.0002 18.6053C34.0075 17.9737 33.2446 17.1228 32.7115 16.0526C32.1784 14.9825 31.9119 13.7982 31.9119 12.5C31.9119 11.1842 32.206 10 32.7943 8.94737C33.3825 7.87719 34.2281 7.03509 35.3311 6.42105C36.4341 5.78947 37.7577 5.47368 39.3018 5.47368C40.7909 5.47368 42.0685 5.7807 43.1347 6.39474C44.2009 7.00877 45.0189 7.8421 45.5888 8.89474C46.1771 9.94737 46.4712 11.1228 46.4712 12.4211V19.2105H43.9068V16.4737H43.8516C43.5759 16.9825 43.199 17.4737 42.7211 17.9474C42.2615 18.4035 41.6824 18.7807 40.9839 19.0789C40.2853 19.3772 39.4673 19.5263 38.5297 19.5263ZM39.1915 17.4474C40.1107 17.4474 40.9195 17.2368 41.6181 16.8158C42.335 16.3772 42.8865 15.7807 43.2726 15.0263C43.677 14.2544 43.8792 13.3947 43.8792 12.4474C43.8792 11.5175 43.6862 10.6842 43.3001 9.94737C42.9325 9.21053 42.3994 8.63158 41.7008 8.21053C41.0023 7.77193 40.1842 7.55263 39.2467 7.55263C38.254 7.55263 37.3992 7.77193 36.6823 8.21053C35.9837 8.64912 35.4414 9.24561 35.0554 10C34.6877 10.7368 34.5039 11.5789 34.5039 12.5263C34.5039 13.4386 34.6877 14.2719 35.0554 15.0263C35.423 15.7632 35.9561 16.3509 36.6547 16.7895C37.3532 17.2281 38.1988 17.4474 39.1915 17.4474Z" fill="#0FB7C6"/>
<path d="M56.9904 19.5263C55.9242 19.5263 54.9499 19.3684 54.0675 19.0526C53.1852 18.7193 52.4223 18.2368 51.7789 17.6053C51.1354 16.9737 50.6299 16.2193 50.2623 15.3421C49.913 14.4474 49.7383 13.4474 49.7383 12.3421C49.7383 10.9386 50.0325 9.72807 50.6207 8.71052C51.2274 7.67544 52.0454 6.87719 53.0749 6.31579C54.1227 5.75439 55.29 5.47368 56.5768 5.47368C57.2938 5.47368 57.9739 5.58772 58.6173 5.81579C59.2791 6.04386 59.8674 6.35965 60.3821 6.76316C60.8968 7.16667 61.3012 7.64035 61.5954 8.18421H61.6505V0H64.1874V12.4211C64.1874 13.9123 63.8657 15.193 63.2223 16.2632C62.5972 17.3158 61.7424 18.1228 60.6578 18.6842C59.5916 19.2456 58.3692 19.5263 56.9904 19.5263ZM56.9904 17.4474C57.8544 17.4474 58.6357 17.2456 59.3343 16.8421C60.0328 16.4386 60.5843 15.8684 60.9887 15.1316C61.4115 14.3947 61.6229 13.5263 61.6229 12.5263C61.6229 11.5088 61.4115 10.6316 60.9887 9.89474C60.5843 9.14035 60.0328 8.5614 59.3343 8.15789C58.6357 7.75439 57.8452 7.55263 56.9629 7.55263C56.0989 7.55263 55.3084 7.76316 54.5914 8.18421C53.8929 8.60526 53.3322 9.18421 52.9094 9.92105C52.505 10.6579 52.3028 11.5175 52.3028 12.5C52.3028 13.5175 52.5142 14.3947 52.937 15.1316C53.3598 15.8684 53.9205 16.4386 54.619 16.8421C55.336 17.2456 56.1264 17.4474 56.9904 17.4474Z" fill="#0FB7C6"/>
<path d="M67.9285 19.2105V17.1316H74.6566C75.0978 17.1316 75.4747 17.0439 75.7872 16.8684C76.1181 16.6754 76.3663 16.4298 76.5317 16.1316C76.6971 15.8333 76.7799 15.5175 76.7799 15.1842C76.7799 14.8684 76.7063 14.5789 76.5593 14.3158C76.4122 14.0351 76.1824 13.8158 75.8699 13.6579C75.5758 13.4825 75.2173 13.3947 74.7945 13.3947H71.9543C71.0536 13.3947 70.2631 13.2544 69.5829 12.9737C68.9211 12.6754 68.3972 12.2456 68.0112 11.6842C67.6435 11.1228 67.4597 10.4386 67.4597 9.63158C67.4597 8.94737 67.6343 8.31579 67.9836 7.73684C68.3329 7.15789 68.82 6.69298 69.4451 6.3421C70.0701 5.97368 70.787 5.78947 71.5959 5.78947H78.0759V7.86842H71.844C71.2742 7.86842 70.8238 8.03509 70.4929 8.36842C70.162 8.70175 69.9965 9.09649 69.9965 9.55263C69.9965 9.99123 70.162 10.3772 70.4929 10.7105C70.8422 11.0263 71.3293 11.1842 71.9543 11.1842H74.6566C75.6677 11.1842 76.5133 11.3421 77.1935 11.6579C77.892 11.9561 78.416 12.3947 78.7652 12.9737C79.1329 13.5526 79.3167 14.2632 79.3167 15.1053C79.3167 15.8246 79.1329 16.5 78.7652 17.1316C78.3976 17.7456 77.8829 18.2456 77.2211 18.6316C76.5777 19.0175 75.824 19.2105 74.9599 19.2105H67.9285Z" fill="#0FB7C6"/>
<path d="M104.299 25C103.38 25 102.562 24.8246 101.845 24.4737C101.146 24.1404 100.595 23.6403 100.19 22.9737C99.786 22.307 99.5838 21.5088 99.5838 20.5789C99.5838 20.3509 99.593 20.114 99.6113 19.8684C99.6297 19.6403 99.6573 19.4035 99.6941 19.1579C98.1867 19.2456 96.7895 19.0789 95.5027 18.6579C94.2159 18.2368 93.0946 17.614 92.1386 16.7895C91.1827 15.9474 90.4382 14.9386 89.9051 13.7632C89.372 12.5702 89.1054 11.2632 89.1054 9.8421C89.1054 8.54386 89.3352 7.33333 89.7948 6.21053C90.2544 5.07018 90.9162 4.07017 91.7802 3.21053C92.6442 2.35088 93.6828 1.68421 94.8961 1.21053C96.1278 0.719298 97.4881 0.473684 98.9771 0.473684C100.466 0.473684 101.817 0.710526 103.031 1.18421C104.244 1.65789 105.282 2.32456 106.146 3.18421C107.01 4.02632 107.672 5 108.132 6.10526C108.61 7.21053 108.849 8.40351 108.849 9.68421V20.2895C108.849 21.2368 108.665 22.0614 108.297 22.7632C107.93 23.4825 107.406 24.0351 106.726 24.4211C106.064 24.807 105.255 25 104.299 25ZM104.134 22.7368C104.74 22.7368 105.237 22.5263 105.623 22.1053C106.009 21.7018 106.202 21.114 106.202 20.3421V14.0789C105.264 14.6579 104.52 15.2456 103.968 15.8421C103.417 16.4386 103.003 17.0175 102.727 17.5789C102.47 18.1403 102.295 18.6579 102.203 19.1316C102.13 19.6053 102.093 20 102.093 20.3158C102.093 20.8246 102.185 21.2544 102.369 21.6053C102.571 21.9737 102.828 22.2544 103.141 22.4474C103.453 22.6404 103.784 22.7368 104.134 22.7368ZM98.9771 17C99.2712 17 99.547 16.9912 99.8043 16.9737C100.062 16.9386 100.337 16.886 100.632 16.8158C100.889 16.2193 101.247 15.614 101.707 15C102.185 14.386 102.782 13.7807 103.499 13.1842C104.235 12.5702 105.135 12 106.202 11.4737V9.68421C106.202 8.68421 106.018 7.76316 105.65 6.92105C105.301 6.0614 104.795 5.32456 104.134 4.71053C103.49 4.07895 102.727 3.58772 101.845 3.23684C100.962 2.86842 100.007 2.68421 98.9771 2.68421C97.9293 2.68421 96.9642 2.86842 96.0818 3.23684C95.2178 3.58772 94.4549 4.08772 93.7931 4.73684C93.1497 5.38596 92.6442 6.14912 92.2765 7.02631C91.9272 7.88596 91.7526 8.82456 91.7526 9.8421C91.7526 10.8596 91.9272 11.807 92.2765 12.6842C92.6442 13.5439 93.1497 14.2982 93.7931 14.9474C94.4549 15.5965 95.2178 16.1053 96.0818 16.4737C96.9642 16.8246 97.9293 17 98.9771 17Z" fill="black"/>
<path d="M118.48 19.5263C117.119 19.5263 115.943 19.2193 114.95 18.6053C113.957 17.9737 113.194 17.1228 112.661 16.0526C112.128 14.9825 111.862 13.7982 111.862 12.5C111.862 11.1842 112.156 10 112.744 8.94737C113.332 7.87719 114.178 7.03509 115.281 6.42105C116.384 5.78947 117.708 5.47368 119.252 5.47368C120.741 5.47368 122.018 5.7807 123.085 6.39474C124.151 7.00877 124.969 7.8421 125.539 8.89474C126.127 9.94737 126.421 11.1228 126.421 12.4211V19.2105H123.857V16.4737H123.801C123.526 16.9825 123.149 17.4737 122.671 17.9474C122.211 18.4035 121.632 18.7807 120.934 19.0789C120.235 19.3772 119.417 19.5263 118.48 19.5263ZM119.141 17.4474C120.061 17.4474 120.869 17.2368 121.568 16.8158C122.285 16.3772 122.836 15.7807 123.222 15.0263C123.627 14.2544 123.829 13.3947 123.829 12.4474C123.829 11.5175 123.636 10.6842 123.25 9.94737C122.882 9.21053 122.349 8.63158 121.651 8.21053C120.952 7.77193 120.134 7.55263 119.197 7.55263C118.204 7.55263 117.349 7.77193 116.632 8.21053C115.934 8.64912 115.391 9.24561 115.005 10C114.638 10.7368 114.454 11.5789 114.454 12.5263C114.454 13.4386 114.638 14.2719 115.005 15.0263C115.373 15.7632 115.906 16.3509 116.605 16.7895C117.303 17.2281 118.149 17.4474 119.141 17.4474Z" fill="black"/>
<path d="M135.258 19.2105C134.008 19.2105 133.025 18.8684 132.308 18.1842C131.609 17.5 131.26 16.5702 131.26 15.3947V2.42105H133.797V15.2368C133.797 15.8158 133.962 16.2807 134.293 16.6316C134.642 16.9649 135.12 17.1316 135.727 17.1316H138.567V19.2105H135.258ZM128.833 7.86842V5.78947H138.622V7.86842H133.728H128.833Z" fill="black"/>
<path d="M148.4 19.2105C146.856 19.2105 145.487 18.9386 144.292 18.3947C143.097 17.8333 142.159 17.0526 141.479 16.0526C140.817 15.0351 140.486 13.8509 140.486 12.5C140.486 11.1667 140.771 9.97368 141.341 8.92105C141.911 7.85088 142.702 7.00877 143.713 6.39474C144.724 5.7807 145.9 5.47368 147.242 5.47368C148.694 5.47368 149.899 5.77193 150.854 6.36842C151.829 6.96491 152.555 7.77193 153.033 8.78947C153.511 9.78947 153.75 10.9123 153.75 12.1579C153.75 12.3509 153.741 12.5526 153.722 12.7632C153.722 12.9737 153.704 13.1579 153.667 13.3158H143.189C143.281 14.1404 143.566 14.8421 144.044 15.4211C144.521 15.9825 145.128 16.4123 145.863 16.7105C146.617 16.9912 147.444 17.1316 148.345 17.1316H152.013V19.2105H148.4ZM143.161 11.6053H151.185C151.185 11.2719 151.149 10.9211 151.075 10.5526C151.001 10.1667 150.873 9.79824 150.689 9.44737C150.505 9.07895 150.257 8.75439 149.944 8.47368C149.65 8.17544 149.273 7.93859 148.814 7.76316C148.373 7.58772 147.849 7.5 147.242 7.5C146.599 7.5 146.029 7.62281 145.533 7.86842C145.055 8.09649 144.641 8.41228 144.292 8.81579C143.942 9.20175 143.676 9.64035 143.492 10.1316C143.308 10.6228 143.198 11.114 143.161 11.6053Z" fill="black"/>
<path d="M161.7 19.5263C160.817 19.5263 160.018 19.3684 159.301 19.0526C158.602 18.7193 158.042 18.2105 157.619 17.5263C157.196 16.8246 156.985 15.9298 156.985 14.8421V5.78947H159.521V15.2632C159.521 15.7368 159.623 16.1404 159.825 16.4737C160.027 16.807 160.294 17.0526 160.624 17.2105C160.955 17.3684 161.305 17.4474 161.672 17.4474C162.04 17.4474 162.389 17.3684 162.72 17.2105C163.051 17.0351 163.318 16.7895 163.52 16.4737C163.74 16.1404 163.851 15.7368 163.851 15.2632V10.0526C163.851 9.01754 164.053 8.16667 164.457 7.5C164.862 6.81579 165.413 6.30702 166.112 5.97368C166.81 5.64035 167.601 5.47368 168.483 5.47368C169.366 5.47368 170.156 5.64035 170.855 5.97368C171.553 6.30702 172.105 6.81579 172.509 7.5C172.913 8.16667 173.116 9.01754 173.116 10.0526V15.2632C173.116 15.7368 173.217 16.1404 173.419 16.4737C173.621 16.7895 173.888 17.0351 174.219 17.2105C174.55 17.3684 174.908 17.4474 175.294 17.4474C175.68 17.4474 176.029 17.3684 176.342 17.2105C176.654 17.0351 176.912 16.7895 177.114 16.4737C177.316 16.1404 177.417 15.7368 177.417 15.2632V5.78947H179.982V14.8421C179.982 15.9298 179.77 16.8246 179.347 17.5263C178.925 18.2105 178.355 18.7193 177.638 19.0526C176.939 19.3684 176.158 19.5263 175.294 19.5263C174.448 19.5263 173.667 19.3684 172.95 19.0526C172.233 18.7193 171.654 18.2105 171.213 17.5263C170.79 16.8246 170.579 15.9298 170.579 14.8421V9.68421C170.579 9.19298 170.478 8.78947 170.275 8.47368C170.073 8.15789 169.816 7.92982 169.503 7.78947C169.191 7.63158 168.851 7.55263 168.483 7.55263C168.115 7.55263 167.766 7.63158 167.435 7.78947C167.123 7.92982 166.865 8.15789 166.663 8.47368C166.479 8.78947 166.387 9.19298 166.387 9.68421V14.8421C166.387 15.9298 166.167 16.8246 165.726 17.5263C165.303 18.2105 164.733 18.7193 164.016 19.0526C163.318 19.3684 162.545 19.5263 161.7 19.5263Z" fill="black"/>
<path d="M189.866 19.5263C188.506 19.5263 187.329 19.2193 186.337 18.6053C185.344 17.9737 184.581 17.1228 184.048 16.0526C183.515 14.9825 183.248 13.7982 183.248 12.5C183.248 11.1842 183.543 10 184.131 8.94737C184.719 7.87719 185.565 7.03509 186.668 6.42105C187.771 5.78947 189.094 5.47368 190.638 5.47368C192.127 5.47368 193.405 5.7807 194.471 6.39474C195.537 7.00877 196.355 7.8421 196.925 8.89474C197.514 9.94737 197.808 11.1228 197.808 12.4211V19.2105H195.243V16.4737H195.188C194.912 16.9825 194.536 17.4737 194.058 17.9474C193.598 18.4035 193.019 18.7807 192.32 19.0789C191.622 19.3772 190.804 19.5263 189.866 19.5263ZM190.528 17.4474C191.447 17.4474 192.256 17.2368 192.955 16.8158C193.672 16.3772 194.223 15.7807 194.609 15.0263C195.014 14.2544 195.216 13.3947 195.216 12.4474C195.216 11.5175 195.023 10.6842 194.637 9.94737C194.269 9.21053 193.736 8.63158 193.037 8.21053C192.339 7.77193 191.521 7.55263 190.583 7.55263C189.591 7.55263 188.736 7.77193 188.019 8.21053C187.32 8.64912 186.778 9.24561 186.392 10C186.024 10.7368 185.84 11.5789 185.84 12.5263C185.84 13.4386 186.024 14.2719 186.392 15.0263C186.76 15.7632 187.293 16.3509 187.991 16.7895C188.69 17.2281 189.535 17.4474 190.528 17.4474Z" fill="black"/>
<path d="M207.169 24.5526V19.4211C206.139 19.2807 205.22 18.9561 204.411 18.4474C203.621 17.921 202.996 17.2456 202.536 16.4211C202.077 15.5789 201.847 14.6228 201.847 13.5526V5.78947H204.411V13.5263C204.411 14.3333 204.595 15.0351 204.963 15.6316C205.331 16.2105 205.818 16.6579 206.424 16.9737C207.049 17.2895 207.711 17.4474 208.41 17.4474C209.127 17.4474 209.788 17.2895 210.395 16.9737C211.02 16.6579 211.516 16.2105 211.884 15.6316C212.27 15.0351 212.463 14.3333 212.463 13.5263V5.78947H215V13.5526C215 14.6228 214.77 15.5702 214.311 16.3947C213.869 17.2193 213.244 17.8947 212.436 18.4211C211.645 18.9298 210.735 19.2632 209.706 19.4211V24.5526H207.169Z" fill="black"/>
</svg>
