<svg width="1547" height="257" viewBox="0 0 1547 257" fill="none" xmlns="http://www.w3.org/2000/svg">
<path d="M402.748 220.165C397.488 220.165 392.806 219.113 388.703 217.009C384.705 215.01 381.549 212.011 379.235 208.014C376.92 204.016 375.763 199.229 375.763 193.653C375.763 192.285 375.815 190.865 375.921 189.392C376.026 188.024 376.184 186.604 376.394 185.131C367.767 185.657 359.771 184.658 352.407 182.133C345.042 179.608 338.625 175.873 333.154 170.928C327.683 165.878 323.422 159.829 320.371 152.78C317.32 145.626 315.795 137.788 315.795 129.266C315.795 121.481 317.11 114.221 319.74 107.488C322.37 100.65 326.158 94.6529 331.102 89.4978C336.047 84.3426 341.991 80.3448 348.935 77.5042C355.984 74.5584 363.769 73.0855 372.291 73.0855C380.813 73.0855 388.545 74.5058 395.489 77.3463C402.433 80.1869 408.377 84.1848 413.322 89.34C418.266 94.3899 422.054 100.229 424.684 106.857C427.419 113.485 428.787 120.639 428.787 128.319V191.917C428.787 197.598 427.735 202.543 425.631 206.751C423.527 211.064 420.528 214.379 416.636 216.693C412.848 219.008 408.219 220.165 402.748 220.165ZM401.801 206.593C405.273 206.593 408.114 205.331 410.323 202.806C412.533 200.386 413.637 196.862 413.637 192.232V154.674C408.272 158.145 404.011 161.67 400.855 165.247C397.698 168.824 395.331 172.296 393.753 175.662C392.28 179.029 391.281 182.133 390.755 184.973C390.334 187.814 390.123 190.181 390.123 192.075C390.123 195.126 390.649 197.703 391.702 199.807C392.859 202.017 394.332 203.7 396.12 204.857C397.909 206.015 399.803 206.593 401.801 206.593ZM372.291 172.19C373.974 172.19 375.552 172.138 377.025 172.033C378.498 171.822 380.076 171.507 381.759 171.086C383.232 167.509 385.284 163.879 387.914 160.197C390.649 156.515 394.069 152.885 398.172 149.308C402.38 145.626 407.535 142.206 413.637 139.05V128.319C413.637 122.322 412.585 116.799 410.481 111.749C408.482 106.594 405.589 102.175 401.801 98.493C398.119 94.7055 393.753 91.7597 388.703 89.6556C383.653 87.4462 378.182 86.3415 372.291 86.3415C366.294 86.3415 360.771 87.4462 355.721 89.6556C350.776 91.7597 346.41 94.7581 342.622 98.6508C338.94 102.543 336.047 107.12 333.943 112.38C331.944 117.535 330.944 123.164 330.944 129.266C330.944 135.368 331.944 141.049 333.943 146.31C336.047 151.465 338.94 155.989 342.622 159.881C346.41 163.774 350.776 166.825 355.721 169.034C360.771 171.138 366.294 172.19 372.291 172.19Z" fill="#0FB7C6"/>
<path d="M449.976 185.447V127.846C449.976 120.692 451.975 115.116 455.972 111.118C460.075 107.015 465.704 104.963 472.858 104.963H489.428V117.43H475.541C472.069 117.43 469.334 118.43 467.335 120.429C465.441 122.428 464.494 125.216 464.494 128.793V185.447H449.976Z" fill="#0FB7C6"/>
<path d="M536.303 187.34C528.518 187.34 521.784 185.499 516.103 181.817C510.422 178.029 506.056 172.927 503.005 166.509C499.954 160.092 498.428 152.99 498.428 145.205C498.428 137.314 500.112 130.213 503.478 123.9C506.845 117.483 511.684 112.433 517.997 108.751C524.309 104.963 531.884 103.069 540.722 103.069C549.243 103.069 556.555 104.911 562.657 108.593C568.759 112.275 573.441 117.272 576.702 123.585C580.069 129.897 581.752 136.946 581.752 144.731V185.447H567.076V169.034H566.76C565.182 172.085 563.025 175.031 560.29 177.872C557.66 180.607 554.346 182.869 550.348 184.658C546.35 186.446 541.668 187.34 536.303 187.34ZM540.09 174.873C545.351 174.873 549.98 173.611 553.978 171.086C558.081 168.456 561.237 164.879 563.446 160.355C565.761 155.726 566.918 150.57 566.918 144.889C566.918 139.313 565.813 134.316 563.604 129.897C561.5 125.479 558.449 122.007 554.451 119.482C550.453 116.852 545.772 115.537 540.406 115.537C534.725 115.537 529.833 116.852 525.73 119.482C521.732 122.112 518.628 125.689 516.419 130.213C514.315 134.632 513.263 139.682 513.263 145.363C513.263 150.833 514.315 155.831 516.419 160.355C518.523 164.773 521.574 168.298 525.572 170.928C529.57 173.558 534.409 174.873 540.09 174.873Z" fill="#0FB7C6"/>
<path d="M641.955 187.34C635.853 187.34 630.277 186.393 625.227 184.5C620.177 182.501 615.811 179.608 612.128 175.82C608.446 172.033 605.553 167.509 603.449 162.248C601.45 156.883 600.45 150.886 600.45 144.258C600.45 135.841 602.134 128.582 605.5 122.48C608.972 116.273 613.654 111.486 619.546 108.119C625.542 104.753 632.223 103.069 639.587 103.069C643.69 103.069 647.583 103.753 651.265 105.121C655.053 106.489 658.419 108.382 661.365 110.802C664.311 113.222 666.626 116.063 668.309 119.324H668.625V70.2449H683.143V144.731C683.143 153.674 681.302 161.354 677.62 167.772C674.043 174.084 669.151 178.924 662.943 182.29C656.841 185.657 649.845 187.34 641.955 187.34ZM641.955 174.873C646.899 174.873 651.371 173.663 655.368 171.244C659.366 168.824 662.523 165.405 664.837 160.986C667.257 156.567 668.467 151.36 668.467 145.363C668.467 139.261 667.257 134 664.837 129.582C662.523 125.058 659.366 121.586 655.368 119.166C651.371 116.746 646.847 115.537 641.797 115.537C636.852 115.537 632.328 116.799 628.225 119.324C624.227 121.849 621.018 125.321 618.599 129.739C616.284 134.158 615.127 139.313 615.127 145.205C615.127 151.307 616.337 156.567 618.756 160.986C621.176 165.405 624.385 168.824 628.383 171.244C632.486 173.663 637.01 174.873 641.955 174.873Z" fill="#0FB7C6"/>
<path d="M704.554 185.447V172.98H743.059C745.584 172.98 747.741 172.454 749.53 171.401C751.423 170.244 752.844 168.771 753.79 166.983C754.737 165.194 755.211 163.301 755.211 161.302C755.211 159.408 754.79 157.672 753.948 156.094C753.107 154.411 751.792 153.095 750.003 152.149C748.32 151.096 746.268 150.57 743.848 150.57H727.594C722.439 150.57 717.915 149.729 714.022 148.045C710.235 146.257 707.236 143.679 705.027 140.313C702.923 136.946 701.871 132.843 701.871 128.004C701.871 123.9 702.87 120.113 704.869 116.641C706.868 113.169 709.656 110.381 713.233 108.277C716.81 106.068 720.913 104.963 725.542 104.963H762.628V117.43H726.963C723.701 117.43 721.124 118.43 719.23 120.429C717.336 122.428 716.389 124.795 716.389 127.53C716.389 130.16 717.336 132.475 719.23 134.474C721.229 136.368 724.017 137.314 727.594 137.314H743.059C748.846 137.314 753.685 138.261 757.578 140.155C761.576 141.943 764.574 144.574 766.573 148.045C768.677 151.517 769.729 155.778 769.729 160.828C769.729 165.142 768.677 169.192 766.573 172.98C764.469 176.662 761.523 179.66 757.736 181.975C754.054 184.289 749.74 185.447 744.795 185.447H704.554Z" fill="#0FB7C6"/>
<path d="M912.705 220.165C907.444 220.165 902.762 219.113 898.659 217.009C894.661 215.01 891.505 212.011 889.191 208.014C886.876 204.016 885.719 199.229 885.719 193.653C885.719 192.285 885.772 190.865 885.877 189.392C885.982 188.024 886.14 186.604 886.35 185.131C877.723 185.657 869.727 184.658 862.363 182.133C854.998 179.608 848.581 175.873 843.11 170.928C837.639 165.878 833.378 159.829 830.327 152.78C827.276 145.626 825.751 137.788 825.751 129.266C825.751 121.481 827.066 114.221 829.696 107.488C832.326 100.65 836.114 94.6529 841.058 89.4978C846.003 84.3426 851.947 80.3448 858.891 77.5042C865.94 74.5584 873.725 73.0855 882.247 73.0855C890.769 73.0855 898.502 74.5058 905.445 77.3463C912.389 80.1869 918.333 84.1848 923.278 89.34C928.222 94.3899 932.01 100.229 934.64 106.857C937.376 113.485 938.743 120.639 938.743 128.319V191.917C938.743 197.598 937.691 202.543 935.587 206.751C933.483 211.064 930.484 214.379 926.592 216.693C922.804 219.008 918.175 220.165 912.705 220.165ZM911.758 206.593C915.229 206.593 918.07 205.331 920.279 202.806C922.489 200.386 923.593 196.862 923.593 192.232V154.674C918.228 158.145 913.967 161.67 910.811 165.247C907.655 168.824 905.287 172.296 903.709 175.662C902.236 179.029 901.237 182.133 900.711 184.973C900.29 187.814 900.08 190.181 900.08 192.075C900.08 195.126 900.606 197.703 901.658 199.807C902.815 202.017 904.288 203.7 906.076 204.857C907.865 206.015 909.759 206.593 911.758 206.593ZM882.247 172.19C883.93 172.19 885.508 172.138 886.981 172.033C888.454 171.822 890.032 171.507 891.716 171.086C893.189 167.509 895.24 163.879 897.87 160.197C900.606 156.515 904.025 152.885 908.128 149.308C912.336 145.626 917.491 142.206 923.593 139.05V128.319C923.593 122.322 922.541 116.799 920.437 111.749C918.438 106.594 915.545 102.175 911.758 98.493C908.075 94.7055 903.709 91.7597 898.659 89.6556C893.609 87.4462 888.139 86.3415 882.247 86.3415C876.25 86.3415 870.727 87.4462 865.677 89.6556C860.732 91.7597 856.366 94.7581 852.579 98.6508C848.896 102.543 846.003 107.12 843.899 112.38C841.9 117.535 840.901 123.164 840.901 129.266C840.901 135.368 841.9 141.049 843.899 146.31C846.003 151.465 848.896 155.989 852.579 159.881C856.366 163.774 860.732 166.825 865.677 169.034C870.727 171.138 876.25 172.19 882.247 172.19Z" fill="#111827"/>
<path d="M993.861 187.34C986.076 187.34 979.343 185.499 973.661 181.817C967.98 178.029 963.614 172.927 960.563 166.509C957.512 160.092 955.987 152.99 955.987 145.205C955.987 137.314 957.67 130.213 961.036 123.9C964.403 117.483 969.243 112.433 975.555 108.751C981.867 104.963 989.442 103.069 998.28 103.069C1006.8 103.069 1014.11 104.911 1020.22 108.593C1026.32 112.275 1031 117.272 1034.26 123.585C1037.63 129.897 1039.31 136.946 1039.31 144.731V185.447H1024.63V169.034H1024.32C1022.74 172.085 1020.58 175.031 1017.85 177.872C1015.22 180.607 1011.9 182.869 1007.91 184.658C1003.91 186.446 999.227 187.34 993.861 187.34ZM997.649 174.873C1002.91 174.873 1007.54 173.611 1011.54 171.086C1015.64 168.456 1018.8 164.879 1021 160.355C1023.32 155.726 1024.48 150.57 1024.48 144.889C1024.48 139.313 1023.37 134.316 1021.16 129.897C1019.06 125.479 1016.01 122.007 1012.01 119.482C1008.01 116.852 1003.33 115.537 997.964 115.537C992.283 115.537 987.391 116.852 983.288 119.482C979.29 122.112 976.186 125.689 973.977 130.213C971.873 134.632 970.821 139.682 970.821 145.363C970.821 150.833 971.873 155.831 973.977 160.355C976.081 164.773 979.132 168.298 983.13 170.928C987.128 173.558 991.967 174.873 997.649 174.873Z" fill="#111827"/>
<path d="M1089.89 185.447C1082.73 185.447 1077.1 183.395 1073 179.292C1069 175.189 1067 169.613 1067 162.564V84.7634H1081.52V161.617C1081.52 165.089 1082.47 167.877 1084.36 169.981C1086.36 171.98 1089.1 172.98 1092.57 172.98H1108.82V185.447H1089.89ZM1053.12 117.43V104.963H1109.14V117.43H1081.13H1053.12Z" fill="#111827"/>
<path d="M1165.1 185.447C1156.26 185.447 1148.42 183.816 1141.59 180.554C1134.75 177.188 1129.38 172.506 1125.49 166.509C1121.7 160.407 1119.81 153.306 1119.81 145.205C1119.81 137.209 1121.44 130.055 1124.7 123.743C1127.96 117.325 1132.48 112.275 1138.27 108.593C1144.06 104.911 1150.79 103.069 1158.47 103.069C1166.78 103.069 1173.67 104.858 1179.14 108.435C1184.72 112.012 1188.88 116.852 1191.61 122.954C1194.35 128.95 1195.71 135.684 1195.71 143.153C1195.71 144.311 1195.66 145.521 1195.56 146.783C1195.56 148.045 1195.45 149.15 1195.24 150.097H1135.27C1135.8 155.042 1137.43 159.25 1140.16 162.722C1142.9 166.088 1146.37 168.666 1150.58 170.455C1154.89 172.138 1159.63 172.98 1164.78 172.98H1185.77V185.447H1165.1ZM1135.12 139.839H1181.04C1181.04 137.84 1180.83 135.736 1180.41 133.527C1179.99 131.212 1179.25 129.003 1178.2 126.899C1177.15 124.69 1175.73 122.743 1173.94 121.06C1172.25 119.271 1170.1 117.851 1167.47 116.799C1164.94 115.747 1161.94 115.221 1158.47 115.221C1154.79 115.221 1151.53 115.957 1148.69 117.43C1145.95 118.798 1143.58 120.692 1141.59 123.111C1139.59 125.426 1138.06 128.056 1137.01 131.002C1135.96 133.948 1135.33 136.894 1135.12 139.839Z" fill="#111827"/>
<path d="M1241.21 187.34C1236.16 187.34 1231.59 186.393 1227.48 184.5C1223.49 182.501 1220.28 179.45 1217.86 175.347C1215.44 171.138 1214.23 165.773 1214.23 159.25V104.963H1228.75V161.775C1228.75 164.616 1229.32 167.035 1230.48 169.034C1231.64 171.033 1233.16 172.506 1235.06 173.453C1236.95 174.4 1238.95 174.873 1241.06 174.873C1243.16 174.873 1245.16 174.4 1247.05 173.453C1248.95 172.401 1250.47 170.928 1251.63 169.034C1252.89 167.035 1253.52 164.616 1253.52 161.775V130.529C1253.52 124.321 1254.68 119.219 1256.99 115.221C1259.31 111.118 1262.46 108.067 1266.46 106.068C1270.46 104.069 1274.98 103.069 1280.03 103.069C1285.08 103.069 1289.61 104.069 1293.61 106.068C1297.6 108.067 1300.76 111.118 1303.07 115.221C1305.39 119.219 1306.55 124.321 1306.55 130.529V161.775C1306.55 164.616 1307.13 167.035 1308.28 169.034C1309.44 170.928 1310.97 172.401 1312.86 173.453C1314.75 174.4 1316.8 174.873 1319.01 174.873C1321.22 174.873 1323.22 174.4 1325.01 173.453C1326.8 172.401 1328.27 170.928 1329.43 169.034C1330.59 167.035 1331.17 164.616 1331.17 161.775V104.963H1345.84V159.25C1345.84 165.773 1344.63 171.138 1342.21 175.347C1339.79 179.45 1336.53 182.501 1332.43 184.5C1328.43 186.393 1323.96 187.34 1319.01 187.34C1314.17 187.34 1309.7 186.393 1305.6 184.5C1301.5 182.501 1298.18 179.45 1295.66 175.347C1293.24 171.138 1292.03 165.773 1292.03 159.25V128.319C1292.03 125.373 1291.45 122.954 1290.29 121.06C1289.13 119.166 1287.66 117.798 1285.87 116.957C1284.09 116.01 1282.14 115.537 1280.03 115.537C1277.93 115.537 1275.93 116.01 1274.04 116.957C1272.25 117.798 1270.78 119.166 1269.62 121.06C1268.57 122.954 1268.04 125.373 1268.04 128.319V159.25C1268.04 165.773 1266.78 171.138 1264.25 175.347C1261.83 179.45 1258.57 182.501 1254.47 184.5C1250.47 186.393 1246.05 187.34 1241.21 187.34Z" fill="#111827"/>
<path d="M1402.41 187.34C1394.63 187.34 1387.89 185.499 1382.21 181.817C1376.53 178.029 1372.16 172.927 1369.11 166.509C1366.06 160.092 1364.54 152.99 1364.54 145.205C1364.54 137.314 1366.22 130.213 1369.59 123.9C1372.95 117.483 1377.79 112.433 1384.11 108.751C1390.42 104.963 1397.99 103.069 1406.83 103.069C1415.35 103.069 1422.66 104.911 1428.77 108.593C1434.87 112.275 1439.55 117.272 1442.81 123.585C1446.18 129.897 1447.86 136.946 1447.86 144.731V185.447H1433.18V169.034H1432.87C1431.29 172.085 1429.13 175.031 1426.4 177.872C1423.77 180.607 1420.45 182.869 1416.46 184.658C1412.46 186.446 1407.78 187.34 1402.41 187.34ZM1406.2 174.873C1411.46 174.873 1416.09 173.611 1420.09 171.086C1424.19 168.456 1427.35 164.879 1429.56 160.355C1431.87 155.726 1433.03 150.57 1433.03 144.889C1433.03 139.313 1431.92 134.316 1429.71 129.897C1427.61 125.479 1424.56 122.007 1420.56 119.482C1416.56 116.852 1411.88 115.537 1406.51 115.537C1400.83 115.537 1395.94 116.852 1391.84 119.482C1387.84 122.112 1384.74 125.689 1382.53 130.213C1380.42 134.632 1379.37 139.682 1379.37 145.363C1379.37 150.833 1380.42 155.831 1382.53 160.355C1384.63 164.773 1387.68 168.298 1391.68 170.928C1395.68 173.558 1400.52 174.873 1406.2 174.873Z" fill="#111827"/>
<path d="M1501.44 217.482V186.709C1495.54 185.867 1490.28 183.921 1485.65 180.87C1481.13 177.714 1477.55 173.663 1474.92 168.719C1472.29 163.669 1470.98 157.935 1470.98 151.517V104.963H1485.65V151.36C1485.65 156.199 1486.71 160.407 1488.81 163.984C1490.91 167.456 1493.7 170.139 1497.17 172.033C1500.75 173.926 1504.54 174.873 1508.54 174.873C1512.64 174.873 1516.43 173.926 1519.9 172.033C1523.48 170.139 1526.32 167.456 1528.42 163.984C1530.63 160.407 1531.73 156.199 1531.73 151.36V104.963H1546.25V151.517C1546.25 157.935 1544.94 163.616 1542.31 168.561C1539.78 173.506 1536.21 177.556 1531.58 180.712C1527.05 183.763 1521.85 185.762 1515.95 186.709V217.482H1501.44Z" fill="#111827"/>
<path d="M75.7736 197.056C75.7736 188.684 82.5601 181.897 90.9317 181.897C99.3033 181.897 106.09 188.684 106.09 197.056V241.152C106.09 249.523 99.3033 256.31 90.9317 256.31C82.5601 256.31 75.7736 249.524 75.7736 241.152V197.056Z" fill="#111827"/>
<path d="M177.747 197.056C177.747 188.684 184.533 181.897 192.905 181.897C201.276 181.897 208.063 188.684 208.063 197.056V241.152C208.063 249.523 201.276 256.31 192.905 256.31C184.533 256.31 177.747 249.524 177.747 241.152V197.056Z" fill="#111827"/>
<path d="M117.114 162.605H166.723V231.506C166.723 245.205 155.617 256.31 141.918 256.31C128.219 256.31 117.114 245.205 117.114 231.506V162.605Z" fill="#111827"/>
<path d="M142.074 128.835V88.7476H144.643V128.835H142.074ZM149.481 101.572C149.335 100.205 148.719 99.1401 147.633 98.378C146.558 97.6159 145.159 97.2349 143.437 97.2349C142.226 97.2349 141.187 97.4175 140.321 97.7829C139.454 98.1483 138.791 98.6442 138.332 99.2705C137.873 99.8969 137.638 100.612 137.627 101.416C137.627 102.084 137.779 102.663 138.081 103.154C138.395 103.645 138.817 104.062 139.35 104.407C139.882 104.741 140.472 105.023 141.119 105.252C141.767 105.482 142.419 105.675 143.077 105.832L146.083 106.583C147.294 106.865 148.458 107.246 149.575 107.727C150.703 108.207 151.71 108.812 152.597 109.543C153.495 110.274 154.205 111.156 154.727 112.189C155.249 113.223 155.51 114.434 155.51 115.822C155.51 117.701 155.03 119.356 154.069 120.786C153.109 122.206 151.721 123.318 149.904 124.122C148.098 124.915 145.911 125.312 143.343 125.312C140.848 125.312 138.682 124.926 136.844 124.153C135.017 123.381 133.587 122.253 132.554 120.771C131.531 119.288 130.977 117.482 130.894 115.353H136.609C136.693 116.47 137.037 117.399 137.643 118.14C138.248 118.881 139.037 119.434 140.007 119.8C140.989 120.165 142.085 120.348 143.296 120.348C144.559 120.348 145.666 120.16 146.616 119.784C147.576 119.398 148.328 118.865 148.871 118.187C149.413 117.498 149.69 116.694 149.701 115.775C149.69 114.94 149.445 114.251 148.965 113.708C148.484 113.155 147.811 112.696 146.944 112.33C146.088 111.955 145.086 111.62 143.938 111.328L140.289 110.389C137.648 109.71 135.56 108.682 134.026 107.304C132.501 105.915 131.739 104.073 131.739 101.776C131.739 99.8865 132.251 98.2318 133.274 96.8121C134.308 95.3923 135.712 94.2909 137.486 93.508C139.261 92.7146 141.271 92.3179 143.515 92.3179C145.791 92.3179 147.785 92.7146 149.497 93.508C151.219 94.2909 152.571 95.3818 153.553 96.7807C154.534 98.1692 155.04 99.7664 155.072 101.572H149.481Z" fill="#111827"/>
<path fill-rule="evenodd" clip-rule="evenodd" d="M64.7497 179.695V105.142C115.736 59.8086 170.856 61.1867 219.087 105.142V179.695C170.856 134.221 114.358 136.977 64.7497 179.695ZM143.296 141.111C160.8 141.111 174.99 126.921 174.99 109.417C174.99 91.9128 160.8 77.7228 143.296 77.7228C125.792 77.7228 111.602 91.9128 111.602 109.417C111.602 126.921 125.792 141.111 143.296 141.111Z" fill="#111827"/>
<path fill-rule="evenodd" clip-rule="evenodd" d="M142.702 0L0 69.4435L34.4334 86.1999V122.233L33.2063 125.55L26.1655 128.155L33.2063 130.76L35.8116 137.801L38.4169 130.76L45.4577 128.155L38.4169 125.55L37.8514 124.021H40.0564V88.9362L61.3056 99.2768C117.114 55.1205 163.966 53.7425 222.672 98.755L281.08 69.4435L142.702 0Z" fill="#0FB7C6"/>
</svg>
